<?xml version="1.0" encoding="utf-8"?>
<!-- Generator: Adobe Illustrator 22.0.1, SVG Export Plug-In . SVG Version: 6.00 Build 0)  -->
<svg version="1.1" id="Capa_1" xmlns="http://www.w3.org/2000/svg" xmlns:xlink="http://www.w3.org/1999/xlink" x="0px" y="0px"
	 viewBox="0 0 1920 1080" style="enable-background:new 0 0 1920 1080;" xml:space="preserve">
<style type="text/css">
	.st0{fill:#FFFFFF;}
</style>
<path class="st0" d="M280.3,900.5c3.6,0.9,6.4,2,8.7,3.2s4,2.6,5.2,4s2.1,2.9,2.6,4.3c0.4,1.5,0.7,2.8,0.7,4.1c0,2-0.5,3.9-1.4,5.6
	c-0.9,1.8-2.2,3.3-3.8,4.6c-1.6,1.3-3.5,2.3-5.7,3.1c-2.2,0.8-4.5,1.2-7,1.2c-2.3,0-4.5-0.3-6.5-1c-2.1-0.7-3.9-1.6-5.4-2.7
	c-1.6-1.2-2.9-2.5-3.9-4.1c-1-1.6-1.7-3.3-1.9-5.1l5.8-1.2c0.7,2.2,2,4,4.2,5.4c2.1,1.5,4.7,2.2,7.8,2.2c1.5,0,3-0.2,4.4-0.6
	c1.4-0.4,2.6-1,3.6-1.8s1.8-1.6,2.4-2.6c0.6-1,0.9-2,0.9-3.1c0-4.3-4-7.5-12.1-9.5c-1.9-0.5-3.9-1-5.8-1.6c-2-0.6-3.7-1.4-5.3-2.4
	c-1.6-1-2.9-2.3-3.9-3.8c-1-1.5-1.5-3.5-1.5-5.9c0-2,0.4-3.9,1.2-5.6c0.8-1.7,1.9-3.2,3.4-4.4c1.5-1.2,3.2-2.2,5.3-2.9
	c2.1-0.7,4.3-1.1,6.8-1.1c2.2,0,4.3,0.3,6.2,1c1.9,0.7,3.6,1.6,5.1,2.7c1.4,1.1,2.6,2.5,3.5,4.1c0.9,1.6,1.5,3.3,1.7,5.2l-5.8,1.3
	c-0.5-2.2-1.7-4.1-3.5-5.5c-1.8-1.5-4.2-2.2-7.2-2.2c-3.1,0-5.6,0.7-7.3,2.1c-1.8,1.4-2.6,3.2-2.6,5.3c0,0.8,0.2,1.6,0.5,2.3
	c0.3,0.7,0.9,1.3,1.7,1.9c0.8,0.6,2,1.1,3.4,1.7S277.9,899.9,280.3,900.5z"/>
<path class="st0" d="M321,930c-0.1,0-0.5,0.2-1.1,0.3c-0.6,0.2-1.4,0.3-2.3,0.4c-0.9,0.1-1.9,0-3-0.2s-2.2-0.6-3.2-1.3
	c-3.1-2.1-4.7-6.1-4.7-11.9v-15.7h-4.3v-5.8h4.3v-15.6h5.8v15.6h7v5.8h-7v15.7c0,3.7,0.7,6,2.1,7c0.4,0.3,0.9,0.4,1.4,0.5
	c0.5,0,0.9,0.1,1.4,0c0.4,0,0.9-0.1,1.5-0.3L321,930z"/>
<path class="st0" d="M327.5,919.4c-0.2-0.9-0.3-1.7-0.3-2.5v-1v-20.1h6v19.9c0,0.8,0.1,1.7,0.2,2.8c0.2,1.1,0.5,2.1,1.1,3.1
	c0.6,1,1.4,1.8,2.5,2.5c1.1,0.7,2.6,1.1,4.5,1.1c2.2,0,4-0.3,5.4-1.1c1.4-0.7,2.4-1.5,3.1-2.5c0.7-0.9,1.2-1.9,1.4-2.9
	s0.4-1.8,0.4-2.3v-20.6h6v33.7h-6v-3c-0.9,0.9-1.8,1.7-2.6,2.2c-0.9,0.5-1.9,1-3.2,1.4c-1.3,0.4-2.8,0.7-4.5,0.7
	c-2.6,0-4.7-0.4-6.4-1.2c-1.7-0.8-3.1-1.7-4.1-2.9c-1.1-1.1-1.8-2.4-2.4-3.7C328,921.7,327.7,920.4,327.5,919.4z"/>
<path class="st0" d="M960.9,535.5c0,0.2-0.1,0.5-0.3,0.6c-0.2,0.2-0.4,0.3-0.6,0.3s-0.5-0.1-0.6-0.3c-0.2-0.2-0.3-0.4-0.3-0.6
	c0-0.2,0.1-0.5,0.3-0.6c0.2-0.2,0.4-0.3,0.6-0.3s0.5,0.1,0.6,0.3C960.8,535,960.9,535.2,960.9,535.5z M960.7,545.4h-1.4v-7.7h1.4
	V545.4z"/>
<path class="st0" d="M963.8,541.5c0,2.9-2,4.1-3.9,4.1c-2.1,0-3.7-1.5-3.7-4c0-2.6,1.7-4.1,3.9-4.1
	C962.3,537.5,963.8,539.1,963.8,541.5z M957.6,541.6c0,1.7,1,3,2.4,3c1.4,0,2.4-1.3,2.4-3c0-1.3-0.7-3-2.3-3
	C958.4,538.6,957.6,540.1,957.6,541.6z M962.1,534.3l-2,2.3h-1l1.4-2.3H962.1z"/>
<path class="st0" d="M963.4,538.6c0,0.1,0,0.2,0,0.3c0,0.1,0,0.2,0,0.2v0.2v4.6h-1.4v-4.6c0-0.2,0-0.4-0.1-0.6
	c0-0.2-0.1-0.5-0.2-0.7c-0.1-0.2-0.3-0.4-0.6-0.6c-0.3-0.2-0.6-0.2-1-0.2c-0.5,0-0.9,0.1-1.2,0.2c-0.3,0.2-0.5,0.3-0.7,0.6
	s-0.3,0.4-0.3,0.7c-0.1,0.2-0.1,0.4-0.1,0.5v4.7h-1.4v-7.7h1.4v0.7c0,0,0.1-0.1,0.2-0.2c0.1-0.1,0.3-0.2,0.5-0.3
	c0.2-0.1,0.4-0.2,0.7-0.3c0.3-0.1,0.6-0.2,1-0.2c0.6,0,1.1,0.1,1.5,0.3c0.4,0.2,0.7,0.4,0.9,0.7c0.2,0.3,0.4,0.5,0.5,0.9
	C963.3,538.1,963.4,538.4,963.4,538.6z"/>
<path class="st0" d="M999.2,430.7c0,22-17.6,39.8-39.2,39.8c-21.7,0-39.2-17.8-39.2-39.8c0-22,17.6-39.8,39.2-39.8
	C981.7,390.8,999.2,408.7,999.2,430.7z"/>
</svg>
