<?xml version="1.0" encoding="utf-8"?>
<!-- Generator: Adobe Illustrator 22.0.1, SVG Export Plug-In . SVG Version: 6.00 Build 0)  -->
<svg version="1.1" id="Capa_1" xmlns="http://www.w3.org/2000/svg" xmlns:xlink="http://www.w3.org/1999/xlink" x="0px" y="0px"
	 viewBox="0 0 1920 1080" style="enable-background:new 0 0 1920 1080;" xml:space="preserve">
<style type="text/css">
	.st0{fill:#FFFFFF;}
</style>
<g>
	<g>
		<path class="st0" d="M280.3,900.5c3.6,0.9,6.4,2,8.7,3.2s4,2.6,5.2,4s2.1,2.9,2.6,4.3c0.4,1.5,0.7,2.8,0.7,4.1
			c0,2-0.5,3.9-1.4,5.6c-0.9,1.8-2.2,3.3-3.8,4.6c-1.6,1.3-3.5,2.3-5.7,3.1c-2.2,0.8-4.5,1.2-7,1.2c-2.3,0-4.5-0.3-6.5-1
			c-2.1-0.7-3.9-1.6-5.4-2.7c-1.6-1.2-2.9-2.5-3.9-4.1c-1-1.6-1.7-3.3-1.9-5.1l5.8-1.2c0.7,2.2,2,4,4.2,5.4c2.1,1.5,4.7,2.2,7.8,2.2
			c1.5,0,3-0.2,4.4-0.6c1.4-0.4,2.6-1,3.6-1.8s1.8-1.6,2.4-2.6c0.6-1,0.9-2,0.9-3.1c0-4.3-4-7.5-12.1-9.5c-1.9-0.5-3.9-1-5.8-1.6
			c-2-0.6-3.7-1.4-5.3-2.4c-1.6-1-2.9-2.3-3.9-3.8c-1-1.5-1.5-3.5-1.5-5.9c0-2,0.4-3.9,1.2-5.6c0.8-1.7,1.9-3.2,3.4-4.4
			c1.5-1.2,3.2-2.2,5.3-2.9c2.1-0.7,4.3-1.1,6.8-1.1c2.2,0,4.3,0.3,6.2,1c1.9,0.7,3.6,1.6,5.1,2.7c1.4,1.1,2.6,2.5,3.5,4.1
			c0.9,1.6,1.5,3.3,1.7,5.2l-5.8,1.3c-0.5-2.2-1.7-4.1-3.5-5.5c-1.8-1.5-4.2-2.2-7.2-2.2c-3.1,0-5.6,0.7-7.3,2.1
			c-1.8,1.4-2.6,3.2-2.6,5.3c0,0.8,0.2,1.6,0.5,2.3c0.3,0.7,0.9,1.3,1.7,1.9c0.8,0.6,2,1.1,3.4,1.7S277.9,899.9,280.3,900.5z"/>
		<path class="st0" d="M321,930c-0.1,0-0.5,0.2-1.1,0.3c-0.6,0.2-1.4,0.3-2.3,0.4c-0.9,0.1-1.9,0-3-0.2s-2.2-0.6-3.2-1.3
			c-3.1-2.1-4.7-6.1-4.7-11.9v-15.7h-4.3v-5.8h4.3v-15.6h5.8v15.6h7v5.8h-7v15.7c0,3.7,0.7,6,2.1,7c0.4,0.3,0.9,0.4,1.4,0.5
			c0.5,0,0.9,0.1,1.4,0c0.4,0,0.9-0.1,1.5-0.3L321,930z"/>
		<path class="st0" d="M327.5,919.4c-0.2-0.9-0.3-1.7-0.3-2.5v-1v-20.1h6v19.9c0,0.8,0.1,1.7,0.2,2.8c0.2,1.1,0.5,2.1,1.1,3.1
			c0.6,1,1.4,1.8,2.5,2.5c1.1,0.7,2.6,1.1,4.5,1.1c2.2,0,4-0.3,5.4-1.1c1.4-0.7,2.4-1.5,3.1-2.5c0.7-0.9,1.2-1.9,1.4-2.9
			s0.4-1.8,0.4-2.3v-20.6h6v33.7h-6v-3c-0.9,0.9-1.8,1.7-2.6,2.2c-0.9,0.5-1.9,1-3.2,1.4c-1.3,0.4-2.8,0.7-4.5,0.7
			c-2.6,0-4.7-0.4-6.4-1.2c-1.7-0.8-3.1-1.7-4.1-2.9c-1.1-1.1-1.8-2.4-2.4-3.7C328,921.7,327.7,920.4,327.5,919.4z"/>
		<path class="st0" d="M400.9,880.3v49.2h-6v-3.9c-1.5,1.6-3.3,2.9-5.3,3.8c-2,0.9-4.2,1.3-6.5,1.3c-2.3,0-4.5-0.5-6.6-1.4
			c-2-0.9-3.8-2.2-5.3-3.9c-1.5-1.6-2.7-3.6-3.6-5.8c-0.9-2.2-1.3-4.5-1.3-7c0-2.5,0.4-4.9,1.3-7.1c0.9-2.2,2.1-4.1,3.6-5.8
			c1.5-1.6,3.3-2.9,5.3-3.9c2-1,4.2-1.4,6.6-1.4c2.3,0,4.5,0.5,6.5,1.4c2,0.9,3.8,2.2,5.3,3.9v-19.5H400.9z M383.6,924.9
			c1.5,0,3-0.3,4.4-0.9c1.4-0.6,2.6-1.5,3.6-2.6c1-1.1,1.8-2.4,2.5-3.9c0.6-1.5,0.9-3.1,0.9-4.8c0-1.7-0.3-3.3-0.9-4.8
			c-0.6-1.5-1.4-2.8-2.5-3.9c-1-1.1-2.2-2-3.6-2.7c-1.4-0.7-2.8-1-4.4-1c-1.5,0-3,0.3-4.4,1c-1.4,0.7-2.6,1.5-3.6,2.7
			c-1,1.1-1.8,2.4-2.4,3.9c-0.6,1.5-0.9,3.1-0.9,4.8c0,1.7,0.3,3.3,0.9,4.8c0.6,1.5,1.4,2.8,2.4,3.9c1,1.1,2.2,2,3.6,2.6
			C380.6,924.6,382,924.9,383.6,924.9z"/>
		<path class="st0" d="M419,886.2c0,1.1-0.4,2-1.1,2.8c-0.7,0.8-1.7,1.2-2.7,1.2s-2-0.4-2.8-1.2c-0.8-0.8-1.2-1.7-1.2-2.8
			c0-1.1,0.4-2,1.2-2.7s1.7-1.1,2.8-1.1s2,0.4,2.7,1.1C418.6,884.2,419,885.1,419,886.2z M418.1,929.5h-6v-33.7h6V929.5z"/>
		<path class="st0" d="M444.7,930.7c-2.5,0-4.9-0.5-7.1-1.4c-2.2-0.9-4.1-2.2-5.8-3.9c-1.6-1.6-2.9-3.6-3.9-5.8
			c-1-2.2-1.4-4.6-1.4-7.1c0-2.5,0.5-4.8,1.4-7c1-2.2,2.3-4.1,3.9-5.8c1.6-1.6,3.6-2.9,5.8-3.9c2.2-1,4.6-1.4,7.1-1.4
			c2.5,0,4.8,0.5,7,1.4c2.2,1,4.1,2.3,5.8,3.9c1.6,1.6,2.9,3.6,3.9,5.8c1,2.2,1.4,4.5,1.4,7c0,2.5-0.5,4.9-1.4,7.1
			c-1,2.2-2.3,4.1-3.9,5.8c-1.6,1.6-3.6,2.9-5.8,3.9C449.5,930.3,447.2,930.7,444.7,930.7z M444.7,900.4c-1.7,0-3.3,0.3-4.8,0.9
			c-1.5,0.6-2.8,1.5-3.9,2.6c-1.1,1.1-1.9,2.4-2.6,3.9c-0.6,1.5-0.9,3.1-0.9,4.8c0,1.7,0.3,3.3,0.9,4.8c0.6,1.5,1.5,2.8,2.6,3.9
			c1.1,1.1,2.4,2,3.9,2.6c1.5,0.6,3.1,0.9,4.8,0.9s3.3-0.3,4.7-0.9c1.5-0.6,2.8-1.5,3.9-2.6c1.1-1.1,2-2.4,2.6-3.9
			c0.6-1.5,0.9-3.1,0.9-4.8c0-1.7-0.3-3.3-0.9-4.8c-0.6-1.5-1.5-2.8-2.6-3.9c-1.1-1.1-2.4-2-3.9-2.6
			C448,900.7,446.4,900.4,444.7,900.4z"/>
		<path class="st0" d="M517.3,880.3v49.2h-6v-3.9c-1.5,1.6-3.3,2.9-5.3,3.8c-2,0.9-4.2,1.3-6.5,1.3c-2.3,0-4.5-0.5-6.6-1.4
			c-2-0.9-3.8-2.2-5.3-3.9c-1.5-1.6-2.7-3.6-3.6-5.8s-1.3-4.5-1.3-7c0-2.5,0.4-4.9,1.3-7.1c0.9-2.2,2.1-4.1,3.6-5.8
			c1.5-1.6,3.3-2.9,5.3-3.9c2-1,4.2-1.4,6.6-1.4c2.3,0,4.5,0.5,6.5,1.4c2,0.9,3.8,2.2,5.3,3.9v-19.5H517.3z M500,924.9
			c1.5,0,3-0.3,4.4-0.9c1.4-0.6,2.6-1.5,3.6-2.6c1-1.1,1.8-2.4,2.5-3.9c0.6-1.5,0.9-3.1,0.9-4.8c0-1.7-0.3-3.3-0.9-4.8
			c-0.6-1.5-1.4-2.8-2.5-3.9c-1-1.1-2.2-2-3.6-2.7c-1.4-0.7-2.8-1-4.4-1c-1.5,0-3,0.3-4.4,1c-1.4,0.7-2.6,1.5-3.6,2.7
			c-1,1.1-1.8,2.4-2.4,3.9c-0.6,1.5-0.9,3.1-0.9,4.8c0,1.7,0.3,3.3,0.9,4.8c0.6,1.5,1.4,2.8,2.4,3.9c1,1.1,2.2,2,3.6,2.6
			C497,924.6,498.5,924.9,500,924.9z"/>
		<path class="st0" d="M531.7,914.3c0.2,1.5,0.6,2.9,1.2,4.2s1.4,2.4,2.4,3.4c1,0.9,2.1,1.7,3.3,2.2c1.2,0.6,2.6,0.8,4,0.8
			c2.2,0,4.1-0.5,5.9-1.5c1.8-1,3.2-2.4,4.2-4.1l4.9,3.2c-1.6,2.5-3.7,4.6-6.3,6.1c-2.6,1.5-5.5,2.3-8.7,2.3c-2.2,0-4.3-0.4-6.2-1.3
			c-1.9-0.8-3.7-2-5.2-3.5c-1.5-1.5-2.7-3.2-3.7-5.2c-1-2-1.5-4.2-1.7-6.5c0-0.2,0-0.5,0-0.8c0-0.3,0-0.6,0-0.8
			c0-1.5,0.2-2.9,0.5-4.2c0.4-2,1.1-3.8,2.2-5.5c1-1.7,2.3-3.2,3.7-4.4s3-2.2,4.8-2.9c1.8-0.7,3.7-1.1,5.6-1.1s3.8,0.3,5.7,1.1
			c1.8,0.7,3.4,1.7,4.8,2.9c1.4,1.2,2.7,2.7,3.7,4.4c1,1.7,1.8,3.5,2.2,5.5c0.3,1.3,0.5,2.7,0.5,4.2c0,0.3,0,0.6,0,0.8
			s0,0.5-0.1,0.8H531.7z M552.9,908.4c-0.8-2.4-2.1-4.3-4-5.8c-1.8-1.5-4-2.3-6.4-2.3c-2.4,0-4.5,0.8-6.4,2.3
			c-1.8,1.5-3.2,3.4-4,5.8H552.9z"/>
		<path class="st0" d="M602.9,880.4c2.3,0,4.5,0.4,6.6,1.3c2.1,0.9,3.9,2.1,5.4,3.6c1.5,1.5,2.8,3.4,3.7,5.4
			c0.9,2.1,1.4,4.3,1.4,6.6c0,2.4-0.5,4.6-1.4,6.7c-0.9,2.1-2.1,3.9-3.7,5.4c-1.5,1.5-3.4,2.8-5.4,3.6c-2.1,0.9-4.3,1.3-6.6,1.3
			h-12.8v14.9h-6.6v-49.1H602.9z M602.9,908.1c1.4,0,2.8-0.3,4.1-0.8s2.4-1.3,3.3-2.3c1-1,1.7-2.1,2.2-3.4c0.5-1.3,0.8-2.7,0.8-4.2
			c0-1.5-0.3-2.8-0.8-4.1c-0.5-1.3-1.3-2.4-2.2-3.4c-1-1-2.1-1.7-3.3-2.3c-1.3-0.6-2.6-0.8-4.1-0.8h-12.8v21.3H602.9z"/>
		<path class="st0" d="M636,886.2c0,1.1-0.4,2-1.1,2.8c-0.7,0.8-1.7,1.2-2.7,1.2s-2-0.4-2.8-1.2c-0.8-0.8-1.2-1.7-1.2-2.8
			c0-1.1,0.4-2,1.2-2.7c0.8-0.7,1.7-1.1,2.8-1.1s2,0.4,2.7,1.1C635.6,884.2,636,885.1,636,886.2z M635.1,929.5h-6v-33.7h6V929.5z"/>
		<path class="st0" d="M676.7,905.9c0.1,0.5,0.2,1,0.2,1.4c0,0.4,0.1,0.8,0.1,1.1v1v20.1h-6v-19.9c0-0.7-0.1-1.7-0.2-2.7
			c-0.2-1.1-0.5-2.1-1.1-3.1c-0.6-1-1.4-1.8-2.5-2.5c-1.1-0.7-2.6-1.1-4.5-1.1c-2.2,0-4,0.3-5.4,1c-1.3,0.7-2.4,1.5-3.1,2.5
			c-0.7,1-1.2,1.9-1.4,2.9c-0.2,1-0.4,1.7-0.4,2.3v20.6h-6v-33.7h6v3c0,0,0.3-0.2,0.7-0.7c0.4-0.5,1.1-1,2-1.5
			c0.9-0.5,1.9-1,3.2-1.4c1.3-0.4,2.8-0.7,4.5-0.7c2.6,0,4.7,0.4,6.4,1.2c1.7,0.8,3.1,1.7,4.1,2.9c1.1,1.1,1.8,2.4,2.4,3.7
			C676.1,903.6,676.5,904.8,676.7,905.9z"/>
		<path class="st0" d="M703.3,930c-0.1,0-0.5,0.2-1.1,0.3c-0.6,0.2-1.4,0.3-2.3,0.4c-0.9,0.1-1.9,0-3-0.2c-1.1-0.2-2.2-0.6-3.2-1.3
			c-3.1-2.1-4.7-6.1-4.7-11.9v-15.7h-4.3v-5.8h4.3v-15.6h5.8v15.6h7v5.8h-7v15.7c0,3.7,0.7,6,2.1,7c0.4,0.3,0.9,0.4,1.4,0.5
			c0.5,0,0.9,0.1,1.4,0c0.4,0,0.9-0.1,1.5-0.3L703.3,930z"/>
		<path class="st0" d="M709.8,919.4c-0.2-0.9-0.3-1.7-0.3-2.5v-1v-20.1h6v19.9c0,0.8,0.1,1.7,0.2,2.8c0.2,1.1,0.5,2.1,1.1,3.1
			c0.6,1,1.4,1.8,2.5,2.5c1.1,0.7,2.6,1.1,4.5,1.1c2.2,0,4-0.3,5.4-1.1c1.4-0.7,2.4-1.5,3.1-2.5s1.2-1.9,1.4-2.9
			c0.2-1,0.4-1.8,0.4-2.3v-20.6h6v33.7h-6v-3c-0.9,0.9-1.8,1.7-2.6,2.2c-0.9,0.5-1.9,1-3.2,1.4c-1.3,0.4-2.8,0.7-4.5,0.7
			c-2.6,0-4.7-0.4-6.4-1.2c-1.7-0.8-3.1-1.7-4.1-2.9c-1.1-1.1-1.8-2.4-2.4-3.7C710.3,921.7,710,920.4,709.8,919.4z"/>
		<path class="st0" d="M767.7,894.5c1.5,0,2.9,0.1,4.1,0.4l-0.8,5.8c-0.8-0.3-1.9-0.5-3.3-0.5c-2.2,0-4,0.3-5.4,1
			c-1.3,0.7-2.4,1.5-3.1,2.5c-0.7,1-1.2,1.9-1.4,2.9c-0.2,1-0.4,1.7-0.4,2.3v20.7h-6v-33.7h6v3c0,0,0.3-0.3,0.7-0.7
			c0.4-0.4,1.1-0.9,1.9-1.5s1.9-1,3.2-1.5S765.9,894.5,767.7,894.5z"/>
		<path class="st0" d="M809.9,895.8v33.7h-6v-3.9c-1.5,1.6-3.3,2.9-5.3,3.8c-2,0.9-4.2,1.4-6.5,1.4c-2.3,0-4.5-0.5-6.6-1.4
			c-2-0.9-3.8-2.2-5.3-3.9c-1.5-1.6-2.7-3.6-3.6-5.8c-0.9-2.2-1.3-4.6-1.3-7.1c0-2.5,0.4-4.8,1.3-7c0.9-2.2,2.1-4.1,3.6-5.8
			c1.5-1.6,3.3-2.9,5.3-3.9c2-1,4.2-1.4,6.6-1.4c2.3,0,4.5,0.5,6.5,1.4c2,0.9,3.8,2.2,5.3,3.8v-3.9H809.9z M792.5,924.9
			c1.5,0,3-0.3,4.4-1c1.4-0.7,2.6-1.5,3.6-2.6c1-1.1,1.8-2.4,2.4-3.9c0.6-1.5,0.9-3.1,0.9-4.8c0-1.7-0.3-3.3-0.9-4.8
			c-0.6-1.5-1.4-2.8-2.4-3.9c-1-1.1-2.2-2-3.6-2.6c-1.4-0.7-2.8-1-4.4-1c-1.5,0-3,0.3-4.4,1c-1.4,0.7-2.6,1.5-3.6,2.6
			c-1,1.1-1.9,2.4-2.5,3.9c-0.6,1.5-0.9,3.1-0.9,4.8c0,1.7,0.3,3.3,0.9,4.8c0.6,1.5,1.4,2.8,2.5,3.9c1,1.1,2.2,2,3.6,2.6
			C789.5,924.6,791,924.9,792.5,924.9z"/>
		<path class="st0" d="M865.3,895.8l-22.5,52.1l-5.2-2.6l7.1-16.5l-14.2-33.1h6.3l11.1,25.7l11.1-25.7H865.3z"/>
		<path class="st0" d="M901.3,880.3c3.4,0,6.5,0.6,9.5,1.9c3,1.3,5.6,3,7.8,5.3c2.2,2.2,4,4.8,5.3,7.8c1.3,3,1.9,6.2,1.9,9.5
			s-0.6,6.6-1.9,9.5c-1.3,3-3,5.6-5.3,7.8c-2.2,2.2-4.8,4-7.8,5.3c-3,1.3-6.1,1.9-9.5,1.9h-14v-49.1H901.3z M901.3,923
			c2.5,0,4.8-0.5,7-1.4c2.2-1,4.1-2.3,5.7-3.9c1.6-1.6,2.9-3.6,3.8-5.8c0.9-2.2,1.4-4.5,1.4-7c0-2.5-0.5-4.8-1.4-7
			c-0.9-2.2-2.2-4.1-3.8-5.8s-3.5-2.9-5.7-3.9c-2.2-1-4.5-1.4-7-1.4h-7.4V923H901.3z"/>
		<path class="st0" d="M938.1,914.3c0.2,1.5,0.6,2.9,1.2,4.2s1.4,2.4,2.4,3.4c1,0.9,2.1,1.7,3.3,2.2c1.2,0.6,2.6,0.8,4,0.8
			c2.2,0,4.1-0.5,5.9-1.5c1.8-1,3.2-2.4,4.2-4.1l4.9,3.2c-1.6,2.5-3.7,4.6-6.3,6.1c-2.6,1.5-5.5,2.3-8.7,2.3c-2.2,0-4.3-0.4-6.2-1.3
			c-1.9-0.8-3.7-2-5.2-3.5c-1.5-1.5-2.7-3.2-3.7-5.2c-1-2-1.5-4.2-1.7-6.5c0-0.2,0-0.5,0-0.8s0-0.6,0-0.8c0-1.5,0.2-2.9,0.5-4.2
			c0.4-2,1.1-3.8,2.2-5.5c1-1.7,2.3-3.2,3.7-4.4c1.4-1.2,3-2.2,4.8-2.9c1.8-0.7,3.7-1.1,5.6-1.1c2,0,3.8,0.3,5.7,1.1
			c1.8,0.7,3.4,1.7,4.8,2.9s2.7,2.7,3.7,4.4c1,1.7,1.8,3.5,2.2,5.5c0.3,1.3,0.5,2.7,0.5,4.2c0,0.3,0,0.6,0,0.8s0,0.5-0.1,0.8H938.1z
			 M959.3,908.4c-0.8-2.4-2.1-4.3-4-5.8c-1.8-1.5-4-2.3-6.4-2.3c-2.4,0-4.5,0.8-6.4,2.3c-1.8,1.5-3.2,3.4-4,5.8H959.3z"/>
		<path class="st0" d="M989.6,900.4c-1.7,0-3.3,0.3-4.8,1c-1.5,0.7-2.8,1.5-3.9,2.6c-1.1,1.1-1.9,2.4-2.6,3.9
			c-0.6,1.5-0.9,3.1-0.9,4.8c0,1.7,0.3,3.3,0.9,4.8c0.6,1.5,1.5,2.8,2.6,3.9c1.1,1.1,2.4,2,3.9,2.7c1.5,0.7,3.1,1,4.8,1
			c2.2,0,4.2-0.5,5.9-1.6c1.8-1.1,3.2-2.4,4.2-4.1l5,3.2c-1.6,2.5-3.8,4.5-6.4,6c-2.6,1.5-5.6,2.2-8.7,2.2c-2.5,0-4.9-0.5-7.1-1.4
			c-2.2-1-4.1-2.3-5.8-3.9c-1.6-1.6-2.9-3.6-3.9-5.8c-1-2.2-1.4-4.6-1.4-7.1c0-2.5,0.5-4.8,1.4-7c1-2.2,2.3-4.1,3.9-5.7
			c1.6-1.6,3.6-2.9,5.8-3.9c2.2-1,4.6-1.4,7.1-1.4c3.2,0,6.1,0.7,8.7,2.2c2.6,1.5,4.8,3.5,6.4,6l-4.9,3.2c-1.1-1.7-2.5-3.1-4.3-4.1
			C993.8,900.9,991.8,900.4,989.6,900.4z"/>
		<path class="st0" d="M1027.8,930.7c-2.5,0-4.9-0.5-7.1-1.4c-2.2-0.9-4.1-2.2-5.8-3.9c-1.6-1.6-2.9-3.6-3.9-5.8
			c-1-2.2-1.4-4.6-1.4-7.1c0-2.5,0.5-4.8,1.4-7c1-2.2,2.3-4.1,3.9-5.8c1.6-1.6,3.6-2.9,5.8-3.9c2.2-1,4.6-1.4,7.1-1.4
			c2.5,0,4.8,0.5,7,1.4c2.2,1,4.1,2.3,5.8,3.9c1.6,1.6,2.9,3.6,3.9,5.8c1,2.2,1.4,4.5,1.4,7c0,2.5-0.5,4.9-1.4,7.1s-2.3,4.1-3.9,5.8
			c-1.6,1.6-3.6,2.9-5.8,3.9C1032.7,930.3,1030.3,930.7,1027.8,930.7z M1027.8,900.4c-1.7,0-3.3,0.3-4.8,0.9
			c-1.5,0.6-2.8,1.5-3.9,2.6c-1.1,1.1-1.9,2.4-2.6,3.9c-0.6,1.5-0.9,3.1-0.9,4.8c0,1.7,0.3,3.3,0.9,4.8c0.6,1.5,1.5,2.8,2.6,3.9
			c1.1,1.1,2.4,2,3.9,2.6c1.5,0.6,3.1,0.9,4.8,0.9s3.3-0.3,4.7-0.9c1.5-0.6,2.8-1.5,3.9-2.6c1.1-1.1,2-2.4,2.6-3.9
			c0.6-1.5,0.9-3.1,0.9-4.8c0-1.7-0.3-3.3-0.9-4.8c-0.6-1.5-1.5-2.8-2.6-3.9c-1.1-1.1-2.4-2-3.9-2.6
			C1031.1,900.7,1029.5,900.4,1027.8,900.4z"/>
		<path class="st0" d="M1070.7,894.5c1.5,0,2.9,0.1,4.1,0.4l-0.8,5.8c-0.8-0.3-1.9-0.5-3.3-0.5c-2.2,0-4,0.3-5.4,1
			c-1.3,0.7-2.4,1.5-3.1,2.5c-0.7,1-1.2,1.9-1.4,2.9c-0.2,1-0.4,1.7-0.4,2.3v20.7h-6v-33.7h6v3c0,0,0.3-0.3,0.7-0.7
			c0.4-0.4,1.1-0.9,1.9-1.5c0.8-0.5,1.9-1,3.2-1.5C1067.5,894.7,1069,894.5,1070.7,894.5z"/>
		<path class="st0" d="M1112.9,895.8v33.7h-6v-3.9c-1.5,1.6-3.3,2.9-5.3,3.8c-2,0.9-4.2,1.4-6.5,1.4c-2.3,0-4.5-0.5-6.6-1.4
			c-2-0.9-3.8-2.2-5.3-3.9c-1.5-1.6-2.7-3.6-3.6-5.8c-0.9-2.2-1.3-4.6-1.3-7.1c0-2.5,0.4-4.8,1.3-7c0.9-2.2,2.1-4.1,3.6-5.8
			c1.5-1.6,3.3-2.9,5.3-3.9c2-1,4.2-1.4,6.6-1.4c2.3,0,4.5,0.5,6.5,1.4c2,0.9,3.8,2.2,5.3,3.8v-3.9H1112.9z M1095.6,924.9
			c1.5,0,3-0.3,4.4-1c1.4-0.7,2.6-1.5,3.6-2.6c1-1.1,1.8-2.4,2.4-3.9c0.6-1.5,0.9-3.1,0.9-4.8c0-1.7-0.3-3.3-0.9-4.8
			c-0.6-1.5-1.4-2.8-2.4-3.9c-1-1.1-2.2-2-3.6-2.6c-1.4-0.7-2.8-1-4.4-1c-1.5,0-3,0.3-4.4,1c-1.4,0.7-2.6,1.5-3.6,2.6
			c-1,1.1-1.9,2.4-2.5,3.9c-0.6,1.5-0.9,3.1-0.9,4.8c0,1.7,0.3,3.3,0.9,4.8c0.6,1.5,1.4,2.8,2.5,3.9c1,1.1,2.2,2,3.6,2.6
			C1092.6,924.6,1094,924.9,1095.6,924.9z"/>
		<path class="st0" d="M1139.5,900.4c-1.7,0-3.3,0.3-4.8,1c-1.5,0.7-2.8,1.5-3.9,2.6c-1.1,1.1-1.9,2.4-2.6,3.9
			c-0.6,1.5-0.9,3.1-0.9,4.8c0,1.7,0.3,3.3,0.9,4.8c0.6,1.5,1.5,2.8,2.6,3.9c1.1,1.1,2.4,2,3.9,2.7c1.5,0.7,3.1,1,4.8,1
			c2.2,0,4.2-0.5,5.9-1.6c1.8-1.1,3.2-2.4,4.2-4.1l5,3.2c-1.6,2.5-3.8,4.5-6.4,6c-2.6,1.5-5.6,2.2-8.7,2.2c-2.5,0-4.9-0.5-7.1-1.4
			c-2.2-1-4.1-2.3-5.8-3.9c-1.6-1.6-2.9-3.6-3.9-5.8c-1-2.2-1.4-4.6-1.4-7.1c0-2.5,0.5-4.8,1.4-7c1-2.2,2.3-4.1,3.9-5.7
			c1.6-1.6,3.6-2.9,5.8-3.9c2.2-1,4.6-1.4,7.1-1.4c3.2,0,6.1,0.7,8.7,2.2c2.6,1.5,4.8,3.5,6.4,6l-4.9,3.2c-1.1-1.7-2.5-3.1-4.3-4.1
			C1143.7,900.9,1141.7,900.4,1139.5,900.4z"/>
		<path class="st0" d="M1169.3,886.2c0,1.1-0.4,2-1.1,2.8c-0.7,0.8-1.7,1.2-2.7,1.2c-1.1,0-2-0.4-2.8-1.2c-0.8-0.8-1.2-1.7-1.2-2.8
			c0-1.1,0.4-2,1.2-2.7c0.8-0.7,1.7-1.1,2.8-1.1c1.1,0,2,0.4,2.7,1.1S1169.3,885.1,1169.3,886.2z M1168.3,929.5h-6v-33.7h6V929.5z"
			/>
		<path class="st0" d="M1209.8,912.2c0,12.6-8.7,18-16.9,18c-9.2,0-16.3-6.7-16.3-17.5c0-11.4,7.4-18,16.8-18
			C1203.2,894.8,1209.8,901.8,1209.8,912.2z M1182.9,912.6c0,7.4,4.3,13.1,10.3,13.1c5.9,0,10.3-5.5,10.3-13.2
			c0-5.8-2.9-13.1-10.2-13.1C1186,899.4,1182.9,906.1,1182.9,912.6z M1202.4,880.9l-8.6,10h-4.4l6.2-10H1202.4z"/>
		<path class="st0" d="M1248.4,905.9c0.1,0.5,0.2,1,0.2,1.4c0,0.4,0.1,0.8,0.1,1.1v1v20.1h-6v-19.9c0-0.7-0.1-1.7-0.2-2.7
			c-0.2-1.1-0.5-2.1-1.1-3.1c-0.6-1-1.4-1.8-2.5-2.5c-1.1-0.7-2.6-1.1-4.5-1.1c-2.2,0-4,0.3-5.4,1c-1.3,0.7-2.4,1.5-3.1,2.5
			c-0.7,1-1.2,1.9-1.4,2.9c-0.2,1-0.4,1.7-0.4,2.3v20.6h-6v-33.7h6v3c0,0,0.3-0.2,0.7-0.7c0.4-0.5,1.1-1,2-1.5
			c0.9-0.5,1.9-1,3.2-1.4c1.3-0.4,2.8-0.7,4.5-0.7c2.6,0,4.7,0.4,6.4,1.2c1.7,0.8,3.1,1.7,4.1,2.9c1.1,1.1,1.8,2.4,2.4,3.7
			C1247.9,903.6,1248.2,904.8,1248.4,905.9z"/>
	</g>
	<g>
		<path class="st0" d="M912.9,585.8c4.3,0.1,8.6,0.2,12.8,0.3c38.5-6.6,77.3-6.6,116.1-5.8c-1.3-2.3-2.8-4.6-4.8-7.7
			c-1.3-0.5-4-0.5-5.5-3.8c-1.1-2.4-4.8-3.7-5.5-6.1c-1.6-5-5.7-7.3-8.8-10.5c-6.3-6.3-10.4-14.6-16.8-20.8
			c-1.5-1.5-2.3-4.1-3.9-5.9c-1.3-1.5-2.1-3.6-3.5-6.2c-4-2.2-4.9-3.2-8.1-8.9c-0.3-0.6-1-0.9-1.5-1.5c-6.9-8.2-13.8-16.4-20.6-24.7
			c-0.4-0.4-1-1.1-0.9-1.4c1.7-5-2.6-7-4.6-10c-2.2-3.3-4.9-6.8-8.2-8.9c-4.5-2.8-6-7.8-9.5-11.3c-1.1-1.1-2.8-2.8-2.6-3.7
			c1.4-4.4-1.6-4.2-4-5c-1.2-0.4-2.9-1.5-3.2-2.5c-0.8-4.4-2.7-7.9-6.1-10.7c-0.6-0.5-1.2-1.7-1.2-2.5c-0.3-3.9-3.5-5-5.9-6.7
			c-1-0.7-2.1-1.2-3.3-1.9c1.7-2.6,5.4-3.5,3.6-7.9c-1.9,2.9-3.5,6-7.4,5.3c-0.6-0.1-1.5,1-2,1.8c-2.4,3.1-4.7,6.4-7.2,9.4
			c-5.9,6.9-10.4,14.8-14.6,22.9c-1.4,2.7-3.1,4.6-4.9,4.8c-1.2,2.4-1.6,4.2-2.7,5.5c-1.2,1.4-3.2,1.9-2.9,4.5
			c0.1,0.6-0.6,1.7-1.1,1.9c-4.1,1.5-5.5,4.8-5.8,8.9c-0.1,0.7-0.5,1.6-1.1,1.9c-2,1.1-3.1,2.2-3.6,4.9c-0.2,1.4-2.6,3.2-3.6,5.2
			c-1,2-2.1,4-3.1,5.9c-2.3-0.5-4-0.9-5.8-1.3c0.5,1.3,1.3,1.7,2,2.3c3.3,2.7,3.4,5.1,0.4,8.7c-0.1,0.1-0.6-0.1-1.1-0.2
			c0.4-1.5,0.7-2.9,0.9-3.7c-2.7,1.3-5.3,2.6-7.9,3.9c2,4,1.9,4-1.5,7.6c-1.1,1.2-1.8,2.8-2.6,4.3c0.3,0.3,0.7,0.5,1,0.8
			c1-0.9,2-1.8,2.9-2.6c0.8,1.1,1.4,2.1,2.1,3.1l1.2-0.1c0.2-2.2,0.8-4.4,0.3-6.4c-0.7-3.1,0.7-3.7,2.9-4.2c1.7,4.7,1.8,4.3,6.2,5.2
			c8.3,1.8,16.6,3.3,25.1,2c3.2,2.1,5.9-0.9,8.9-1c5.6-0.2,11.1-0.7,15.1-1c3.4-4.6,5.7-7.9,8.2-11.3c2,1.9,4.7,3.2,4.9,5
			c0.5,3.3,4.8,4.3,3.7,8.5c-0.2,0.9,2.8,2.7,4.4,4.2c-0.4,1.6-0.7,3.1-1.2,5c4.5,0.2,5.6,3.5,6.3,6.6c3,0.5,5.6,0.9,9.1,1.4
			c-1.6,1.7-2.4,2.6-2.8,3c0.6,4.6,6.1,3.1,6.7,7.5c0.4,3.4,1.7,6.7,2.6,10.2c-3.1,1.2-5.7,1.7-8.8,1.2c-3.3-0.6-6.7-0.6-10.2-0.1
			c-4.6,0.6-9.8,1.9-14.3-1.2c-1,0.7-2.2,1.8-2.9,1.5c-3.4-1.6-6.8,0-10.2-0.2c-1.9-0.1-3.9-0.2-5.8-0.3c0-0.3-0.1-0.5-0.1-0.8
			c1.1-0.6,2.1-1.1,3.8-2.1c-12.2-1.8-12.2-1.8-14.4,0.4c1.4,0.7,2.8,1.5,4.2,2.2c-7.1,0.7-13.8,0.7-20.6,0.5
			c-4.4-0.2-8.7-1.1-13.1-1.1c-4.7,0.1-9.4,0.7-14,1.5c-3,0.5-4.3-1.7-5.9-3.4c-2-2,0.5-3.4,1-4.7c-4.3-3.4-8.6-0.8-13.2-0.7
			c3-4.8,5.7-9,9-14.2c-5.8,3.1-9.5,6.7-12.1,11.9c-1.2-19.1-2-37.9-2.5-56.8c-0.5-18.7-0.2-37.5-1.2-56.3c1.6,0.2,2.5,0.3,3.3,0.4
			c0.4-0.2,0.8-0.5,1.3-0.8c-6.1-3-5.3-7.6-4.1-12.4c0.1-0.5-0.3-1.1-0.3-1.7c-0.1-4.8-0.2-9.6-0.3-14.4c-0.1-5.3,0-10.6,0.1-15.9
			c0-3.6,0-7,0.9-10.1c3,2.9,6.2,5.5,8.6,8.8c2.7,3.6,5.2,6.1,10.2,5.4c2.1-0.3,3.5-0.5,4.2-2.4c0.7-1.7,1.1-3.6,1.1-5.4
			c0.1-2.8-0.2-5.6-0.5-8.5c-0.2-2.7,2.3-5.2,0.5-8c3-4.1-1.1-8.9,1.4-13.4c0.8-1.4,0.6-4.1,1.1-6.3c1-4.5,1.8-9.4-1.8-13.3
			c-2.6-2.9-5-5.8-6.8-9.4c-1.3-2.8-3.2-6.3-5.6-7.3c-5-2.1-5.7-7.8-9.7-10.8c-3.5-2.5-5.4-7.6-8-11.4c-1-1.4-2-2.8-3.2-3.8
			c-3.3-2.8-5.3-6.3-5.6-10.8c-0.1-0.5-0.3-1-0.5-1.4c-1.7-0.5-3.3-1-4.9-1.4c-0.7-2.6-1.9-4.6-3.4-6.3c-2.1-2.4-5.1-4.3-6.3-7
			c-1.8-4.1-5.8-6.8-6.1-11.7c-0.1-0.8-1-1.6-1.6-2.3c-2.4-2.9-4.8-5.8-7.2-8.6c-0.8-1-1.6-2.5-2.7-2.7c-3.7-1-5.8-3.5-6.8-7.4
			c-0.4,0.1-0.8,0.2-1.1,0.3c-0.3,2.5-0.6,5-1,7.5l0.1-0.1c-1.5,3.8,0.2,6.5,2.9,8.7c-3.7,6.1-4,4.4-1.7,11.9
			c0.4,1.4,0.9,3.8,0.3,4.4c-2.4,2.1,0.6,3.9-0.5,5.5c-1.4,1.7-2.8,3.4-4.1,5.1c0.2,0.2,0.4,0.3,0.6,0.5c1.2-0.5,2.4-0.9,4.1-1.6
			c0.5,9,0.9,17.5,1.4,26.1c-3.1,0.7-5.6,1.3-8.1,1.9c0,0.3,0.1,0.6,0.1,0.9l7.3,0.1c-0.8,1-1.3,1.5-1.5,1.7
			c0.7,2.2,2.3,4.5,1.9,6.2c-0.9,3.8-4.8,1.6-7.4,2.8c2.3,0.4,4.4,0.8,6.4,1.2c1,4.4,1.9,8.4,2.8,12.5c-1.4,0.4-2.4,0.6-3.8,1
			c1.6,1.6,2.9,2.9,4,4.1c-0.4,3.1-2,4.3-4.6,4.1c-0.1,0-0.3,0.5-0.5,0.8c1.4,0.5,2.7,1,4.4,1.7l-0.1,15.4c-1.6,0.3-3.1,0.5-5.2,0.8
			c6.2,3.1,7.1,5,5.8,11.5c-1,5.2-0.7,10.3,1.1,15.3c-1.1,0.1-2.1,0.2-3,0.3c0.6,2.6,1.3,5,1.8,7.4c0.5,2.4,0.7,4.9,1.1,7.4
			c-1.7,0.5-3.1,1-4.6,1.5c3,2.2,2.7,2.3,4,6.2c0.8,2.4,1.2,4.3-0.2,6.5c-1.1,1.8,1.6,4.7-1.4,6.2c-0.1,0,0.2,1.6,0.6,1.9
			c1.7,0.9,1.1,2.1,0.9,3.4c-0.2,1.3-0.9,2.9-0.5,3.9c2.5,6,1.2,12.4,2,18.5c0.5,3.5,0.8,7.3-1.7,10.6c-0.4,0.6-0.4,1.9-0.1,2.7
			c0.6,2.6,1.4,5.2,2.2,8c-0.8,0.6-2,1.4-3.3,2.3c1.2,1.8,2.2,3.1,3,4.6c0.5,1,1.7,2.5-0.7,3.1c-0.3,0.1-0.6,1.3-0.5,2
			c0.3,3.7,0.1,7.6,1.2,11c1.2,3.7-0.7,7.1,0.4,10.5c-2.1,1.6-0.9,3.8-1,5.8c-0.2,3.3,2.5,6.4,0.9,9.8c2.9,5-1.5,8.3-2.6,12.3
			c3,2.2,3.5,3.2,1.9,6.2c-1.1,2-1.3,3.4,0.1,5.2c0.7,1,1.6,2.6,1.3,3.4c-0.4,1.1-1.9,1.7-3.3,2.8c4.1,3,3.3,7.6,1.3,10.6
			c-4.7,7.2-0.6,13.2,0.5,20.9c-0.4,1.1-3.2,3.5,0.3,6.2c0.4,0.2,0,1.7-0.1,2.6c-0.1,0.8-0.7,1.9-0.4,2.2c0.4,0.4,0.7,0.8,0.9,1.2
			c0.2-0.1,0.4-0.2,0.6-0.3c4.5-1.4,8.9-2.1,13.4-2.2c20-3.6,41.9-0.9,62.6,1.2c20-5.1,40.2-0.5,60.5-0.1
			C909,585.2,911,585.4,912.9,585.8z M933.3,522.9c-1.1-0.7-2.2-1.4-3.2-2.1c0.4-0.5,0.7-1,1.1-1.5c0.9,0.8,1.9,1.6,2.8,2.5
			C933.7,522.2,933.5,522.6,933.3,522.9z M822.6,552.5c-0.2,0-0.3,0.1-0.4,0.2c0,0,0.1-0.1,0.1-0.1c-2.2-3.6-2.2-4.1,1.2-4.9
			c1,2-0.2,3.4-1.2,4.9C822.4,552.5,822.5,552.5,822.6,552.5c1.4-0.6,2.9-1.2,4.8-2.1C826.3,554.8,824.2,552.4,822.6,552.5z"/>
		<path class="st0" d="M1252.7,822.7c-2.8-3.3-5.7-6.5-8.4-9.9c-1.8-2.2-3.4-4.6-4.9-7c-0.5-0.8-0.5-1.9-0.8-2.9
			c-0.4-1.5-0.8-3-1.3-4.8c0.5-0.5,1.5-1.6,2.9-3.1c-2.1-1.2-3.8-2.1-4.9-2.7c-2.2,1.2-3.9,2.2-5.5,3.2c0.5-0.8,1.1-1.5,1.6-2.3
			c-2.4-1.3-5-2.2-7-3.8c-3.6-2.8-7.5-5.5-7.1-11c0.1-1.1-1.3-2.4-2.3-3.4c-1.2-1.3-2.7-2.3-4.2-3.6c1.2-1.9,2.1-3.2,3.7-5.7
			c-3.3,1-5.2,1.7-6.9,2.2c-2.2-1.9-4.1-3.5-6.4-5.5c4.1-2,7.5,3.9,10.8-0.4c-4.3-1.1-8.2-4.3-12.9-1.8c-2.5-2.6-4.8-4.9-7.9-8
			c4-0.4,6.7-0.6,9.3-0.8c0-0.4,0-0.8,0-1.2c-3.9-0.9-7.8-1.9-11.7-2.8c-0.9-2.1-2.3-4-2.4-5.9c-0.1-2.3,1.1-4.5,1.7-6.8
			c4.7-3.2,11.1-1.8,15.8-5.2c-2.7-5-2.7-5-7.5-2.3c-2.9-0.2-5.5-1.2-7-0.4c-4.1,2.2-7.6,1.3-11.5-0.6c-0.3-1.9-0.6-3.8-0.9-5.6
			c-2.9-0.9-5.5-1.7-9-2.7c2.3-1.5,3.6-2.3,4.9-3.1c-0.7-2.8-2.4-2.8-4.4-2.4c-2.8,0.6-5.2,0.1-6.1-3.2c-0.7-2.3-2.6-2.7-4.8-2.6
			c-1.8,0.1-3.7,0.2-5.3-0.3c-1-0.4-1.6-1.9-2.4-3c1.5-1.3,2.6-2.2,3.7-3.2c-0.1-0.3-0.3-0.7-0.5-1c-1.9,0.5-3.8,1-6,1.5
			c-24.5-28.8-49.3-57.3-73-86.7c4.7-3.9,4.7-3.9,3.8-7.5c-4.1,0.7-7.9-0.3-11.2-2.8c-1.9-1.4-3.4-0.9-4.8,0.4
			c-4.2,3.8-9.6,6.3-12.1,12c-0.5,1.3-2.2,2.1-3.5,3c-4.1,2.7-7.6,5.8-9.4,10.5c-0.5,1.4-1.8,2.6-2.8,3.7c-0.9,1-2.5,1.7-2.9,2.9
			c-2.8,7.8-9.4,12.7-14,19.1c-3,4-6.6,7.5-9.7,11.3c-5.6,6.7-10.9,13.6-16.5,20.2c-5.3,6.4-10.8,12.6-16.4,18.9
			c-3.4,3.8-7,7.4-10.6,11c-0.3,0.4-1.1,0.5-1.7,0.3c-3.2-0.5-4.2,1.4-5,4c-0.6,1.8-1.7,3.6-2.9,5c-2.3,2.7-5.8,4.8-7.1,7.9
			c-1.5,3.7-3.9,3.6-6.4,3.5c-0.4,5-1.2,9.3-5.2,12.7c-0.2-0.3-0.3-0.6-0.5-0.8c-0.4,0.7-0.9,1.4-1.6,2c-1.3,1.3-2.7,2.7-4,3.9
			l0.4,0.3c-0.2,5-4.5,7.3-7.7,10.5c-0.6-0.8-1.1-1.4-1.6-2c-1.3,1.3-2.7,2.6-4.1,3.9c1,0.6,2,1.3,3.1,2c-4,5.4-7.3,11.8-14.6,13.6
			c-0.8,5-14.2,22.9-21.4,28.9c-3.1-2.4-3-2.4-3.7-4.7c-0.5-1.3-1.3-2.7-2.4-3.7c-2.6-2.4-5.4-4.6-8.1-7c-0.5-0.5-0.9-1.6-0.6-2.2
			c0.8-2.2,0.4-4-0.8-5.4c-3-1.6-5.5-4.2-7.1-8.1c-0.3-0.7-0.5-1.4-0.7-2.1c-0.6,0.4-1.1,0.7-1.6,1.1c-2.7-0.5-0.8-5.5-4.8-3.9
			c0.4-2.7-1.7-3.6-3.5-4.2c0-2.4,1.8-4.2-0.4-6.4c-1.3-1.3-0.5-2.6,0.6-3.4c0.2-1.8,0.9-3.6,2-5c-1.6,1-3.4,0.7-5.4-1.1
			c2.5-0.4,5-0.8,7.5-1.1c-0.1,0.2-0.2,0.3-0.4,0.5c1.7-1.2,3.7-2,6.2-1.9c2-2.7,5.3-4.2,9.5-2.6c2.6,1,5,1.9,7.5,2.7
			c6.4-0.3,12.8,0,19.3,0.1c0.9-0.5,1.8-1.3,2.5-2.5c0.7-1.1,2.3-1.6,3.5-2.3c0.3-0.1,0.7,0.1,1.1,0.2c0.1,0.2,0.1,0.5,0.2,0.8
			c0.1-0.3,0.3-0.6,0.4-0.9c0.8-1.6,2.1-2.9,3.6-3.8c4-9.1,10.8-16.2,16.6-18c1.5-2.3,3.1-3.7,3.2-5.2c0.5-7,5.9-10.6,10.1-14.9
			c2.6-2.6,4.1-7,8.8-7.2c-0.9-5.4,4.1-7.5,6.6-10.5c7.6-9.3,16.2-18,24.4-26.9c1.3-1.4,3.1-2.3,4.2-3.7c3.8-4.7,7.1-9.9,11.2-14.4
			c6-6.5,13.7-11.5,18.1-19.5c0.4-0.6,1.2-1.1,2-1.3c2.5-0.9,3.8-2.5,3.9-5.3c0-1.2,1.3-2.4,2.1-3.4c1.3-1.7,2.7-3.3,4.4-5.2
			c-2.3-2.1-4.4-4.1-6.9-6.5c1.3-1.1,2.6-1.7,3.4-2.8c0.3-0.3,0.5-0.7,0.8-1c-0.8-0.2-1.6-0.4-2.2-0.7c-1.7,2.4-3.9,4.1-6.5,4.9
			c-2.3,0.8-4.8,1-7.5,0.5c-2.7-0.5-5.5-0.4-8.2-0.5l-170.8,0c-3.1,0.1-6.3,0.2-9.4,0.2c-11.3,0-22.6,0.3-33.9-0.2l-23.7,0l-4.4,0
			l-10.3-1.1l-9,3.7c-2.1,2.6-4.1,5.4-6.2,8.1l0.1-0.1c-2.1,3.1-4.3,6.3-6.5,9.4c-4.6,6.5-9.2,13-13.9,19.5
			c-3.7,5.2-7.4,10.4-11.1,15.6c-10.1,14.5-20.1,28.9-30.3,43.3c-8.3,11.8-16.8,23.4-25.1,35.2c-6,8.5-11.8,17.2-17.8,25.6
			c-6.6,9.2-13.5,18.3-20.2,27.5c-3.9,5.3-7.2,11.2-11.7,15.9c-5.5,5.7-5.8,12.3-6,19.6c6.8-0.2,13.7-0.1,20.4,0.2
			c-0.1-0.2-0.1-0.3-0.2-0.5l3.9-1.2c0.1,0.2,0.2,0.5,0.2,0.7c-0.9,0.3-1.8,0.6-2.6,1c10.3,0.4,20.1,1.1,29,1.6
			c2.9-4.2,5.9-8.3,10-11.7c3.1-2.6,5.1-6.4,7.6-9.7c0.1-0.1,0.1-0.5,0-0.6c-2.6-3.1,0.5-4.8,2-6.4c3.5-3.6,6.3-7.5,8.6-12
			c1.5-2.9,4.2-5.2,6.4-7.8c1.7-1.9,4.5-3.7,4.8-5.8c0.8-6.6,5.6-9.7,9.8-13.6c1.2-1.2,2.4-2.7,2.8-4.2c0.7-2.2,1.1-4.2,3.7-4.9
			c0.6-0.2,1.5-1.1,1.5-1.7c-0.2-2.4,1.4-3.4,2.8-4.9c2.5-2.7,5.3-5.5,6.5-8.8c2-5.5,6.3-8.8,9.9-13.1c0.1,0.1,0.2,0.1,0.4,0.2
			c0.2-0.4,0.5-0.8,0.7-1.2c0.2-0.3,0.4-0.6,0.6-0.8c-0.2-0.2-0.3-0.4-0.5-0.7c2.5-2.9,4.9-5.9,7.3-8.8c0.2-0.6,0.4-1.3,0.6-2
			c0.7-3.8,2.9-5.8,5.5-6.5c0.1-1.2,0.5-2.2,2-2.9l0.3,0.3c1.6-2.8,3.6-5.4,6.5-7.5c0.4-3.4,2.6-6.1,5.6-7.4
			c1.3-2.3,2.7-4.4,4.3-6.7c0.9-1.2,2-2.3,3.2-3.1c1-1.2,2.1-2.4,3.2-3.6c0.5-0.5,1.1-1,1.8-1.4c1.8-2.6,4.5-4.4,7.9-4.2
			c3.2,0.2,6.2,0.8,9.1,1.7c-0.3-0.4-0.6-0.8-0.9-1.3c5.2-0.2,9.8-0.4,14.5-0.5c-0.4,0.6-1,1.5-1.7,2.5c4,1.8,3-2.2,4.8-4.3
			c2,1.7,4,3.4,6.7,5.8c1.9-0.5,5.4-0.3,6.9-2c1.5-1.7,2.9-1.8,4.4-2.7c3.2-2,4.7-0.6,6.5,1.5c-1.7-3.1,0-3.6,4-3.6
			c-1.7,1.8-2.6,2.8-3.4,3.7c3.2-1.4,6.4-2.9,9.9-4.5c0.9,1.9,1.5,3.1,2.1,4.5c0.7-0.2,1.4-0.2,1.7-0.5c2.2-2.6,4.5,0,6.6,0
			c3.9-0.1,7.9-0.3,11.9-0.6c1.1-0.1,2.3-0.6,3.3-1.2c1.5-0.9,2.7-1.5,4.3-0.1c0.6,0.5,1.8,0.5,2.7,0.4c1.2-0.2,6.5-0.1,7.7,0
			c5.1,0.3,10.1,0.5,15.2,0.8c3.5,0.2,7,0.6,10.5,0.6c7-0.1,19-4.1,18.5,4.5c-0.2,4.1-16.1,19.2-19.2,20.7c1.7-2.2,3.1-5.2,4.6-7.4
			c-9.7,6.6-17.9,15.1-28.6,20.4c-19.2,9.5-44.8,4.1-65.2,1.4c-7.9-1-16,1.3-23.9,1.2c-4.4,0-20.3-3.9-23.5-1.5
			c-0.8,0.6-1.7,1-2.7,1.4c-4.4,1.5-5.4,8.3-5.9,13.5c1.3,0.9,3.2,2,3.8,3.1c0.2,0.3,0.3,0.6,0.5,0.9c0.3-1.2,0.7-2.3,1.1-3.6
			c2.8,4.4,5.4,10.7,5.6,14.1c0,0.2,0,0.5,0,0.7c0.4,0.5,0.7,0.9,1.1,1.4c0.7,0.8,1.3,1.7,1.9,2.5c0.3,0.1,0.7,0.2,1,0.2
			c1.5,0.3,3.1,1.8,3.8,3.2c0.7,1.5,1,3.1,1.4,5c1.1,1.4,2.1,2.9,3.3,4.3c0.9-0.4,1.8-0.7,2.7-1.1c4.4,3.9,5.7,5.6,4.9,8.9
			c4.6,3.7,8.4,8.1,11.3,13.3c1.9,3.2,3.5,6.5,5.9,9.2c0.4-0.8,0.9-1.5,1.3-2.3c2,2.7,2.9,4.1,2.5,5.6c7.3,4.7,15.2,9.3,18.8,17.6
			c0.5,1.1,0.7,2.2,0.8,3.3c2.2,2.9,4.4,5.8,6,9c1.9,3.8,2.4,8.4,7.1,10.3c0.4,0.1,0.7,0.4,1,0.8c19.5,0.1,38.9,0.4,58.3,0.8
			c23.5-9.2,54.2-1.4,79-0.8c2.5,0.1,4.7,0.4,6.9,1c2.6-1.9,5.5-3.5,8.9-4.4c0.7-0.2,1.3-0.2,2-0.4h0c0.7-0.1,1.4-0.3,2.1-0.5
			c3-1,6.1-1.6,9.3-1.6c2.6,0.3,5.2,0.7,7.8,1c2.3,0.6,4.4,1.7,6.5,2.9h52c4.2,0,8.2,1,11.9,2.7c19.6-3.9,39.3-2.9,60.3-2.7
			c1.4,0,2.7,0.2,4,0.3c2.5,0,5.1,0.1,7.7,0.7c0.6,0.1,1.2,0.2,1.9,0.4c0.8,0.1,1.5,0.1,2.3,0.1c4.4-3.4,10.2-5.4,17.3-5.4
			c5.4,0,9.8,1.3,13.6,3.3c6.8-1.8,14-1.3,20.2,1.5c17.3-1.6,34.7-1.8,52.1-1.5C1253.5,823.8,1253.1,823.2,1252.7,822.7z M800,665.8
			c-0.8-0.1-1.6-0.3-2.4-0.4c0.5-0.4,0.9-0.8,1.5-1.1c0.2-0.1,0.7,0.3,1,0.4C800,665.1,800,665.4,800,665.8z M879,662.1
			c0-0.4,0.1-0.8,0.1-1.2l4.4,0C881.4,661.5,880.2,661.8,879,662.1z M805.6,712.1c-0.5-0.2-0.9-1-1.1-1.7c-0.1-0.2,0.8-1,1.1-1
			c0.6,0.1,1.1,0.7,2.2,1.4C806.7,711.5,806,712.3,805.6,712.1z M828.6,733.2c-2.4,4.9,1.2,6.9,4.7,9.4c-1.3,0.6-2.6,1.4-2.8,1.2
			c-3.1-3-6.1-6.1-9.4-9.7c1.8-0.8,3-1.3,4.2-1.8l0-5.1c-0.7,0.1-1.2,0-1.5,0.2c-5.8,4.2-7.1,3.8-9.6-2.7c-0.9-2.2-0.1-3.5,1.5-4.6
			c1.5-1.1,3.3-0.7,4,1c1.3,3.2,3.8,3.7,6.8,3.8c0.6,0,1.4-0.1,1.8,0.2c3.9,3,7.2,6.7,10.7,10.5
			C832.6,738.5,832.2,738.4,828.6,733.2z M843,759.2c-1-0.5-2-1-3-1.6l0.5-0.9c1,0.5,2,1.1,3,1.5C843.3,758.6,843.1,759,843,759.2z
			 M1071.4,608.1c0,0.3,0.1,0.5,0.1,0.8c-0.9,0.2-1.8,0.4-2.7,0.6c0-0.4-0.1-0.9-0.1-1.4L1071.4,608.1z M1107.9,774.3
			c0.3,3.6,3.3,5.4,0.8,8.1c-1.5,1.8-2.8,3.3-5.1,3.4c-5,0.1-10,0.3-15,0.2c-8.8-0.3-17.6-0.8-26.4-1.2c-7.8-0.4-15.6-0.8-23.3-1
			c-2-0.1-4,0.3-5.9,0.3c-1.9,0.1-3.7,0-5.8,0c1.4-4.5,4.8-1.3,7-2.9c0.4-2.2-1-3.6-3-2.7c-3.6,1.5-8,0.9-11.1,4.1
			c-1.3,1.3-3.6,2.9-5.5,0c-0.2-0.3-1.2-0.4-1.7-0.1c-7.9,3.4-16.3,0.9-24.4,2c-1.6,0.2-3.2,0.4-4.8,0.4c-1.9,0-3.8-0.2-5.7-0.3
			c0-0.5-0.1-1.1-0.1-1.6c1.9-0.4,3.7-0.8,6.3-1.3c-1.3-1.2-2.4-2.2-4.1-3.7c5.6,0.7,5.9-5.7,10.6-6.5c3.3,2.8,6,7.2,11.5,5.1
			c-0.4-0.4-0.7-1.2-1.1-1.2c-5-0.8-7.2-5.4-10.6-7.8c1.1-5.4,6-4,9.3-5.8c-0.5-1.1-0.9-2.1-1.5-3.4c6.1-5,9.4-12.9,17.5-16.3
			c-0.1-1.3-0.2-2.9-0.4-4.7c3.5-2.3,7.6-4.1,10.5-7.1c2.5-2.6,3.5-6.5,5.5-10.7c1.4,0.2,3.6,0.4,6.6,0.8c-0.9-1.6-1.5-2.8-2.5-4.5
			c1.7-2.4,6.3-4.1,3.4-8.3c2.7-2.6,7.2-3,7.6-7.8c0.1-1.1,2.3-2.1,3.4-3.2c1.5-1.6,4-2.3,3.8-5.6c-0.1-1.3,2.8-2.9,4.6-4.6
			c6.8,6.6,14.8,11.7,18.5,20.7c0.4,0.9,0,2.2,0,3.6c3.1-1.1,4.9,1.5,7.3,3.8c6.8,6.4,12.5,13.8,18,21.3c2.2,3,5.6,5.8,4.9,10.3
			c0,0.2,0.5,0.4,0.8,0.6c1.9,1.6,4.4,2.7,5.7,4.7c1.8,2.8,3.7,5.4,6.3,7.6c0.9,0.7,3.1,1.8,1.5,3.9c-0.1,0.1,0.6,1,1.1,1.3
			c2.4,2.1,5,3.8,7.3,6.1c1.3,1.3,1.7,3.4,2.7,4.9c0.9,1.4,2,2.7,3.5,4.6c-4.9,2.1-10,0.2-15.5,1.9c0.7-1.6,1.1-2.4,1.5-3.6
			c-2.7,0.3-5.1,0.5-8,0.7C1112.5,777.6,1110.7,776.3,1107.9,774.3z M1116.7,784.8c7.4-2.9,14-1.8,20.6-1.1c0,0.4,0,0.9,0,1.3
			L1116.7,784.8z M1167.4,723.6c0.8-1.9,3.9-1.6,7.7,0.6c-1.9,0.8-3.4,1.5-5.6,2.4C1169,725.8,1168.1,724.7,1167.4,723.6z
			 M1183.9,733.2c-3.5,1.2-6.3-0.2-8.9-2.5c0.1-0.4,0.2-0.9,0.3-1.3c3,0.7,5.9,1.4,8.9,2C1184.1,732.1,1184,732.7,1183.9,733.2z"/>
		<path class="st0" d="M703.5,602.8c-1.1-0.7-2.2-1.4-3.1-1.9c-0.8,0.7-1.3,1.2-2.7,2.3c0.5-2.6,0.8-4,1.2-5.9
			c-4.6,6-12.1,1.3-17.1,5.2c-0.2,0.1-0.9-0.1-1.1-0.3c-1.3-1.6-2.4-0.8-4.1-0.4c-3.7,0.7-7.7,0.5-11.6,0.5
			c-8.1,0.1-16.3,0.1-24.4,0.2c-6.8,0.1-13.6,0.1-20.4,0.3c-5.3,0.2-10.6-2.5-16-0.1c-0.6,0.2-1.7-0.1-2.2-0.6
			c-1.3-1.1-2.2-1.1-3.7-0.2c-1,0.7-2.6,0.5-4,0.5c-8.8,0.1-17.6,0-26.3,0c-3.4,0-6.8,0-10.2-0.3c-1.1-0.1-2.5-0.5-3.2-1.2
			c-2-2-4.1-1.7-6.1-0.6c-3.2,1.7-6.5,1.4-9.9,1.5c-7.2,0.3-14.4-1-21.6-0.1c-5.3,0.7-10.8,0.2-16.2,0.3c-1.9,0.1-3.8-0.1-5.7,0.2
			c-4.3,0.7-6.2-1.4-5.4-6.2c-0.7-0.3-1.6-1-1.9-0.8c-1.9,1.4-3.6,3-5.5,4.6c0.9,0.5,1.7,1,3.6,2.1c-8.5-0.1-15.9-0.6-23.2-0.1
			c-5.1,0.3-9.5-1.6-14.4-1.8c-3.3-0.1-6.9-1.3-9.9-0.4c-3.7,1-6.9,1.7-10.3-0.3c-2.1,1.5-4,2.8-5.9,4.2c0.8,1,1.5,1.6,2.8,3.1
			c-2.7,0.5-4.5,0.9-6.4,1.2c-3.9,0.7-6-2.7-7.9-3.5c-3.2,0.8-5.3,1.6-7.6,1.8c-3,0.3-4.8,1.4-4.9,4.9c2.1,0.5,4,0.9,6.7,1.5
			c-1.8,0.7-2.8,1.6-3.9,1.5c-3.5-0.1-5.4,3-5.8,4.9c-1.2,5.1-4.8,8.2-8,11.7c-2.2,2.6-4.8,4.7-7,7.4c-7.5,9.1-14.9,18.3-22.2,27.5
			c-0.4,0.5-0.5,1.3-0.8,2.1c0.9,0.2,1.7,0.6,2,0.4c6.1-3.9,11.6-8.3,16.3-13.8c0.5-0.6,0.5-1.9,0.3-2.7c-0.9-2.8,1-3.7,3-4.2
			c1.5-0.3,3.1,0,4.1,0c2.4-4.7,4-9.5,6.9-13.4c3.1-4.3,7.6-7.5,11-11.6c2.8-3.2,5.8-4.6,10.3-3.1c-1.7,2.4-3,4.9-4.8,7
			c-3.4,4-7.2,7.6-10.2,12.2c-4.5,6.8-10.2,12.8-15.2,19.2c-2.6,3.4-5.5,6.5-7.8,10.2c-3,4.8-5,10.6-11.1,12.9
			c-0.4,0.1-0.3,1.1-0.7,1.6c-1.5,2.3-2.8,4.8-4.5,7c-6.7,8.7-13.4,17.4-20.2,26c-1.6,2-3.9,3.5-6.3,5.6c1.2,1.8,0,3.4-2.2,4.6
			c-2.4,1.2-4.3,2.7-4.7,5.7c-0.2,1.2-1.4,2.4-2.3,3.5c-2.8,3.7-5.7,7.2-8.5,10.9c-7,9.2-13.9,18.5-21,27.7
			c-4.7,6.2-9.6,12.2-14.5,18.3c-3.2,4-6.3,8.1-9.5,12.2c-3.9,5-8,9.9-11.8,15c-0.7,1-1.4,1.9-2.2,2.5c0.1,2.1,0.1,4.2,0.3,6.2
			c0.4,0.1,0.8,0.1,1.2,0.2c2.1-0.6,4.1-1.2,6.1-1.9c5.1-1.8,10-1.7,14.6-0.3c20.3-4.8,43-4,64.7-2.6c2.2-1.7,3.9-2.3,6.2,0
			c-0.2,0.2-0.3,0.2-0.5,0.4c2.3,0.1,4.5,0.3,6.7,0.4c0,0,0,0,0,0c0.7-0.5,1.5-0.9,2.3-1.4c0.2,0.4,0.4,0.8,0.6,1.2
			c-0.3,0.1-0.7,0.2-1,0.4c6.3,0.4,12.5,0.7,18.4,0.9c-0.6-0.6-1.2-1.4-2.1-2.4c8.8-0.9,16.3-0.5,24.6,0.2c-1.2,1.3-2.2,2-3.3,2.3
			c5.3,0,10.6-0.1,15.9-0.2c2.5-2.8,3.9-3,7.4-2.1c-0.5,0.7-1,1.3-1.5,2c9.3-0.2,18.6-0.4,27.9-0.7c-0.2-0.2-0.4-0.2-0.6-0.5
			c1.3-0.1,2.7-0.3,4-0.4c0.1,0.2,0.1,0.5,0.2,0.8c15-0.4,30-0.8,45.1-1.1v0h0.1c16.2-0.3,32.5-0.3,48.7,0.1
			c0.3-0.2,0.5-0.4,0.8-0.5c0.1,0.2,0.2,0.3,0.2,0.5c1,0,2.1,0,3.1,0.1c1.6,0.1,3.2,0.2,4.6,0.5c0.1-0.1,0.1-0.3,0.2-0.4
			c1.8-6.3,6.1-11.1,9.9-16.3c4.3-6,8.5-12.1,13.1-17.8c3.3-4.1,6.8-7.8,9.1-12.7c2-4.1,5-7.7,7.9-11.3c3.8-4.9,5.6-11.7,12.1-14.5
			c0.6-0.2,0.6-1.8,0.9-2.7c0.4-1.1,0.4-2.5,1.1-3.3c5.1-5.6,8.9-12.1,13.2-18.3c6.3-9,12.6-17.9,19.2-26.7
			c5.8-7.6,9.9-16.5,18-22.2c0.8-0.5,1.6-1.7,1.5-2.5c-0.5-3.2,1.9-4.6,3.4-6.6c2.8-3.6,6-6.8,8.5-10.6c5.2-7.5,9.9-15.3,15-22.9
			c2.3-3.5,5.1-6.7,7.6-10c2.4-3.2,4-7.7,7.2-9.4c3.8-2.1,5.1-6.4,8.9-8.1c0.5-0.2,0.6-1.4,0.9-2.2
			C705.3,604.2,704.4,603.4,703.5,602.8z M602.9,662.4c-1.7,2.1-2.5,4.8-4.2,7c-6.5,9-13.2,17.9-19.8,26.9
			c-4.1,5.6-8.1,11.3-12.1,17c-0.8,1.1-2,1.9-3,2.8c-1,1-2.2,1.8-2.9,3c-4.1,6.5-8,13.2-12.3,19.5c-3.6,5.2-7.8,10-11.5,15.2
			c-2.6,3.7-4.7,7.8-7.2,11.6c-2.3,3.7-5.3,6.2-9.5,8.3c-10.1,4.9-20.6,2.1-30.9,2.8c-5.2,0.4-10.4,0-15.5-0.1c-0.6-1.1-1-2-1.5-3
			c-0.6,0.2-1.1,0.3-1.7,0.5c-2.2,0.7-4.4,2.1-6.6,2.1c-15.4,0.3-30.8,0.4-46.2,0.5c-9.8,0-19.6-0.2-29.4,0
			c-3.6,0.1-6.8-0.1-8.4-3.5c-3,0.6-5.5,1.1-8.9,1.7c7-13.9,13.1-26.9,23.3-37.5c2.3-2.4,4.7-5,6.5-7.8c1.9-2.9,4-4.8,7.9-4.2
			c-0.1-1.8-0.2-3.2-0.3-4.7c2.2-0.7,3.6-1.9,4.6-4.6c1.2-3.2,4.1-5.8,6.5-8.5c2.3-2.7,4.5-5.4,7.1-7.8c2.2-2.1,4.7-4,7.1-6
			c1.5-1.3,3.1-2.4,5-3.9c-1.1-1.3-2.1-2.4-3-3.6c8.2-5.9,13.3-14.3,19.8-21.4c2.5-2.7,5.1-5,8.5-6.4c2.8-1.2,5.4-1.7,7,1.2
			c5.3-1.8,10.3-3.5,15.7-5.3c4.9,1.6,10,4.7,15.9,4c0.1-0.5,0.3-1,0.4-1.4c-1.5-0.5-3-1-4.5-1.5c2.1-2.5,2.1-2.5,12.5-0.2
			c-0.4,0.4-0.7,0.8-1,1c-0.5,0.3-1,0.5-2.9,1.3c5.1,0.3,8.8,0,12.5-0.5c3.8-0.5,7.6-0.9,11.6-0.5c4.2,0.4,10.1,0.5,13-6.2
			c1,5,4.3,4.8,7.4,5c4.8,0.2,9.5,0.3,14.3,0.8c1.5,0.2,2.9,1.7,4.5,2.6c2-1.9,4.1-4,6.6-6.5c0.8,0.2,2.8,0,3.9,0.9
			c3.5,2.9,7,2.1,10.7,0.9c2.4-0.7,4.7-1.1,5.2,2.2c4.1-0.4,8.2-0.8,12.3-1.1c0.1,0.3,0.2,0.7,0.3,1
			C607.3,658.3,604.8,660.1,602.9,662.4z"/>
		<g>
			<g>
				<path class="st0" d="M652.5,583.2h88.2c0.2-4.5,0.5-9,0.8-13.5c0.2-2.5,1.2-5,1.8-7.4c3.4,0.3,2.5-3.8,5.1-4.8l6,0.2
					c-4-4.4-8.3-5.8-13.2-5.8c0.2-3.4-0.8-7,3.7-8.2c1.5,1.1,3.1,2.1,4.7,3.2l0.8-0.7c-2-2.4-4-4.9-5.6-6.9c1.8-2.2,3.3-4.1,4.7-5.9
					c-2.4,0.7-4.8,1.5-7.6,2.3l0.7-25.6c1.5-0.4,3.1-0.9,4.5-1.3c-0.6-3.2-1.2-5.9-1.7-8.4c2-1.3,3.6-2.2,5.2-3.2
					c-0.1-0.3-0.3-0.5-0.3-0.7c-2.4,0.7-4.9,1.4-7.5,2.1c-0.9-4.4,1.8-7.6,3.5-10.9c-1.2-0.6-3-0.9-3.2-1.6
					c-1.5-5.9,0.5-11.4,2.4-16.7c-1.2-0.9-2.9-1.8-2.8-2.2c0.4-1.5,1.5-2.9,2.3-4.5c-2.6-4-2.5-7.2,0.3-10.7
					c-0.5-1.1-1.2-1.9-1.2-2.7c0.1-4.8,1.8-9.5,1.2-14.5c-0.4-3.7-1.3-7.2-1.4-11.1c-0.6-15.6,1-31,1.2-46.5c0-2.4-0.4-4.8-0.7-7.6
					c1.5,0.7,2.4,1.1,4.2,2c-1.7-2.6-3.5-4.2-3.6-5.9c-0.4-3.7-0.1-7.5,0.2-11.3c0.4-5.5,1.1-11,1.7-16.8c0.7-0.4,1.7-0.9,2.7-1.4
					c-0.8-1.8-1.8-3.3-2.1-4.9c-0.7-3.8-1.5-7.7-1.6-11.6c-0.2-7.5-0.1-15,0.1-22.6c0.1-3.4-1-7.3,2.2-9.4c-0.9-1.3-2.2-2.3-2.2-3.2
					c0.1-5.2-1.5-10.8,2.4-15.7c-3.1-3-2.8-7.1-2-10.6c1-4.8-1-9.8,1.3-14.6c0.5-1.1-0.5-2.9-0.9-4.5c3.8-3.5,3.8-3.5,0.2-8
					c-4.1,3.5-8,7.2-12.3,10.4c-5.8,4.5-9.3,10.9-14.6,15.8c-1.8,1.8-3.4,3.8-5.1,5.7c-2,2.4-5.1,4.4-5.8,7.1
					c-1.1,4.1-3.1,6.2-6.6,6.7c-1.1,2.4-1.5,5.4-2.9,6c-5.3,2.4-6.8,6.7-7.2,10.4c-3,3.1-5.3,5.2-7.2,7.6c-2.4,3.1-3.8,7.3-6.8,9.5
					c-4,2.9-7.2,5.8-9.2,10.3c-0.1,0.3-0.6,0.5-0.9,0.7c-0.8-0.4-1.7-0.8-2.6-1.2c-0.4,0.5-1.2,1-1.2,1.4c0.1,4-2.2,6.6-5.1,8.9
					c-1,0.9-1.9,2-2.7,3.2c-4.5,6.3-9,12.7-13.5,19c-1.2,1.6-2.5,3-3.8,4.4c-1.6,1.7-3.6,3.2-4.9,5c-2.9,4.3-4.7,9.6-8.3,13.1
					c-3.9,3.7-4.4,8.9-7.8,12.9c-3,3.6-5.4,7.8-9,11.1c-2.1,2-2.2,4-1.8,6.3c0.1,0,0.1,0,0.2,0c0,0,0.1,0.1,0.1,0.1
					c0.9-0.4,1.9-0.8,3.3-1.3c-1.5,2.6-1.5,2.7-3.3,1.3c-0.1,0-0.2,0.1-0.2,0.1c0-0.1,0-0.1,0-0.2c-1.2,0-2.7-0.4-3.2,0.2
					c-4.4,4.3-9.2,8.3-12.7,13.3c-3.5,4.9-5.8,10.6-11.3,13.8c-0.6,0.3-0.8,1.3-1.3,2c-1.4,1.9-3.2,3.6-4.3,5.6
					c-2.7,4.7-8.5,6.9-9.9,12.6c-0.2,0.8-1.4,1.4-2.1,2.1c-3.8,3.5-7.9,6.7-11.1,10.6c-2.7,3.3-3.2,8.5-8.6,9.4
					c-0.1,0-0.2,0.3-0.3,0.5c-2.7,5-6.6,8.9-11.8,11.6c-0.5,0.2-1.2,0.7-1.2,1.1c-0.1,3.8-4.1,4-5.8,6.3c0.8,1.5,1.5,2.8,1.9,3.6
					c-2.8,1-5.9,1.3-7.7,3c-5,4.6-9.6,9.6-14.4,14.7c-0.4,0.9-0.8,1.9-1.1,2.8c0.2,0.8,0.3,1.7,0.5,2.8c-0.5,0.1-1,0.2-1.6,0.4
					c-0.1,0.4-0.3,0.8-0.4,1.2c-0.1,0.4-0.2,0.7-0.4,1.1c5.2,0.2,10.1,2.2,15.3,2.8c4,0.4,8.5-0.7,12.3,1.8c0,0,0.1,0,0.1,0
					c-2.8-9.9,12.2-17.3,17.7-7.1c1.5,2.8,3.2,5.4,5.1,7.9c1.3,0.1,2.5,0.2,3.7,0.3c0.7,0.1,1.4,0.7,2.3,1.1
					c-0.3,1.3-0.6,2.5-1.1,4.4c0.1,0.1,0.2,0.1,0.2,0.3c2.8-2.7,5.2-4.5,8.6-4c0.8,0.1,2.1-1,2.8-1.9c3-3.5,5.8-7.1,8.6-10.6
					c4.3-5.4,8.7-10.8,13.1-16.2c3.2-3.8,6.4-7.6,9.4-11.5c3.3-4.4,6.4-9,9.8-13.3c9.9-12.5,19.9-25,29.9-37.5
					c12-15,23.9-30,36-44.9c2.6-3.2,5.9-6,8.4-9.2c4.3-5.4,8.2-11.1,12.3-16.7c0-0.1,0-0.2,0-0.3c0.1,0.1,0.1,0.1,0.2,0.1
					c0.5-0.7,1-1.4,1.9-2.7c0.2,3,0.2,3.1-1.9,2.7c0,0,0,0.1-0.1,0.1c0,0,0,0.1-0.1,0.1c0.4,2.1,0.8,4.1,1.3,6.2
					c0.5,2.3,0.5,5.1,1.9,6.6c2.3,2.5-0.1,4.6-0.1,6.7c0.1,8.3-0.7,16.7-1.2,25c-0.2,3.1-1.1,6.3-1.1,9.4c0,5.2,0.8,10.3,0.6,15.4
					c-0.2,7-0.7,14,0.8,20.9c0.4,2.1,1,4.8,0.1,6.4c-2.6,4.3-1.4,8,0.2,12c0.3,0.9,0.5,1.9,0.5,2.9c-0.4,4.7-1,9.3-1.5,14
					c-1.3,0-2.3,0.1-4,0.1c-0.2,6.1,0.3,12.5-1,18.4c-1.3,6-0.4,12.2-1.8,18.3c-5.1-1.9-5.1-1.9-8.3,0.7c2.8,0.8,5.4,1.6,8.2,2.3
					c-0.7,1-1.9,1.8-1.9,2.7c0,1.2,0.8,2.4,1.5,3.9c-1.7,0.2-2.9,0.5-4,0.5c-11.8-0.3-23.5-0.6-35.3-0.9
					c-10.6-0.2-21.1-0.4-31.7-0.7c-5.4-0.1-10.9-0.7-16.3-0.7c-6.4,0-12.7,0.5-19.1,0.4c-2.6,0-5.1-1.1-8.1-1.8
					c-4.5,2.3-9.6,1.2-14.8,1c4.4,4.3,9,8.4,13.4,12.5c8.9,8.6-5,21.6-13.9,13.2c-5-4.8-10.2-9.5-15-14.5c-3.3,3.7-7.4,6.5-11,9.8
					c-0.7,0.7-1.8,1.4-1.9,2.2c-0.5,3.2-2.6,4.8-5.1,6.3c-0.8,0.5-1.5,1.2-2,2c-2.2,3.9-4.4,7.8-6.4,11.9c-0.2,0.3-0.4,0.7-0.5,1
					c1.6-0.1,3.3-0.2,4.9-0.3c1.2-0.2,2.4-0.4,3.6-0.4c16.9-0.1,33.8-1.8,50.7-1.9c0.6,0,1.1,0.1,1.6,0.1c0.7,0,1.5-0.1,2.3-0.1
					h60.4C645.7,581.2,649.3,582,652.5,583.2z M746.6,553.9c0.2,0.4,0.4,0.7,0.5,1.1c-1.3,0.7-2.6,1.4-3.9,2.1
					c-0.3-0.4-0.5-0.8-0.8-1.3C743.9,555.1,745.2,554.5,746.6,553.9z M523.2,514.7c-0.7-0.1-1.4-0.5-2.2-0.8
					c0.3-0.4,0.7-0.8,1.1-1.2c0.7,0.2,1.3,0.5,2,0.7C523.7,513.9,523.4,514.8,523.2,514.7z M533.8,502.2c1.2-6.9,2.7-8.8,10.6-12.8
					C541.1,493.3,537.8,497.3,533.8,502.2z M548.7,483.2c-0.4-0.3-0.8-0.5-1.2-0.8c0.9-1.4,1.9-2.9,2.8-4.3c0.5,0.3,1,0.7,1.5,1
					L548.7,483.2z M560.4,468.6c-0.2,0.2-0.7,0.1-2.3,0.2c1.6-1.8,2.5-2.8,3.5-3.9c0.3,0.3,0.7,0.7,1,1
					C561.9,466.9,561.2,467.8,560.4,468.6z M573,454.1c0,0-0.1,0-0.1,0c-1.5,1.3-3,2.7-4.4,4c0.1-3.1,0.1-3.1,4.4-4
					C572.9,454.1,572.9,454.1,573,454.1C572.9,454,573,454,573,454.1c-1.3-3.6,0.9-5.1,3.9-6.2C575.6,449.9,574.3,451.9,573,454.1
					C573,454,573,454,573,454.1z M583,439.6c-0.4-0.1-1-0.7-1-1.1c0-0.3,0.6-0.7,1.2-1.3c0.4,0.6,1,1.1,0.9,1.4
					C584.1,439,583.4,439.6,583,439.6z M695.8,499c0.6,0.1,1.2,0.1,1.8,0.2c-0.4,3.2-0.8,6.3-1.2,9.5c-0.4,0-0.9-0.1-1.4-0.2
					C694.1,505.3,695.2,502.2,695.8,499z M695.8,513.9c-0.1,1.1-0.2,2.3-0.3,3.5c-0.2,0-0.4,0-0.7,0c-0.2-1.2-0.3-2.4-0.5-3.6
					C694.9,513.8,695.4,513.8,695.8,513.9z"/>
				<path class="st0" d="M517.2,521.1c-0.1,0-0.6-0.8-0.6-0.9c0.3-0.4,0.8-0.6,1.2-0.9c0.2,0.3,0.4,0.6,0.7,1.1
					C518.1,520.7,517.7,520.9,517.2,521.1z"/>
				<path class="st0" d="M617.4,396.6c0-0.5,0-1.1,0.1-1.6c0.1-0.2,0.6-0.2,1-0.3c0.1,0.2,0.3,0.4,0.5,0.6
					C618.5,395.7,617.9,396.2,617.4,396.6z"/>
				<path class="st0" d="M632.3,377.7c-0.2-0.2-0.4-0.3-0.6-0.5c0.5-0.6,1-1.2,1.4-1.8c0.2,0.2,0.5,0.4,0.7,0.6
					C633.3,376.6,632.8,377.2,632.3,377.7z"/>
				<path class="st0" d="M696.5,530c-0.3,0.6-0.6,1.1-0.9,1.7c0,0-0.5-0.2-0.4-0.2c0.1-0.6,0.3-1.2,0.5-1.7
					C695.9,529.8,696.2,529.9,696.5,530z"/>
				<path class="st0" d="M692.8,254.4c-4.3-0.3-6.1-1.8-4.6-5.1c2.7-6.3,1.4-12.6,1.7-18.9c0.5-9.8,1.8-19.5,5.1-28.7
					c1.2-3.5,3.4-7,6-9.6c5.2-5.5,10.9-10.5,16.5-15.6c7.1-6.4,11.8-13.8,11.7-23.7c0-1-0.6-1.9-1.1-3.4c6.1-0.4,7.2-5.3,7.9-10.8
					c5.1,3,5.2,7.1,5.8,10.7c1.5,8.4,2.6,16.9,3.7,25.4c0.3,1.7,0.1,3.4,0,5.1c-0.1,2.2-0.8,4.4-0.6,6.6c0.7,6.3-1.5,11.8-3.6,17.4
					c-0.5,1.3-0.1,2.9-0.2,3.5c-2.8,4.1-5.2,7.6-7.5,11.3c-4.6,7.2-9.1,14.6-16.4,19.5c-1.6,1-3.4,1.8-5.2,2.5
					c-3.4,1.3-6.2,3-8.1,6.5c-1.8,3.2-4.8,5.6-7.6,8.1c-0.6,0.5-2.4-0.6-3.7-0.9L692.8,254.4z"/>
				<path class="st0" d="M468.8,585.1c11.7-0.1,23.4-0.3,35.1-0.7c1.6-1.2,3.1-2.6,4.4-4.4c-0.7-0.7-1.4-1.3-2.3-2
					c0.5-1.1,0.9-2.2,1.4-3.2c3.8-8,1.3-15.6-1.7-23.1c-0.2-0.6-0.9-1.3-1.5-1.6c-4.9-2.5-8.9-6.1-14.9-7.1c-1-0.2-2-0.2-3-0.3
					c-0.2,0.1-0.4,0.3-0.6,0.3c-0.9,0.4-1.8,0.8-2.7,1.2c-2,3.1-3.6,6.5-5.6,9.6c-3.3,5.1-7.1,9.3-12.2,12.5
					c-1.2,1.6-2.4,3.2-3.7,4.7c-0.6,0.7-1.3,1.2-2.1,1.5c1.4,4,4,7.5,7.2,10.6C467.3,583.9,468,584.5,468.8,585.1z"/>
			</g>
			<path class="st0" d="M526.7,583.2c16.9-0.1,33.8-1.8,50.7-1.9c0.1,0,0.2,0,0.3,0l-2.2-42.9l-14.8,1l7.7-9.7l-25.2-54.1
				l-41.8,48.1c-0.9,2.5-2.5,4.2-4.4,5.1l-2.2,2.6c-1.1,5-4.2,9.5-9,11.8c-0.6,0.3-1.3,0.6-2,0.9l-2,2.3c-1.5,2.6-2.8,5.2-4.3,7.6
				c-3.3,5.1-7.1,9.3-12.2,12.5c-1.2,1.6-2.4,3.2-3.7,4.7c-0.9,1-2,1.7-3.2,2.1l-10.4,12c0.3,0,0.5,0,0.8,0
				c24.8,0,49.6-0.2,74.4-1.6C524.3,583.4,525.4,583.2,526.7,583.2z"/>
		</g>
		<path class="st0" d="M796.5,62.7c0,22-17.6,39.8-39.2,39.8c-21.7,0-39.2-17.8-39.2-39.8c0-22,17.6-39.8,39.2-39.8
			C779,22.8,796.5,40.7,796.5,62.7z"/>
	</g>
</g>
</svg>
