<?xml version="1.0" encoding="utf-8"?>
<!-- Generator: Adobe Illustrator 22.0.1, SVG Export Plug-In . SVG Version: 6.00 Build 0)  -->
<svg version="1.1" id="Capa_1" xmlns="http://www.w3.org/2000/svg" xmlns:xlink="http://www.w3.org/1999/xlink" x="0px" y="0px"
	 viewBox="0 0 1920 1080" style="enable-background:new 0 0 1920 1080;" xml:space="preserve">
<style type="text/css">
	.st0{fill:#FFFFFF;}
</style>
<path class="st0" d="M280.3,900.5c3.6,0.9,6.4,2,8.7,3.2s4,2.6,5.2,4s2.1,2.9,2.6,4.3c0.4,1.5,0.7,2.8,0.7,4.1c0,2-0.5,3.9-1.4,5.6
	c-0.9,1.8-2.2,3.3-3.8,4.6c-1.6,1.3-3.5,2.3-5.7,3.1c-2.2,0.8-4.5,1.2-7,1.2c-2.3,0-4.5-0.3-6.5-1c-2.1-0.7-3.9-1.6-5.4-2.7
	c-1.6-1.2-2.9-2.5-3.9-4.1c-1-1.6-1.7-3.3-1.9-5.1l5.8-1.2c0.7,2.2,2,4,4.2,5.4c2.1,1.5,4.7,2.2,7.8,2.2c1.5,0,3-0.2,4.4-0.6
	c1.4-0.4,2.6-1,3.6-1.8s1.8-1.6,2.4-2.6c0.6-1,0.9-2,0.9-3.1c0-4.3-4-7.5-12.1-9.5c-1.9-0.5-3.9-1-5.8-1.6c-2-0.6-3.7-1.4-5.3-2.4
	c-1.6-1-2.9-2.3-3.9-3.8c-1-1.5-1.5-3.5-1.5-5.9c0-2,0.4-3.9,1.2-5.6c0.8-1.7,1.9-3.2,3.4-4.4c1.5-1.2,3.2-2.2,5.3-2.9
	c2.1-0.7,4.3-1.1,6.8-1.1c2.2,0,4.3,0.3,6.2,1c1.9,0.7,3.6,1.6,5.1,2.7c1.4,1.1,2.6,2.5,3.5,4.1c0.9,1.6,1.5,3.3,1.7,5.2l-5.8,1.3
	c-0.5-2.2-1.7-4.1-3.5-5.5c-1.8-1.5-4.2-2.2-7.2-2.2c-3.1,0-5.6,0.7-7.3,2.1c-1.8,1.4-2.6,3.2-2.6,5.3c0,0.8,0.2,1.6,0.5,2.3
	c0.3,0.7,0.9,1.3,1.7,1.9c0.8,0.6,2,1.1,3.4,1.7S277.9,899.9,280.3,900.5z"/>
<path class="st0" d="M321,930c-0.1,0-0.5,0.2-1.1,0.3c-0.6,0.2-1.4,0.3-2.3,0.4c-0.9,0.1-1.9,0-3-0.2s-2.2-0.6-3.2-1.3
	c-3.1-2.1-4.7-6.1-4.7-11.9v-15.7h-4.3v-5.8h4.3v-15.6h5.8v15.6h7v5.8h-7v15.7c0,3.7,0.7,6,2.1,7c0.4,0.3,0.9,0.4,1.4,0.5
	c0.5,0,0.9,0.1,1.4,0c0.4,0,0.9-0.1,1.5-0.3L321,930z"/>
<path class="st0" d="M327.5,919.4c-0.2-0.9-0.3-1.7-0.3-2.5v-1v-20.1h6v19.9c0,0.8,0.1,1.7,0.2,2.8c0.2,1.1,0.5,2.1,1.1,3.1
	c0.6,1,1.4,1.8,2.5,2.5c1.1,0.7,2.6,1.1,4.5,1.1c2.2,0,4-0.3,5.4-1.1c1.4-0.7,2.4-1.5,3.1-2.5c0.7-0.9,1.2-1.9,1.4-2.9
	s0.4-1.8,0.4-2.3v-20.6h6v33.7h-6v-3c-0.9,0.9-1.8,1.7-2.6,2.2c-0.9,0.5-1.9,1-3.2,1.4c-1.3,0.4-2.8,0.7-4.5,0.7
	c-2.6,0-4.7-0.4-6.4-1.2c-1.7-0.8-3.1-1.7-4.1-2.9c-1.1-1.1-1.8-2.4-2.4-3.7C328,921.7,327.7,920.4,327.5,919.4z"/>
<g>
	<g>
		<path class="st0" d="M486.3,955.1c3.6,0.9,6.4,2,8.7,3.2s4,2.6,5.2,4c1.3,1.4,2.1,2.9,2.6,4.3s0.7,2.8,0.7,4.1
			c0,2-0.5,3.9-1.4,5.6c-0.9,1.8-2.2,3.3-3.8,4.6c-1.6,1.3-3.5,2.3-5.7,3.1c-2.2,0.8-4.5,1.2-7,1.2c-2.3,0-4.5-0.3-6.5-1
			c-2.1-0.7-3.9-1.6-5.4-2.7c-1.6-1.2-2.9-2.5-3.9-4.1c-1-1.6-1.7-3.3-1.9-5.1l5.8-1.2c0.7,2.2,2,4,4.2,5.4c2.1,1.5,4.7,2.2,7.8,2.2
			c1.5,0,3-0.2,4.4-0.6c1.4-0.4,2.6-1,3.6-1.8c1-0.7,1.8-1.6,2.4-2.6c0.6-1,0.9-2,0.9-3.1c0-4.3-4-7.5-12.1-9.5
			c-1.9-0.5-3.9-1-5.8-1.6c-2-0.6-3.7-1.4-5.3-2.4c-1.6-1-2.9-2.3-3.9-3.8c-1-1.5-1.5-3.5-1.5-5.9c0-2,0.4-3.9,1.2-5.6
			c0.8-1.7,1.9-3.2,3.4-4.4c1.5-1.2,3.2-2.2,5.3-2.9c2.1-0.7,4.3-1.1,6.8-1.1c2.2,0,4.3,0.3,6.2,1c1.9,0.7,3.6,1.6,5.1,2.7
			c1.4,1.1,2.6,2.5,3.5,4.1c0.9,1.6,1.5,3.3,1.7,5.2l-5.8,1.3c-0.5-2.2-1.7-4.1-3.5-5.5s-4.2-2.2-7.2-2.2c-3.1,0-5.6,0.7-7.3,2.1
			c-1.8,1.4-2.6,3.2-2.6,5.3c0,0.8,0.2,1.6,0.5,2.3c0.3,0.7,0.9,1.3,1.7,1.9c0.8,0.6,2,1.1,3.4,1.7
			C482,953.9,483.9,954.5,486.3,955.1z"/>
		<path class="st0" d="M527,984.6c-0.1,0-0.5,0.2-1.1,0.3c-0.6,0.2-1.4,0.3-2.3,0.4c-0.9,0.1-1.9,0-3-0.2s-2.2-0.6-3.2-1.3
			c-3.1-2.1-4.7-6.1-4.7-11.9v-15.7h-4.3v-5.8h4.3v-15.6h5.8v15.6h7v5.8h-7v15.7c0,3.7,0.7,6,2.1,7c0.4,0.3,0.9,0.4,1.4,0.5
			c0.5,0,0.9,0.1,1.4,0c0.4,0,0.9-0.1,1.5-0.3L527,984.6z"/>
		<path class="st0" d="M533.5,974c-0.2-0.9-0.3-1.7-0.3-2.5v-1v-20.1h6v19.9c0,0.8,0.1,1.7,0.2,2.8c0.2,1.1,0.5,2.1,1.1,3.1
			c0.6,1,1.4,1.8,2.5,2.5c1.1,0.7,2.6,1.1,4.5,1.1c2.2,0,4-0.3,5.4-1.1c1.4-0.7,2.4-1.5,3.1-2.5c0.7-0.9,1.2-1.9,1.4-2.9
			c0.2-1,0.4-1.8,0.4-2.3v-20.6h6v33.7h-6v-3c-0.9,0.9-1.8,1.7-2.6,2.2c-0.9,0.5-1.9,1-3.2,1.4c-1.3,0.4-2.8,0.7-4.5,0.7
			c-2.6,0-4.7-0.4-6.4-1.2c-1.7-0.8-3.1-1.7-4.1-2.9c-1.1-1.1-1.8-2.4-2.4-3.7C534.1,976.3,533.7,975.1,533.5,974z"/>
		<path class="st0" d="M606.9,934.9v49.2h-6v-3.9c-1.5,1.6-3.3,2.9-5.3,3.8c-2,0.9-4.2,1.3-6.5,1.3c-2.3,0-4.5-0.5-6.6-1.4
			c-2-0.9-3.8-2.2-5.3-3.9c-1.5-1.6-2.7-3.6-3.6-5.8c-0.9-2.2-1.3-4.5-1.3-7c0-2.5,0.4-4.9,1.3-7.1c0.9-2.2,2.1-4.1,3.6-5.8
			c1.5-1.6,3.3-2.9,5.3-3.9c2-1,4.2-1.4,6.6-1.4c2.3,0,4.5,0.5,6.5,1.4c2,0.9,3.8,2.2,5.3,3.9v-19.5H606.9z M589.6,979.5
			c1.5,0,3-0.3,4.4-0.9c1.4-0.6,2.6-1.5,3.6-2.6c1-1.1,1.8-2.4,2.5-3.9c0.6-1.5,0.9-3.1,0.9-4.8c0-1.7-0.3-3.3-0.9-4.8
			c-0.6-1.5-1.4-2.8-2.5-3.9c-1-1.1-2.2-2-3.6-2.7c-1.4-0.7-2.8-1-4.4-1c-1.5,0-3,0.3-4.4,1c-1.4,0.7-2.6,1.5-3.6,2.7
			c-1,1.1-1.8,2.4-2.4,3.9c-0.6,1.5-0.9,3.1-0.9,4.8c0,1.7,0.3,3.3,0.9,4.8c0.6,1.5,1.4,2.8,2.4,3.9c1,1.1,2.2,2,3.6,2.6
			C586.6,979.2,588.1,979.5,589.6,979.5z"/>
		<path class="st0" d="M625.1,940.8c0,1.1-0.4,2-1.1,2.8c-0.7,0.8-1.7,1.2-2.7,1.2s-2-0.4-2.8-1.2c-0.8-0.8-1.2-1.7-1.2-2.8
			c0-1.1,0.4-2,1.2-2.7c0.8-0.7,1.7-1.1,2.8-1.1s2,0.4,2.7,1.1C624.7,938.8,625.1,939.7,625.1,940.8z M624.1,984.1h-6v-33.7h6V984.1
			z"/>
		<path class="st0" d="M650.7,985.3c-2.5,0-4.9-0.5-7.1-1.4c-2.2-0.9-4.1-2.2-5.8-3.9c-1.6-1.6-2.9-3.6-3.9-5.8
			c-1-2.2-1.4-4.6-1.4-7.1c0-2.5,0.5-4.8,1.4-7c1-2.2,2.3-4.1,3.9-5.8c1.6-1.6,3.6-2.9,5.8-3.9c2.2-1,4.6-1.4,7.1-1.4
			c2.5,0,4.8,0.5,7,1.4c2.2,1,4.1,2.3,5.8,3.9c1.6,1.6,2.9,3.6,3.9,5.8c1,2.2,1.4,4.5,1.4,7c0,2.5-0.5,4.9-1.4,7.1s-2.3,4.1-3.9,5.8
			c-1.6,1.6-3.6,2.9-5.8,3.9C655.6,984.9,653.2,985.3,650.7,985.3z M650.7,955c-1.7,0-3.3,0.3-4.8,0.9c-1.5,0.6-2.8,1.5-3.9,2.6
			c-1.1,1.1-1.9,2.4-2.6,3.9c-0.6,1.5-0.9,3.1-0.9,4.8s0.3,3.3,0.9,4.8c0.6,1.5,1.5,2.8,2.6,3.9c1.1,1.1,2.4,2,3.9,2.6
			c1.5,0.6,3.1,0.9,4.8,0.9c1.7,0,3.3-0.3,4.7-0.9c1.5-0.6,2.8-1.5,3.9-2.6c1.1-1.1,2-2.4,2.6-3.9c0.6-1.5,0.9-3.1,0.9-4.8
			s-0.3-3.3-0.9-4.8c-0.6-1.5-1.5-2.8-2.6-3.9c-1.1-1.1-2.4-2-3.9-2.6C654,955.3,652.4,955,650.7,955z"/>
		<path class="st0" d="M723.4,934.9v49.2h-6v-3.9c-1.5,1.6-3.3,2.9-5.3,3.8c-2,0.9-4.2,1.3-6.5,1.3s-4.5-0.5-6.6-1.4
			c-2-0.9-3.8-2.2-5.3-3.9c-1.5-1.6-2.7-3.6-3.6-5.8s-1.3-4.5-1.3-7c0-2.5,0.4-4.9,1.3-7.1c0.9-2.2,2.1-4.1,3.6-5.8
			c1.5-1.6,3.3-2.9,5.3-3.9c2-1,4.2-1.4,6.6-1.4s4.5,0.5,6.5,1.4c2,0.9,3.8,2.2,5.3,3.9v-19.5H723.4z M706,979.5
			c1.5,0,3-0.3,4.4-0.9c1.4-0.6,2.6-1.5,3.6-2.6c1-1.1,1.8-2.4,2.5-3.9c0.6-1.5,0.9-3.1,0.9-4.8c0-1.7-0.3-3.3-0.9-4.8
			c-0.6-1.5-1.4-2.8-2.5-3.9c-1-1.1-2.2-2-3.6-2.7c-1.4-0.7-2.8-1-4.4-1c-1.5,0-3,0.3-4.4,1c-1.4,0.7-2.6,1.5-3.6,2.7
			c-1,1.1-1.8,2.4-2.4,3.9c-0.6,1.5-0.9,3.1-0.9,4.8c0,1.7,0.3,3.3,0.9,4.8c0.6,1.5,1.4,2.8,2.4,3.9c1,1.1,2.2,2,3.6,2.6
			C703,979.2,704.5,979.5,706,979.5z"/>
		<path class="st0" d="M737.8,968.9c0.2,1.5,0.6,2.9,1.2,4.2c0.6,1.3,1.4,2.4,2.4,3.4c1,0.9,2.1,1.7,3.3,2.2c1.2,0.6,2.6,0.8,4,0.8
			c2.2,0,4.1-0.5,5.9-1.5c1.8-1,3.2-2.4,4.2-4.1l4.9,3.2c-1.6,2.5-3.7,4.6-6.3,6.1c-2.6,1.5-5.5,2.3-8.7,2.3c-2.2,0-4.3-0.4-6.2-1.3
			c-1.9-0.8-3.7-2-5.2-3.5c-1.5-1.5-2.7-3.2-3.7-5.2c-1-2-1.5-4.2-1.7-6.5c0-0.2,0-0.5,0-0.8c0-0.3,0-0.6,0-0.8
			c0-1.5,0.2-2.9,0.5-4.2c0.4-2,1.1-3.8,2.2-5.5c1-1.7,2.3-3.2,3.7-4.4c1.4-1.2,3-2.2,4.8-2.9c1.8-0.7,3.7-1.1,5.6-1.1
			s3.8,0.3,5.7,1.1c1.8,0.7,3.4,1.7,4.8,2.9c1.4,1.2,2.7,2.7,3.7,4.4c1,1.7,1.8,3.5,2.2,5.5c0.3,1.3,0.5,2.7,0.5,4.2
			c0,0.3,0,0.6,0,0.8c0,0.3,0,0.5-0.1,0.8H737.8z M759,963c-0.8-2.4-2.1-4.3-4-5.8c-1.8-1.5-4-2.3-6.4-2.3c-2.4,0-4.5,0.8-6.4,2.3
			c-1.8,1.5-3.2,3.4-4,5.8H759z"/>
		<path class="st0" d="M808.9,935c2.3,0,4.5,0.4,6.6,1.3c2.1,0.9,3.9,2.1,5.4,3.6c1.5,1.5,2.8,3.4,3.7,5.4c0.9,2.1,1.4,4.3,1.4,6.6
			c0,2.4-0.5,4.6-1.4,6.7c-0.9,2.1-2.1,3.9-3.7,5.4c-1.5,1.5-3.4,2.8-5.4,3.6c-2.1,0.9-4.3,1.3-6.6,1.3h-12.8v14.9h-6.6V935H808.9z
			 M808.9,962.7c1.4,0,2.8-0.3,4.1-0.8c1.3-0.6,2.4-1.3,3.3-2.3c1-1,1.7-2.1,2.2-3.4c0.5-1.3,0.8-2.7,0.8-4.2c0-1.5-0.3-2.8-0.8-4.1
			c-0.5-1.3-1.3-2.4-2.2-3.4c-1-1-2.1-1.7-3.3-2.3c-1.3-0.6-2.6-0.8-4.1-0.8h-12.8v21.3H808.9z"/>
		<path class="st0" d="M842.1,940.8c0,1.1-0.4,2-1.1,2.8c-0.7,0.8-1.7,1.2-2.7,1.2c-1.1,0-2-0.4-2.8-1.2c-0.8-0.8-1.2-1.7-1.2-2.8
			c0-1.1,0.4-2,1.2-2.7s1.7-1.1,2.8-1.1c1.1,0,2,0.4,2.7,1.1S842.1,939.7,842.1,940.8z M841.1,984.1h-6v-33.7h6V984.1z"/>
		<path class="st0" d="M882.7,960.5c0.1,0.5,0.2,1,0.2,1.4c0,0.4,0.1,0.8,0.1,1.1v1v20.1h-6v-19.9c0-0.7-0.1-1.7-0.2-2.7
			c-0.2-1.1-0.5-2.1-1.1-3.1c-0.6-1-1.4-1.8-2.5-2.5c-1.1-0.7-2.6-1.1-4.5-1.1c-2.2,0-4,0.3-5.4,1c-1.3,0.7-2.4,1.5-3.1,2.5
			c-0.7,1-1.2,1.9-1.4,2.9c-0.2,1-0.4,1.7-0.4,2.3v20.6h-6v-33.7h6v3c0,0,0.3-0.2,0.7-0.7s1.1-1,2-1.5c0.9-0.5,1.9-1,3.2-1.4
			c1.3-0.4,2.8-0.7,4.5-0.7c2.6,0,4.7,0.4,6.4,1.2c1.7,0.8,3.1,1.7,4.1,2.9c1.1,1.1,1.8,2.4,2.4,3.7
			C882.1,958.2,882.5,959.4,882.7,960.5z"/>
		<path class="st0" d="M909.3,984.6c-0.1,0-0.5,0.2-1.1,0.3c-0.6,0.2-1.4,0.3-2.3,0.4c-0.9,0.1-1.9,0-3-0.2s-2.2-0.6-3.2-1.3
			c-3.1-2.1-4.7-6.1-4.7-11.9v-15.7h-4.3v-5.8h4.3v-15.6h5.8v15.6h7v5.8h-7v15.7c0,3.7,0.7,6,2.1,7c0.4,0.3,0.9,0.4,1.4,0.5
			c0.5,0,0.9,0.1,1.4,0c0.4,0,0.9-0.1,1.5-0.3L909.3,984.6z"/>
		<path class="st0" d="M915.8,974c-0.2-0.9-0.3-1.7-0.3-2.5v-1v-20.1h6v19.9c0,0.8,0.1,1.7,0.2,2.8c0.2,1.1,0.5,2.1,1.1,3.1
			c0.6,1,1.4,1.8,2.5,2.5c1.1,0.7,2.6,1.1,4.5,1.1c2.2,0,4-0.3,5.4-1.1c1.4-0.7,2.4-1.5,3.1-2.5c0.7-0.9,1.2-1.9,1.4-2.9
			c0.2-1,0.4-1.8,0.4-2.3v-20.6h6v33.7h-6v-3c-0.9,0.9-1.8,1.7-2.6,2.2c-0.9,0.5-1.9,1-3.2,1.4c-1.3,0.4-2.8,0.7-4.5,0.7
			c-2.6,0-4.7-0.4-6.4-1.2c-1.7-0.8-3.1-1.7-4.1-2.9c-1.1-1.1-1.8-2.4-2.4-3.7C916.4,976.3,916,975.1,915.8,974z"/>
		<path class="st0" d="M973.7,949.1c1.5,0,2.9,0.1,4.1,0.4l-0.8,5.8c-0.8-0.3-1.9-0.5-3.3-0.5c-2.2,0-4,0.3-5.4,1
			c-1.3,0.7-2.4,1.5-3.1,2.5c-0.7,1-1.2,1.9-1.4,2.9c-0.2,1-0.4,1.7-0.4,2.3v20.7h-6v-33.7h6v3c0,0,0.3-0.3,0.7-0.7
			c0.4-0.4,1.1-0.9,1.9-1.5s1.9-1,3.2-1.5S972,949.1,973.7,949.1z"/>
		<path class="st0" d="M1015.9,950.4v33.7h-6v-3.9c-1.5,1.6-3.3,2.9-5.3,3.8c-2,0.9-4.2,1.4-6.5,1.4s-4.5-0.5-6.6-1.4
			c-2-0.9-3.8-2.2-5.3-3.9c-1.5-1.6-2.7-3.6-3.6-5.8s-1.3-4.6-1.3-7.1c0-2.5,0.4-4.8,1.3-7c0.9-2.2,2.1-4.1,3.6-5.8
			c1.5-1.6,3.3-2.9,5.3-3.9c2-1,4.2-1.4,6.6-1.4s4.5,0.5,6.5,1.4c2,0.9,3.8,2.2,5.3,3.8v-3.9H1015.9z M998.6,979.5
			c1.5,0,3-0.3,4.4-1c1.4-0.7,2.6-1.5,3.6-2.6c1-1.1,1.8-2.4,2.4-3.9c0.6-1.5,0.9-3.1,0.9-4.8s-0.3-3.3-0.9-4.8
			c-0.6-1.5-1.4-2.8-2.4-3.9c-1-1.1-2.2-2-3.6-2.6c-1.4-0.7-2.8-1-4.4-1c-1.5,0-3,0.3-4.4,1c-1.4,0.7-2.6,1.5-3.6,2.6
			c-1,1.1-1.9,2.4-2.5,3.9c-0.6,1.5-0.9,3.1-0.9,4.8s0.3,3.3,0.9,4.8c0.6,1.5,1.4,2.8,2.5,3.9c1,1.1,2.2,2,3.6,2.6
			C995.6,979.2,997,979.5,998.6,979.5z"/>
		<path class="st0" d="M1071.3,950.4l-22.5,52.1l-5.2-2.6l7.1-16.5l-14.2-33.1h6.3l11.1,25.7l11.1-25.7H1071.3z"/>
		<path class="st0" d="M1107.3,935c3.4,0,6.5,0.6,9.5,1.9c3,1.3,5.6,3,7.8,5.3c2.2,2.2,4,4.8,5.3,7.8c1.3,3,1.9,6.2,1.9,9.5
			s-0.6,6.6-1.9,9.5c-1.3,3-3,5.6-5.3,7.8c-2.2,2.2-4.8,4-7.8,5.3c-3,1.3-6.1,1.9-9.5,1.9h-14V935H1107.3z M1107.3,977.6
			c2.5,0,4.8-0.5,7-1.4c2.2-1,4.1-2.3,5.7-3.9c1.6-1.6,2.9-3.6,3.8-5.8c0.9-2.2,1.4-4.5,1.4-7c0-2.5-0.5-4.8-1.4-7
			c-0.9-2.2-2.2-4.1-3.8-5.8c-1.6-1.6-3.5-2.9-5.7-3.9s-4.5-1.4-7-1.4h-7.4v36.2H1107.3z"/>
		<path class="st0" d="M1144.1,968.9c0.2,1.5,0.6,2.9,1.2,4.2c0.6,1.3,1.4,2.4,2.4,3.4c1,0.9,2.1,1.7,3.3,2.2c1.2,0.6,2.6,0.8,4,0.8
			c2.2,0,4.1-0.5,5.9-1.5c1.8-1,3.2-2.4,4.2-4.1l4.9,3.2c-1.6,2.5-3.7,4.6-6.3,6.1c-2.6,1.5-5.5,2.3-8.7,2.3c-2.2,0-4.3-0.4-6.2-1.3
			c-1.9-0.8-3.7-2-5.2-3.5c-1.5-1.5-2.7-3.2-3.7-5.2c-1-2-1.5-4.2-1.7-6.5c0-0.2,0-0.5,0-0.8c0-0.3,0-0.6,0-0.8
			c0-1.5,0.2-2.9,0.5-4.2c0.4-2,1.1-3.8,2.2-5.5c1-1.7,2.3-3.2,3.7-4.4s3-2.2,4.8-2.9c1.8-0.7,3.7-1.1,5.6-1.1s3.8,0.3,5.7,1.1
			c1.8,0.7,3.4,1.7,4.8,2.9c1.4,1.2,2.7,2.7,3.7,4.4c1,1.7,1.8,3.5,2.2,5.5c0.3,1.3,0.5,2.7,0.5,4.2c0,0.3,0,0.6,0,0.8
			c0,0.3,0,0.5-0.1,0.8H1144.1z M1165.3,963c-0.8-2.4-2.1-4.3-4-5.8c-1.8-1.5-4-2.3-6.4-2.3c-2.4,0-4.5,0.8-6.4,2.3
			c-1.8,1.5-3.2,3.4-4,5.8H1165.3z"/>
		<path class="st0" d="M1195.6,955c-1.7,0-3.3,0.3-4.8,1c-1.5,0.7-2.8,1.5-3.9,2.6c-1.1,1.1-1.9,2.4-2.6,3.9
			c-0.6,1.5-0.9,3.1-0.9,4.8c0,1.7,0.3,3.3,0.9,4.8c0.6,1.5,1.5,2.8,2.6,3.9c1.1,1.1,2.4,2,3.9,2.7c1.5,0.7,3.1,1,4.8,1
			c2.2,0,4.2-0.5,5.9-1.6c1.8-1.1,3.2-2.4,4.2-4.1l5,3.2c-1.6,2.5-3.8,4.5-6.4,6c-2.6,1.5-5.6,2.2-8.7,2.2c-2.5,0-4.9-0.5-7.1-1.4
			s-4.1-2.3-5.8-3.9c-1.6-1.6-2.9-3.6-3.9-5.8c-1-2.2-1.4-4.6-1.4-7.1c0-2.5,0.5-4.8,1.4-7c1-2.2,2.3-4.1,3.9-5.7
			c1.6-1.6,3.6-2.9,5.8-3.9c2.2-1,4.6-1.4,7.1-1.4c3.2,0,6.1,0.7,8.7,2.2c2.6,1.5,4.8,3.5,6.4,6l-4.9,3.2c-1.1-1.7-2.5-3.1-4.3-4.1
			C1199.8,955.5,1197.8,955,1195.6,955z"/>
		<path class="st0" d="M1233.9,985.3c-2.5,0-4.9-0.5-7.1-1.4c-2.2-0.9-4.1-2.2-5.8-3.9c-1.6-1.6-2.9-3.6-3.9-5.8
			c-1-2.2-1.4-4.6-1.4-7.1c0-2.5,0.5-4.8,1.4-7c1-2.2,2.3-4.1,3.9-5.8c1.6-1.6,3.6-2.9,5.8-3.9c2.2-1,4.6-1.4,7.1-1.4
			c2.5,0,4.8,0.5,7,1.4c2.2,1,4.1,2.3,5.8,3.9c1.6,1.6,2.9,3.6,3.9,5.8c1,2.2,1.4,4.5,1.4,7c0,2.5-0.5,4.9-1.4,7.1s-2.3,4.1-3.9,5.8
			c-1.6,1.6-3.6,2.9-5.8,3.9C1238.7,984.9,1236.4,985.3,1233.9,985.3z M1233.9,955c-1.7,0-3.3,0.3-4.8,0.9c-1.5,0.6-2.8,1.5-3.9,2.6
			c-1.1,1.1-1.9,2.4-2.6,3.9c-0.6,1.5-0.9,3.1-0.9,4.8s0.3,3.3,0.9,4.8c0.6,1.5,1.5,2.8,2.6,3.9c1.1,1.1,2.4,2,3.9,2.6
			c1.5,0.6,3.1,0.9,4.8,0.9s3.3-0.3,4.7-0.9c1.5-0.6,2.8-1.5,3.9-2.6c1.1-1.1,2-2.4,2.6-3.9c0.6-1.5,0.9-3.1,0.9-4.8
			s-0.3-3.3-0.9-4.8c-0.6-1.5-1.5-2.8-2.6-3.9c-1.1-1.1-2.4-2-3.9-2.6C1237.1,955.3,1235.6,955,1233.9,955z"/>
		<path class="st0" d="M1276.8,949.1c1.5,0,2.9,0.1,4.1,0.4l-0.8,5.8c-0.8-0.3-1.9-0.5-3.3-0.5c-2.2,0-4,0.3-5.4,1
			c-1.3,0.7-2.4,1.5-3.1,2.5c-0.7,1-1.2,1.9-1.4,2.9c-0.2,1-0.4,1.7-0.4,2.3v20.7h-6v-33.7h6v3c0,0,0.3-0.3,0.7-0.7
			c0.4-0.4,1.1-0.9,1.9-1.5c0.8-0.5,1.9-1,3.2-1.5C1273.5,949.3,1275,949.1,1276.8,949.1z"/>
		<path class="st0" d="M1318.9,950.4v33.7h-6v-3.9c-1.5,1.6-3.3,2.9-5.3,3.8c-2,0.9-4.2,1.4-6.5,1.4s-4.5-0.5-6.6-1.4
			c-2-0.9-3.8-2.2-5.3-3.9c-1.5-1.6-2.7-3.6-3.6-5.8c-0.9-2.2-1.3-4.6-1.3-7.1c0-2.5,0.4-4.8,1.3-7c0.9-2.2,2.1-4.1,3.6-5.8
			c1.5-1.6,3.3-2.9,5.3-3.9c2-1,4.2-1.4,6.6-1.4s4.5,0.5,6.5,1.4c2,0.9,3.8,2.2,5.3,3.8v-3.9H1318.9z M1301.6,979.5
			c1.5,0,3-0.3,4.4-1c1.4-0.7,2.6-1.5,3.6-2.6c1-1.1,1.8-2.4,2.4-3.9c0.6-1.5,0.9-3.1,0.9-4.8s-0.3-3.3-0.9-4.8
			c-0.6-1.5-1.4-2.8-2.4-3.9c-1-1.1-2.2-2-3.6-2.6c-1.4-0.7-2.8-1-4.4-1c-1.5,0-3,0.3-4.4,1c-1.4,0.7-2.6,1.5-3.6,2.6
			c-1,1.1-1.9,2.4-2.5,3.9c-0.6,1.5-0.9,3.1-0.9,4.8s0.3,3.3,0.9,4.8c0.6,1.5,1.4,2.8,2.5,3.9c1,1.1,2.2,2,3.6,2.6
			C1298.6,979.2,1300.1,979.5,1301.6,979.5z"/>
		<path class="st0" d="M1345.5,955c-1.7,0-3.3,0.3-4.8,1c-1.5,0.7-2.8,1.5-3.9,2.6c-1.1,1.1-1.9,2.4-2.6,3.9
			c-0.6,1.5-0.9,3.1-0.9,4.8c0,1.7,0.3,3.3,0.9,4.8c0.6,1.5,1.5,2.8,2.6,3.9c1.1,1.1,2.4,2,3.9,2.7c1.5,0.7,3.1,1,4.8,1
			c2.2,0,4.2-0.5,5.9-1.6c1.8-1.1,3.2-2.4,4.2-4.1l5,3.2c-1.6,2.5-3.8,4.5-6.4,6c-2.6,1.5-5.6,2.2-8.7,2.2c-2.5,0-4.9-0.5-7.1-1.4
			s-4.1-2.3-5.8-3.9c-1.6-1.6-2.9-3.6-3.9-5.8c-1-2.2-1.4-4.6-1.4-7.1c0-2.5,0.5-4.8,1.4-7c1-2.2,2.3-4.1,3.9-5.7
			c1.6-1.6,3.6-2.9,5.8-3.9c2.2-1,4.6-1.4,7.1-1.4c3.2,0,6.1,0.7,8.7,2.2c2.6,1.5,4.8,3.5,6.4,6l-4.9,3.2c-1.1-1.7-2.5-3.1-4.3-4.1
			C1349.7,955.5,1347.7,955,1345.5,955z"/>
		<path class="st0" d="M1375.3,940.8c0,1.1-0.4,2-1.1,2.8c-0.7,0.8-1.7,1.2-2.7,1.2c-1.1,0-2-0.4-2.8-1.2c-0.8-0.8-1.2-1.7-1.2-2.8
			c0-1.1,0.4-2,1.2-2.7c0.8-0.7,1.7-1.1,2.8-1.1c1.1,0,2,0.4,2.7,1.1S1375.3,939.7,1375.3,940.8z M1374.4,984.1h-6v-33.7h6V984.1z"
			/>
		<path class="st0" d="M1415.8,966.8c0,12.6-8.7,18-16.9,18c-9.2,0-16.3-6.7-16.3-17.5c0-11.4,7.4-18,16.8-18
			C1409.2,949.4,1415.8,956.4,1415.8,966.8z M1388.9,967.2c0,7.4,4.3,13.1,10.3,13.1c5.9,0,10.3-5.5,10.3-13.2
			c0-5.8-2.9-13.1-10.2-13.1C1392.1,954,1388.9,960.7,1388.9,967.2z M1408.5,935.5l-8.6,10h-4.4l6.2-10H1408.5z"/>
		<path class="st0" d="M1454.5,960.5c0.1,0.5,0.2,1,0.2,1.4c0,0.4,0.1,0.8,0.1,1.1v1v20.1h-6v-19.9c0-0.7-0.1-1.7-0.2-2.7
			c-0.2-1.1-0.5-2.1-1.1-3.1c-0.6-1-1.4-1.8-2.5-2.5c-1.1-0.7-2.6-1.1-4.5-1.1c-2.2,0-4,0.3-5.4,1c-1.3,0.7-2.4,1.5-3.1,2.5
			c-0.7,1-1.2,1.9-1.4,2.9c-0.2,1-0.4,1.7-0.4,2.3v20.6h-6v-33.7h6v3c0,0,0.3-0.2,0.7-0.7c0.4-0.5,1.1-1,2-1.5
			c0.9-0.5,1.9-1,3.2-1.4c1.3-0.4,2.8-0.7,4.5-0.7c2.6,0,4.7,0.4,6.4,1.2c1.7,0.8,3.1,1.7,4.1,2.9c1.1,1.1,1.8,2.4,2.4,3.7
			C1453.9,958.2,1454.3,959.4,1454.5,960.5z"/>
	</g>
	<g>
		<path class="st0" d="M1119,640.4c4.3,0.1,8.6,0.2,12.8,0.3c38.5-6.6,77.3-6.6,116.1-5.8c-1.3-2.3-2.8-4.6-4.8-7.7
			c-1.3-0.5-4-0.5-5.5-3.8c-1.1-2.4-4.8-3.7-5.5-6.1c-1.6-5-5.7-7.3-8.8-10.5c-6.3-6.3-10.4-14.6-16.8-20.8
			c-1.5-1.5-2.3-4.1-3.9-5.9c-1.3-1.5-2.1-3.6-3.5-6.2c-4-2.2-4.9-3.2-8.1-8.9c-0.3-0.6-1-0.9-1.5-1.5c-6.9-8.2-13.8-16.4-20.6-24.7
			c-0.4-0.4-1-1.1-0.9-1.4c1.7-5-2.6-7-4.6-10c-2.2-3.3-4.9-6.8-8.2-8.9c-4.5-2.8-6-7.8-9.5-11.3c-1.1-1.1-2.8-2.8-2.6-3.7
			c1.4-4.4-1.6-4.2-4-5c-1.2-0.4-2.9-1.5-3.2-2.5c-0.8-4.4-2.7-7.9-6.1-10.7c-0.6-0.5-1.2-1.7-1.2-2.5c-0.3-3.9-3.5-5-5.9-6.7
			c-1-0.7-2.1-1.2-3.3-1.9c1.7-2.6,5.4-3.5,3.6-7.9c-1.9,2.9-3.5,6-7.4,5.3c-0.6-0.1-1.5,1-2,1.8c-2.4,3.1-4.7,6.4-7.2,9.4
			c-5.9,6.9-10.4,14.8-14.6,22.9c-1.4,2.7-3.1,4.6-4.9,4.8c-1.2,2.4-1.6,4.2-2.7,5.5c-1.2,1.4-3.2,1.9-2.9,4.5
			c0.1,0.6-0.6,1.7-1.1,1.9c-4.1,1.5-5.5,4.8-5.8,8.9c-0.1,0.7-0.5,1.6-1.1,1.9c-2,1.1-3.1,2.2-3.6,4.9c-0.2,1.4-2.6,3.2-3.6,5.2
			c-1,2-2.1,4-3.1,5.9c-2.3-0.5-4-0.9-5.8-1.3c0.5,1.3,1.3,1.7,2,2.3c3.3,2.7,3.4,5.1,0.4,8.7c-0.1,0.1-0.6-0.1-1.1-0.2
			c0.4-1.5,0.7-2.9,0.9-3.7c-2.7,1.3-5.3,2.6-7.9,3.9c2,4,1.9,4-1.5,7.6c-1.1,1.2-1.8,2.8-2.6,4.3c0.3,0.3,0.7,0.5,1,0.8
			c1-0.9,2-1.8,2.9-2.6c0.8,1.1,1.4,2.1,2.1,3.1l1.2-0.1c0.2-2.2,0.8-4.4,0.3-6.4c-0.7-3.1,0.7-3.7,2.9-4.2c1.7,4.7,1.8,4.3,6.2,5.2
			c8.3,1.8,16.6,3.3,25.1,2c3.2,2.1,5.9-0.9,8.9-1c5.6-0.2,11.1-0.7,15.1-1c3.4-4.6,5.7-7.9,8.2-11.3c2,1.9,4.7,3.2,4.9,5
			c0.5,3.3,4.8,4.3,3.7,8.5c-0.2,0.9,2.8,2.7,4.4,4.2c-0.4,1.6-0.7,3.1-1.2,5c4.5,0.2,5.6,3.5,6.3,6.6c3,0.5,5.6,0.9,9.1,1.4
			c-1.6,1.7-2.4,2.6-2.8,3c0.6,4.6,6.1,3.1,6.7,7.5c0.4,3.4,1.7,6.7,2.6,10.2c-3.1,1.2-5.7,1.7-8.8,1.2c-3.3-0.6-6.7-0.6-10.2-0.1
			c-4.6,0.6-9.8,1.9-14.3-1.2c-1,0.7-2.2,1.8-2.9,1.5c-3.4-1.6-6.8,0-10.2-0.2c-1.9-0.1-3.9-0.2-5.8-0.3c0-0.3-0.1-0.5-0.1-0.8
			c1.1-0.6,2.1-1.1,3.8-2.1c-12.2-1.8-12.2-1.8-14.4,0.4c1.4,0.7,2.8,1.5,4.2,2.2c-7.1,0.7-13.8,0.7-20.6,0.5
			c-4.4-0.2-8.7-1.1-13.1-1.1c-4.7,0.1-9.4,0.7-14,1.5c-3,0.5-4.3-1.7-5.9-3.4c-2-2,0.5-3.4,1-4.7c-4.3-3.4-8.6-0.8-13.2-0.7
			c3-4.8,5.7-9,9-14.2c-5.8,3.1-9.5,6.7-12.1,11.9c-1.2-19.1-2-37.9-2.5-56.8c-0.5-18.7-0.2-37.5-1.2-56.3c1.6,0.2,2.5,0.3,3.3,0.4
			c0.4-0.2,0.8-0.5,1.3-0.8c-6.1-3-5.3-7.6-4.1-12.4c0.1-0.5-0.3-1.1-0.3-1.7c-0.1-4.8-0.2-9.6-0.3-14.4c-0.1-5.3,0-10.6,0.1-15.9
			c0-3.6,0-7,0.9-10.1c3,2.9,6.2,5.5,8.6,8.8c2.7,3.6,5.2,6.1,10.2,5.4c2.1-0.3,3.5-0.5,4.2-2.4c0.7-1.7,1.1-3.6,1.1-5.4
			c0.1-2.8-0.2-5.6-0.5-8.5c-0.2-2.7,2.3-5.2,0.5-8c3-4.1-1.1-8.9,1.4-13.4c0.8-1.4,0.6-4.1,1.1-6.3c1-4.5,1.8-9.4-1.8-13.3
			c-2.6-2.9-5-5.8-6.8-9.4c-1.3-2.8-3.2-6.3-5.6-7.3c-5-2.1-5.7-7.8-9.7-10.8c-3.5-2.5-5.4-7.6-8-11.4c-1-1.4-2-2.8-3.2-3.8
			c-3.3-2.8-5.3-6.3-5.6-10.8c-0.1-0.5-0.3-1-0.5-1.4c-1.7-0.5-3.3-1-4.9-1.4c-0.7-2.6-1.9-4.6-3.4-6.3c-2.1-2.4-5.1-4.3-6.3-7
			c-1.8-4.1-5.8-6.8-6.1-11.7c-0.1-0.8-1-1.6-1.6-2.3c-2.4-2.9-4.8-5.8-7.2-8.6c-0.8-1-1.6-2.5-2.7-2.7c-3.7-1-5.8-3.5-6.8-7.4
			c-0.4,0.1-0.8,0.2-1.1,0.3c-0.3,2.5-0.6,5-1,7.5l0.1-0.1c-1.5,3.8,0.2,6.5,2.9,8.7c-3.7,6.1-4,4.4-1.7,11.9
			c0.4,1.4,0.9,3.8,0.3,4.4c-2.4,2.1,0.6,3.9-0.5,5.5c-1.4,1.7-2.8,3.4-4.1,5.1c0.2,0.2,0.4,0.3,0.6,0.5c1.2-0.5,2.4-0.9,4.1-1.6
			c0.5,9,0.9,17.5,1.4,26.1c-3.1,0.7-5.6,1.3-8.1,1.9c0,0.3,0.1,0.6,0.1,0.9l7.3,0.1c-0.8,1-1.3,1.5-1.5,1.7
			c0.7,2.2,2.3,4.5,1.9,6.2c-0.9,3.8-4.8,1.6-7.4,2.8c2.3,0.4,4.4,0.8,6.4,1.2c1,4.4,1.9,8.4,2.8,12.5c-1.4,0.4-2.4,0.6-3.8,1
			c1.6,1.6,2.9,2.9,4,4.1c-0.4,3.1-2,4.3-4.6,4.1c-0.1,0-0.3,0.5-0.5,0.8c1.4,0.5,2.7,1,4.4,1.7l-0.1,15.4c-1.6,0.3-3.1,0.5-5.2,0.8
			c6.2,3.1,7.1,5,5.8,11.5c-1,5.2-0.7,10.3,1.1,15.3c-1.1,0.1-2.1,0.2-3,0.3c0.6,2.6,1.3,5,1.8,7.4c0.5,2.4,0.7,4.9,1.1,7.4
			c-1.7,0.5-3.1,1-4.6,1.5c3,2.2,2.7,2.3,4,6.2c0.8,2.4,1.2,4.3-0.2,6.5c-1.1,1.8,1.6,4.7-1.4,6.2c-0.1,0,0.2,1.6,0.6,1.9
			c1.7,0.9,1.1,2.1,0.9,3.4c-0.2,1.3-0.9,2.9-0.5,3.9c2.5,6,1.2,12.4,2,18.5c0.5,3.5,0.8,7.3-1.7,10.6c-0.4,0.6-0.4,1.9-0.1,2.7
			c0.6,2.6,1.4,5.2,2.2,8c-0.8,0.6-2,1.4-3.3,2.3c1.2,1.8,2.2,3.1,3,4.6c0.5,1,1.7,2.5-0.7,3.1c-0.3,0.1-0.6,1.3-0.5,2
			c0.3,3.7,0.1,7.6,1.2,11c1.2,3.7-0.7,7.1,0.4,10.5c-2.1,1.6-0.9,3.8-1,5.8c-0.2,3.3,2.5,6.4,0.9,9.8c2.9,5-1.5,8.3-2.6,12.3
			c3,2.2,3.5,3.2,1.9,6.2c-1.1,2-1.3,3.4,0.1,5.2c0.7,1,1.6,2.6,1.3,3.4c-0.4,1.1-1.9,1.7-3.3,2.8c4.1,3,3.3,7.6,1.3,10.6
			c-4.7,7.2-0.6,13.2,0.5,20.9c-0.4,1.1-3.2,3.5,0.3,6.2c0.4,0.2,0,1.7-0.1,2.6c-0.1,0.8-0.7,1.9-0.4,2.2c0.4,0.4,0.7,0.8,0.9,1.2
			c0.2-0.1,0.4-0.2,0.6-0.3c4.5-1.4,8.9-2.1,13.4-2.2c20-3.6,41.9-0.9,62.6,1.2c20-5.1,40.2-0.5,60.5-0.1
			C1115,639.8,1117,640,1119,640.4z M1139.3,577.5c-1.1-0.7-2.2-1.4-3.2-2.1c0.4-0.5,0.7-1,1.1-1.5c0.9,0.8,1.9,1.6,2.8,2.5
			C1139.8,576.8,1139.5,577.2,1139.3,577.5z M1028.7,607.1c-0.2,0-0.3,0.1-0.4,0.2c0,0,0.1-0.1,0.1-0.1c-2.2-3.6-2.2-4.1,1.2-4.9
			c1,2-0.2,3.5-1.2,4.9C1028.5,607.1,1028.6,607.1,1028.7,607.1c1.4-0.6,2.9-1.2,4.8-2.1C1032.4,609.4,1030.2,607,1028.7,607.1z"/>
		<path class="st0" d="M1458.7,877.3c-2.8-3.3-5.7-6.5-8.4-9.9c-1.8-2.2-3.4-4.6-4.9-7c-0.5-0.8-0.5-1.9-0.8-2.9
			c-0.4-1.5-0.8-3-1.3-4.8c0.5-0.5,1.5-1.6,2.9-3.1c-2.1-1.2-3.8-2.1-4.9-2.7c-2.2,1.2-3.9,2.2-5.5,3.2c0.5-0.8,1.1-1.5,1.6-2.3
			c-2.4-1.3-5-2.2-7-3.8c-3.6-2.8-7.5-5.5-7.1-11c0.1-1.1-1.3-2.4-2.3-3.4c-1.2-1.3-2.7-2.3-4.2-3.6c1.2-1.9,2.1-3.2,3.7-5.7
			c-3.3,1-5.2,1.7-6.9,2.2c-2.2-1.9-4.1-3.5-6.4-5.5c4.1-2,7.5,3.9,10.8-0.4c-4.3-1.1-8.2-4.3-12.9-1.8c-2.5-2.6-4.8-4.9-7.9-8
			c4-0.4,6.7-0.6,9.3-0.8c0-0.4,0-0.8,0-1.2c-3.9-0.9-7.8-1.9-11.7-2.8c-0.9-2.1-2.3-4-2.4-5.9c-0.1-2.3,1.1-4.5,1.7-6.8
			c4.7-3.2,11.1-1.8,15.8-5.2c-2.7-5-2.7-5-7.5-2.3c-2.9-0.2-5.5-1.2-7-0.4c-4.1,2.2-7.6,1.3-11.5-0.6c-0.3-1.9-0.6-3.8-0.9-5.6
			c-2.9-0.9-5.5-1.7-9-2.7c2.3-1.5,3.6-2.3,4.9-3.1c-0.7-2.8-2.4-2.8-4.4-2.4c-2.8,0.6-5.2,0.1-6.1-3.2c-0.7-2.3-2.6-2.7-4.8-2.6
			c-1.8,0.1-3.7,0.2-5.3-0.3c-1-0.4-1.6-1.9-2.4-3c1.5-1.3,2.6-2.2,3.7-3.2c-0.1-0.3-0.3-0.7-0.5-1c-1.9,0.5-3.8,1-6,1.5
			c-24.5-28.8-49.3-57.3-73-86.7c4.7-3.9,4.7-3.9,3.8-7.5c-4.1,0.7-7.9-0.3-11.2-2.8c-1.9-1.4-3.4-0.9-4.8,0.4
			c-4.2,3.8-9.6,6.3-12.1,12c-0.5,1.3-2.2,2.1-3.5,3c-4.1,2.7-7.6,5.8-9.4,10.5c-0.5,1.4-1.8,2.6-2.8,3.7c-0.9,1-2.5,1.7-2.9,2.9
			c-2.8,7.8-9.4,12.7-14,19.1c-3,4-6.6,7.5-9.7,11.3c-5.6,6.7-10.9,13.6-16.5,20.2c-5.3,6.4-10.8,12.6-16.4,18.9
			c-3.4,3.8-7,7.4-10.6,11c-0.3,0.4-1.1,0.5-1.7,0.3c-3.2-0.5-4.2,1.4-5,4c-0.6,1.8-1.7,3.6-2.9,5c-2.3,2.7-5.8,4.8-7.1,7.9
			c-1.5,3.7-3.9,3.6-6.4,3.5c-0.4,5-1.2,9.3-5.2,12.7c-0.2-0.3-0.3-0.6-0.5-0.8c-0.4,0.7-0.9,1.4-1.6,2c-1.3,1.3-2.7,2.7-4,3.9
			l0.4,0.3c-0.2,5-4.5,7.3-7.7,10.5c-0.6-0.8-1.1-1.4-1.6-2c-1.3,1.3-2.7,2.6-4.1,3.9c1,0.6,2,1.3,3.1,2c-4,5.4-7.3,11.8-14.6,13.6
			c-0.8,5-14.2,22.9-21.4,28.9c-3.1-2.4-3-2.4-3.7-4.7c-0.5-1.3-1.3-2.7-2.4-3.7c-2.6-2.4-5.4-4.6-8.1-7c-0.5-0.5-0.9-1.6-0.6-2.2
			c0.8-2.2,0.4-4-0.8-5.4c-3-1.6-5.5-4.2-7.1-8.1c-0.3-0.7-0.5-1.4-0.7-2.1c-0.6,0.4-1.1,0.7-1.6,1.1c-2.7-0.5-0.8-5.5-4.8-3.9
			c0.4-2.7-1.7-3.6-3.5-4.2c0-2.4,1.8-4.2-0.4-6.4c-1.3-1.3-0.5-2.6,0.6-3.4c0.2-1.8,0.9-3.6,2-5c-1.6,1-3.4,0.7-5.4-1.1
			c2.5-0.4,5-0.8,7.5-1.1c-0.1,0.2-0.2,0.3-0.4,0.5c1.7-1.2,3.7-2,6.2-1.9c2-2.7,5.3-4.2,9.5-2.6c2.6,1,5,1.9,7.5,2.7
			c6.4-0.3,12.8,0,19.3,0.1c0.9-0.5,1.8-1.3,2.5-2.5c0.7-1.1,2.3-1.6,3.5-2.3c0.3-0.1,0.7,0.1,1.1,0.2c0.1,0.2,0.1,0.5,0.2,0.8
			c0.1-0.3,0.3-0.6,0.4-0.9c0.8-1.6,2.1-2.9,3.6-3.8c4-9.1,10.8-16.2,16.6-18c1.5-2.3,3.1-3.7,3.2-5.2c0.5-7,5.9-10.6,10.1-14.9
			c2.6-2.6,4.1-7,8.8-7.2c-0.9-5.4,4.1-7.5,6.6-10.5c7.6-9.3,16.2-18,24.4-26.9c1.3-1.4,3.1-2.3,4.2-3.7c3.8-4.7,7.1-9.9,11.2-14.4
			c6-6.5,13.7-11.5,18.1-19.5c0.4-0.6,1.2-1.1,2-1.3c2.5-0.9,3.8-2.5,3.9-5.3c0-1.2,1.3-2.4,2.1-3.4c1.3-1.7,2.7-3.3,4.4-5.2
			c-2.3-2.1-4.4-4.1-6.9-6.5c1.3-1.1,2.6-1.7,3.4-2.8c0.3-0.3,0.5-0.7,0.8-1c-0.8-0.2-1.6-0.4-2.2-0.7c-1.7,2.4-3.9,4.1-6.5,4.9
			c-2.3,0.8-4.8,1-7.5,0.5c-2.7-0.5-5.5-0.4-8.2-0.5l-170.8,0c-3.1,0.1-6.3,0.2-9.4,0.2c-11.3,0-22.6,0.3-33.9-0.2l-23.7,0l-4.4,0
			l-10.3-1.1l-9,3.7c-2.1,2.6-4.1,5.4-6.2,8.1l0.1-0.1c-2.1,3.1-4.3,6.3-6.5,9.4c-4.6,6.5-9.2,13-13.9,19.5
			c-3.7,5.2-7.4,10.4-11.1,15.6c-10.1,14.5-20.1,28.9-30.3,43.3c-8.3,11.8-16.8,23.4-25.1,35.2c-6,8.5-11.8,17.2-17.8,25.6
			c-6.6,9.2-13.5,18.3-20.2,27.5c-3.9,5.3-7.2,11.2-11.7,15.9c-5.5,5.7-5.8,12.3-6,19.6c6.8-0.2,13.7-0.1,20.4,0.2
			c-0.1-0.2-0.1-0.3-0.2-0.5l3.9-1.2c0.1,0.2,0.2,0.5,0.2,0.7c-0.9,0.3-1.8,0.6-2.6,1c10.3,0.4,20.1,1.1,29,1.6
			c2.9-4.2,5.9-8.3,10-11.7c3.1-2.6,5.1-6.4,7.6-9.7c0.1-0.1,0.1-0.5,0-0.6c-2.6-3.1,0.5-4.8,2-6.4c3.5-3.6,6.3-7.5,8.6-12
			c1.5-2.9,4.2-5.2,6.4-7.8c1.7-1.9,4.5-3.7,4.8-5.8c0.8-6.6,5.6-9.7,9.8-13.6c1.2-1.2,2.4-2.7,2.8-4.2c0.7-2.2,1.1-4.2,3.7-4.9
			c0.6-0.2,1.5-1.1,1.5-1.7c-0.2-2.4,1.4-3.4,2.8-4.9c2.5-2.7,5.3-5.5,6.5-8.8c2-5.5,6.3-8.8,9.9-13.1c0.1,0.1,0.2,0.1,0.4,0.2
			c0.2-0.4,0.5-0.8,0.7-1.2c0.2-0.3,0.4-0.6,0.6-0.8c-0.2-0.2-0.3-0.4-0.5-0.7c2.5-2.9,4.9-5.9,7.3-8.8c0.2-0.6,0.4-1.3,0.6-2
			c0.7-3.8,2.9-5.8,5.5-6.5c0.1-1.2,0.5-2.2,2-2.9l0.3,0.3c1.6-2.8,3.6-5.4,6.5-7.5c0.4-3.4,2.6-6.1,5.6-7.4
			c1.3-2.3,2.7-4.4,4.3-6.7c0.9-1.2,2-2.3,3.2-3.1c1-1.2,2.1-2.4,3.2-3.6c0.5-0.5,1.1-1,1.8-1.4c1.8-2.6,4.5-4.4,7.9-4.2
			c3.2,0.2,6.2,0.8,9.1,1.7c-0.3-0.4-0.6-0.8-0.9-1.3c5.2-0.2,9.8-0.4,14.5-0.5c-0.4,0.6-1,1.5-1.7,2.5c4,1.8,3-2.2,4.8-4.3
			c2,1.7,4,3.4,6.7,5.8c1.9-0.5,5.4-0.3,6.9-2c1.5-1.7,2.9-1.8,4.4-2.7c3.2-2,4.7-0.6,6.5,1.5c-1.7-3.1,0-3.6,4-3.6
			c-1.7,1.8-2.6,2.8-3.4,3.7c3.2-1.4,6.4-2.9,9.9-4.5c0.9,1.9,1.5,3.1,2.1,4.5c0.7-0.2,1.4-0.2,1.7-0.5c2.2-2.6,4.5,0,6.6,0
			c3.9-0.1,7.9-0.3,11.9-0.6c1.1-0.1,2.3-0.6,3.3-1.2c1.5-0.9,2.7-1.5,4.3-0.1c0.6,0.5,1.8,0.5,2.7,0.4c1.2-0.2,6.5-0.1,7.7,0
			c5.1,0.3,10.1,0.5,15.2,0.8c3.5,0.2,7,0.6,10.5,0.6c7-0.1,19-4.1,18.5,4.5c-0.2,4.1-16.1,19.2-19.2,20.7c1.7-2.2,3.1-5.2,4.6-7.4
			c-9.7,6.6-17.9,15.1-28.6,20.4c-19.2,9.5-44.8,4.1-65.2,1.4c-7.9-1-16,1.3-23.9,1.2c-4.4,0-20.3-3.9-23.5-1.5
			c-0.8,0.6-1.7,1-2.7,1.4c-4.4,1.5-5.4,8.3-5.9,13.5c1.3,0.9,3.2,2,3.8,3.1c0.2,0.3,0.3,0.6,0.5,0.9c0.3-1.2,0.7-2.3,1.1-3.6
			c2.8,4.4,5.4,10.7,5.6,14.1c0,0.2,0,0.5,0,0.7c0.4,0.5,0.7,0.9,1.1,1.4c0.7,0.8,1.3,1.7,1.9,2.5c0.3,0.1,0.7,0.2,1,0.2
			c1.5,0.3,3.1,1.8,3.8,3.2c0.7,1.5,1,3.1,1.4,5c1.1,1.4,2.1,2.9,3.3,4.3c0.9-0.4,1.8-0.7,2.7-1.1c4.4,3.9,5.7,5.6,4.9,8.9
			c4.6,3.7,8.4,8.1,11.3,13.3c1.9,3.2,3.5,6.5,5.9,9.2c0.4-0.8,0.9-1.5,1.3-2.3c2,2.7,2.9,4.1,2.5,5.6c7.3,4.7,15.2,9.3,18.8,17.6
			c0.5,1.1,0.7,2.2,0.8,3.3c2.2,2.9,4.4,5.8,6,9c1.9,3.8,2.4,8.4,7.1,10.3c0.4,0.1,0.7,0.4,1,0.8c19.5,0.1,38.9,0.4,58.3,0.8
			c23.5-9.2,54.2-1.4,79-0.8c2.5,0.1,4.7,0.4,6.9,1c2.6-1.9,5.5-3.5,8.9-4.4c0.7-0.2,1.3-0.2,2-0.4h0c0.7-0.1,1.4-0.3,2.1-0.5
			c3-1,6.1-1.6,9.3-1.6c2.6,0.3,5.2,0.7,7.8,1c2.3,0.6,4.4,1.7,6.5,2.9h52c4.2,0,8.2,1,11.9,2.7c19.6-3.9,39.3-2.9,60.3-2.7
			c1.4,0,2.7,0.2,4,0.3c2.5,0,5.1,0.1,7.7,0.7c0.6,0.1,1.2,0.2,1.9,0.4c0.8,0.1,1.5,0.1,2.3,0.1c4.4-3.4,10.2-5.4,17.3-5.4
			c5.4,0,9.8,1.3,13.6,3.3c6.8-1.8,14-1.3,20.2,1.5c17.3-1.6,34.7-1.8,52.1-1.5C1459.6,878.4,1459.2,877.8,1458.7,877.3z
			 M1006,720.4c-0.8-0.1-1.6-0.3-2.4-0.4c0.5-0.4,0.9-0.8,1.5-1.1c0.2-0.1,0.7,0.3,1,0.4C1006,719.7,1006,720.1,1006,720.4z
			 M1085,716.7c0-0.4,0.1-0.8,0.1-1.2l4.4,0C1087.4,716.1,1086.2,716.4,1085,716.7z M1011.6,766.8c-0.5-0.2-0.9-1-1.1-1.7
			c-0.1-0.2,0.8-1,1.1-1c0.6,0.1,1.1,0.7,2.2,1.4C1012.7,766.1,1012,766.9,1011.6,766.8z M1034.7,787.9c-2.4,4.9,1.2,6.9,4.7,9.4
			c-1.3,0.6-2.6,1.4-2.8,1.2c-3.1-3-6.1-6.1-9.4-9.7c1.8-0.8,3-1.3,4.2-1.8l0-5.1c-0.7,0.1-1.2,0-1.5,0.2c-5.8,4.2-7.1,3.8-9.6-2.7
			c-0.9-2.2-0.1-3.5,1.5-4.6c1.5-1.1,3.3-0.7,4,1c1.3,3.2,3.8,3.7,6.8,3.8c0.6,0,1.4-0.1,1.8,0.2c3.9,3,7.2,6.7,10.7,10.5
			C1038.6,793.1,1038.2,793,1034.7,787.9z M1049,813.8c-1-0.5-2-1-3-1.6l0.5-0.9c1,0.5,2,1.1,3,1.5
			C1049.3,813.2,1049.2,813.6,1049,813.8z M1277.4,662.7c0,0.3,0.1,0.5,0.1,0.8c-0.9,0.2-1.8,0.4-2.7,0.6c0-0.4-0.1-0.9-0.1-1.4
			L1277.4,662.7z M1314,828.9c0.3,3.6,3.3,5.4,0.8,8.1c-1.5,1.8-2.8,3.3-5.1,3.4c-5,0.1-10,0.3-15,0.2c-8.8-0.3-17.6-0.8-26.4-1.2
			c-7.8-0.4-15.6-0.8-23.3-1c-2-0.1-4,0.3-5.9,0.3c-1.9,0.1-3.7,0-5.8,0c1.4-4.5,4.8-1.3,7-2.9c0.4-2.2-1-3.6-3-2.7
			c-3.6,1.5-8,0.9-11.1,4.1c-1.3,1.3-3.6,2.9-5.5,0c-0.2-0.3-1.2-0.4-1.7-0.1c-7.9,3.4-16.3,0.9-24.4,2c-1.6,0.2-3.2,0.4-4.8,0.4
			c-1.9,0-3.8-0.2-5.7-0.3c0-0.5-0.1-1.1-0.1-1.6c1.9-0.4,3.7-0.8,6.3-1.3c-1.3-1.2-2.4-2.2-4.1-3.7c5.6,0.7,5.9-5.7,10.6-6.5
			c3.3,2.8,6,7.2,11.5,5.1c-0.4-0.4-0.7-1.2-1.1-1.2c-5-0.8-7.2-5.4-10.6-7.8c1.1-5.4,6-4,9.3-5.8c-0.5-1.1-0.9-2.1-1.5-3.4
			c6.1-5,9.4-12.9,17.5-16.3c-0.1-1.3-0.2-2.9-0.4-4.7c3.5-2.3,7.6-4.1,10.5-7.1c2.5-2.6,3.5-6.5,5.5-10.7c1.4,0.2,3.6,0.4,6.6,0.8
			c-0.9-1.6-1.5-2.8-2.5-4.5c1.7-2.4,6.3-4.1,3.4-8.3c2.7-2.6,7.2-3,7.6-7.8c0.1-1.1,2.3-2.1,3.4-3.2c1.5-1.6,4-2.3,3.8-5.6
			c-0.1-1.3,2.8-2.9,4.6-4.6c6.8,6.6,14.8,11.7,18.5,20.7c0.4,0.9,0,2.2,0,3.6c3.1-1.1,4.9,1.5,7.3,3.8c6.8,6.4,12.5,13.8,18,21.3
			c2.2,3,5.6,5.8,4.9,10.3c0,0.2,0.5,0.4,0.8,0.6c1.9,1.6,4.4,2.7,5.7,4.7c1.8,2.8,3.7,5.4,6.3,7.6c0.9,0.7,3.1,1.8,1.5,3.9
			c-0.1,0.1,0.6,1,1.1,1.3c2.4,2.1,5,3.8,7.3,6.1c1.3,1.3,1.7,3.4,2.7,4.9c0.9,1.4,2,2.7,3.5,4.6c-4.9,2.1-10,0.2-15.5,1.9
			c0.7-1.6,1.1-2.4,1.5-3.6c-2.7,0.3-5.1,0.5-8,0.7C1318.5,832.3,1316.7,830.9,1314,828.9z M1322.7,839.5c7.4-2.9,14-1.8,20.6-1.1
			c0,0.4,0,0.9,0,1.3L1322.7,839.5z M1373.4,778.2c0.8-1.9,3.9-1.6,7.7,0.6c-1.9,0.8-3.4,1.5-5.6,2.4
			C1375,780.4,1374.2,779.3,1373.4,778.2z M1389.9,787.8c-3.5,1.2-6.3-0.2-8.9-2.5c0.1-0.4,0.2-0.9,0.3-1.3c3,0.7,5.9,1.4,8.9,2
			C1390.1,786.7,1390,787.3,1389.9,787.8z"/>
		<path class="st0" d="M909.5,657.4c-1.1-0.7-2.2-1.4-3.1-1.9c-0.8,0.7-1.3,1.2-2.7,2.3c0.5-2.6,0.8-4,1.2-5.9
			c-4.6,6-12.1,1.3-17.1,5.2c-0.2,0.1-0.9-0.1-1.1-0.3c-1.3-1.6-2.4-0.8-4.1-0.4c-3.7,0.7-7.7,0.5-11.6,0.5
			c-8.1,0.1-16.3,0.1-24.4,0.2c-6.8,0.1-13.6,0.1-20.4,0.3c-5.3,0.2-10.6-2.5-16-0.1c-0.6,0.2-1.7-0.1-2.2-0.6
			c-1.3-1.1-2.2-1.1-3.7-0.2c-1,0.7-2.6,0.5-4,0.5c-8.8,0.1-17.6,0-26.3,0c-3.4,0-6.8,0-10.2-0.3c-1.1-0.1-2.5-0.5-3.2-1.2
			c-2-2-4.1-1.7-6.1-0.6c-3.2,1.7-6.5,1.4-9.9,1.5c-7.2,0.3-14.4-1-21.6-0.1c-5.3,0.7-10.8,0.2-16.2,0.3c-1.9,0.1-3.8-0.1-5.7,0.2
			c-4.3,0.7-6.2-1.4-5.4-6.2c-0.7-0.3-1.6-1-1.9-0.8c-1.9,1.4-3.6,3-5.5,4.6c0.9,0.5,1.7,1,3.6,2.1c-8.5-0.1-15.9-0.6-23.2-0.1
			c-5.1,0.3-9.5-1.6-14.4-1.8c-3.3-0.1-6.9-1.3-9.9-0.4c-3.7,1-6.9,1.7-10.3-0.3c-2.1,1.5-4,2.8-5.9,4.2c0.8,1,1.5,1.6,2.8,3.1
			c-2.7,0.5-4.5,0.9-6.4,1.2c-3.9,0.7-6-2.7-7.9-3.5c-3.2,0.8-5.3,1.6-7.6,1.8c-3,0.3-4.8,1.4-4.9,4.9c2.1,0.5,4,0.9,6.7,1.5
			c-1.8,0.7-2.8,1.6-3.9,1.5c-3.5-0.1-5.4,3-5.8,4.9c-1.2,5.1-4.8,8.2-8,11.7c-2.2,2.6-4.8,4.7-7,7.4c-7.5,9.1-14.9,18.3-22.2,27.5
			c-0.4,0.5-0.5,1.3-0.8,2.1c0.9,0.2,1.7,0.6,2,0.4c6.1-3.9,11.6-8.3,16.3-13.8c0.5-0.6,0.5-1.9,0.3-2.7c-0.9-2.8,1-3.7,3-4.2
			c1.5-0.3,3.1,0,4.1,0c2.4-4.7,4-9.5,6.9-13.4c3.1-4.3,7.6-7.5,11-11.6c2.8-3.2,5.8-4.6,10.3-3.1c-1.7,2.4-3,4.9-4.8,7
			c-3.4,4-7.2,7.6-10.2,12.2c-4.5,6.8-10.2,12.8-15.2,19.2c-2.6,3.4-5.5,6.5-7.8,10.2c-3,4.8-5,10.6-11.1,12.9
			c-0.4,0.1-0.3,1.1-0.7,1.6c-1.5,2.3-2.8,4.8-4.5,7c-6.7,8.7-13.4,17.4-20.2,26c-1.6,2-3.9,3.5-6.3,5.6c1.2,1.8,0,3.4-2.2,4.6
			c-2.4,1.2-4.3,2.7-4.7,5.7c-0.2,1.2-1.4,2.4-2.3,3.5c-2.8,3.7-5.7,7.2-8.5,10.9c-7,9.2-13.9,18.5-21,27.7
			c-4.7,6.2-9.6,12.2-14.5,18.3c-3.2,4-6.3,8.1-9.5,12.2c-3.9,5-8,9.9-11.8,15c-0.7,1-1.4,1.9-2.2,2.5c0.1,2.1,0.1,4.2,0.3,6.2
			c0.4,0.1,0.8,0.1,1.2,0.2c2.1-0.6,4.1-1.2,6.1-1.9c5.1-1.8,10-1.7,14.6-0.3c20.3-4.8,43-4,64.7-2.6c2.2-1.7,3.9-2.3,6.2,0
			c-0.2,0.2-0.3,0.2-0.5,0.4c2.3,0.1,4.5,0.3,6.7,0.4c0,0,0,0,0,0c0.7-0.5,1.5-0.9,2.3-1.4c0.2,0.4,0.4,0.8,0.6,1.2
			c-0.3,0.1-0.7,0.2-1,0.4c6.3,0.4,12.5,0.7,18.4,0.9c-0.6-0.6-1.2-1.4-2.1-2.4c8.8-0.9,16.3-0.5,24.6,0.2c-1.2,1.3-2.2,2-3.3,2.3
			c5.3,0,10.6-0.1,15.9-0.2c2.5-2.8,3.9-3,7.4-2.1c-0.5,0.7-1,1.3-1.5,2c9.3-0.2,18.6-0.4,27.9-0.7c-0.2-0.2-0.4-0.2-0.6-0.5
			c1.3-0.1,2.7-0.3,4-0.4c0.1,0.2,0.1,0.5,0.2,0.8c15-0.4,30-0.8,45.1-1.1v0h0.1c16.2-0.3,32.5-0.3,48.7,0.1
			c0.3-0.2,0.5-0.4,0.8-0.5c0.1,0.2,0.2,0.3,0.2,0.5c1,0,2.1,0,3.1,0.1c1.6,0.1,3.2,0.2,4.6,0.5c0.1-0.1,0.1-0.3,0.2-0.4
			c1.8-6.3,6.1-11.1,9.9-16.3c4.3-6,8.5-12.1,13.1-17.8c3.3-4.1,6.8-7.8,9.1-12.7c2-4.1,5-7.7,7.9-11.3c3.8-4.9,5.6-11.7,12.1-14.5
			c0.6-0.2,0.6-1.8,0.9-2.7c0.4-1.1,0.4-2.5,1.1-3.3c5.1-5.6,8.9-12.1,13.2-18.3c6.3-9,12.6-17.9,19.2-26.7
			c5.8-7.6,9.9-16.5,18-22.2c0.8-0.5,1.6-1.7,1.5-2.5c-0.5-3.2,1.9-4.6,3.4-6.6c2.8-3.6,6-6.8,8.5-10.6c5.2-7.5,9.9-15.3,15-22.9
			c2.3-3.5,5.1-6.7,7.6-10c2.4-3.2,4-7.7,7.2-9.4c3.8-2.1,5.1-6.4,8.9-8.1c0.5-0.2,0.6-1.4,0.9-2.2
			C911.4,658.8,910.4,658,909.5,657.4z M808.9,717c-1.7,2.1-2.5,4.8-4.2,7c-6.5,9-13.2,17.9-19.8,26.9c-4.1,5.6-8.1,11.3-12.1,17
			c-0.8,1.1-2,1.9-3,2.8c-1,1-2.2,1.8-2.9,3c-4.1,6.5-8,13.2-12.3,19.5c-3.6,5.2-7.8,10-11.5,15.2c-2.6,3.7-4.7,7.8-7.2,11.6
			c-2.3,3.7-5.3,6.2-9.5,8.3c-10.1,4.9-20.6,2.1-30.9,2.8c-5.2,0.4-10.4,0-15.5-0.1c-0.6-1.1-1-2-1.5-3c-0.6,0.2-1.1,0.3-1.7,0.5
			c-2.2,0.7-4.4,2.1-6.6,2.1c-15.4,0.3-30.8,0.4-46.2,0.5c-9.8,0-19.6-0.2-29.4,0c-3.6,0.1-6.8-0.1-8.4-3.5c-3,0.6-5.5,1.1-8.9,1.7
			c7-13.9,13.1-26.9,23.3-37.5c2.3-2.4,4.7-5,6.5-7.8c1.9-2.9,4-4.8,7.9-4.2c-0.1-1.8-0.2-3.2-0.3-4.7c2.2-0.7,3.6-1.9,4.6-4.6
			c1.2-3.2,4.1-5.8,6.5-8.5c2.3-2.7,4.5-5.4,7.1-7.8c2.2-2.1,4.7-4,7.1-6c1.5-1.3,3.1-2.4,5-3.9c-1.1-1.3-2.1-2.4-3-3.6
			c8.2-5.9,13.3-14.3,19.8-21.4c2.5-2.7,5.1-5,8.5-6.4c2.8-1.2,5.4-1.7,7,1.2c5.3-1.8,10.3-3.5,15.7-5.3c4.9,1.6,10,4.7,15.9,4
			c0.1-0.5,0.3-1,0.4-1.4c-1.5-0.5-3-1-4.5-1.5c2.1-2.5,2.1-2.5,12.5-0.2c-0.4,0.4-0.7,0.8-1,1c-0.5,0.3-1,0.5-2.9,1.3
			c5.1,0.3,8.8,0,12.5-0.5c3.8-0.5,7.6-0.9,11.6-0.5c4.2,0.4,10.1,0.5,13-6.2c1,5,4.3,4.8,7.4,5c4.8,0.2,9.5,0.3,14.3,0.8
			c1.5,0.2,2.9,1.7,4.5,2.6c2-1.9,4.1-4,6.6-6.5c0.8,0.2,2.8,0,3.9,0.9c3.5,2.9,7,2.1,10.7,0.9c2.4-0.7,4.7-1.1,5.2,2.2
			c4.1-0.4,8.2-0.8,12.3-1.1c0.1,0.3,0.2,0.7,0.3,1C813.4,712.9,810.8,714.7,808.9,717z"/>
		<g>
			<g>
				<path class="st0" d="M858.5,637.8h88.2c0.2-4.5,0.5-9,0.8-13.5c0.2-2.5,1.2-5,1.8-7.4c3.4,0.3,2.5-3.8,5.1-4.8l6,0.2
					c-4-4.4-8.3-5.8-13.2-5.8c0.2-3.4-0.8-7,3.7-8.2c1.5,1.1,3.1,2.1,4.7,3.2l0.8-0.7c-2-2.4-4-4.9-5.6-6.9c1.8-2.2,3.3-4.1,4.7-5.9
					c-2.4,0.7-4.8,1.5-7.6,2.3l0.7-25.6c1.5-0.4,3.1-0.9,4.5-1.3c-0.6-3.2-1.2-5.9-1.7-8.4c2-1.3,3.6-2.2,5.2-3.2
					c-0.1-0.3-0.3-0.5-0.3-0.7c-2.4,0.7-4.9,1.4-7.5,2.1c-0.9-4.4,1.8-7.6,3.5-10.9c-1.2-0.6-3-0.9-3.2-1.6
					c-1.5-5.9,0.5-11.4,2.4-16.7c-1.2-0.9-2.9-1.8-2.8-2.2c0.4-1.5,1.5-2.9,2.3-4.5c-2.6-4-2.5-7.2,0.3-10.7
					c-0.5-1.1-1.2-1.9-1.2-2.7c0.1-4.8,1.8-9.5,1.2-14.5c-0.4-3.7-1.3-7.2-1.4-11.1c-0.6-15.6,1-31,1.2-46.5c0-2.4-0.4-4.8-0.7-7.6
					c1.5,0.7,2.4,1.1,4.2,2c-1.7-2.6-3.5-4.2-3.6-5.9c-0.4-3.7-0.1-7.5,0.2-11.3c0.4-5.5,1.1-11,1.7-16.8c0.7-0.4,1.7-0.9,2.7-1.4
					c-0.8-1.8-1.8-3.3-2.1-4.9c-0.7-3.8-1.5-7.7-1.6-11.6c-0.2-7.5-0.1-15,0.1-22.6c0.1-3.4-1-7.3,2.2-9.4c-0.9-1.3-2.2-2.3-2.2-3.2
					c0.1-5.2-1.5-10.8,2.4-15.7c-3.1-3-2.8-7.1-2-10.6c1-4.8-1-9.8,1.3-14.6c0.5-1.1-0.5-2.9-0.9-4.5c3.8-3.5,3.8-3.5,0.2-8
					c-4.1,3.5-8,7.2-12.3,10.4c-5.8,4.5-9.3,10.9-14.6,15.8c-1.8,1.8-3.4,3.8-5.1,5.7c-2,2.4-5.1,4.4-5.8,7.1
					c-1.1,4.1-3.1,6.2-6.6,6.7c-1.1,2.4-1.5,5.4-2.9,6c-5.3,2.4-6.8,6.7-7.2,10.4c-3,3.1-5.3,5.2-7.2,7.6c-2.4,3.1-3.8,7.3-6.8,9.5
					c-4,2.9-7.2,5.8-9.2,10.3c-0.1,0.3-0.6,0.5-0.9,0.7c-0.8-0.4-1.7-0.8-2.6-1.2c-0.4,0.5-1.2,1-1.2,1.4c0.1,4-2.2,6.6-5.1,8.9
					c-1,0.9-1.9,2-2.7,3.2c-4.5,6.3-9,12.7-13.5,19c-1.2,1.6-2.5,3-3.8,4.4c-1.6,1.7-3.6,3.2-4.9,5c-2.9,4.3-4.7,9.6-8.3,13.1
					c-3.9,3.7-4.4,8.9-7.8,12.9c-3,3.6-5.4,7.8-9,11.1c-2.1,2-2.2,4-1.8,6.3c0.1,0,0.1,0,0.2,0c0,0,0.1,0.1,0.1,0.1
					c0.9-0.4,1.9-0.8,3.3-1.3c-1.5,2.6-1.5,2.7-3.3,1.3c-0.1,0-0.2,0.1-0.2,0.1c0-0.1,0-0.1,0-0.2c-1.2,0-2.7-0.4-3.2,0.2
					c-4.4,4.3-9.2,8.3-12.7,13.3c-3.5,4.9-5.8,10.6-11.3,13.8c-0.6,0.3-0.8,1.3-1.3,2c-1.4,1.9-3.2,3.6-4.3,5.6
					c-2.7,4.7-8.5,6.9-9.9,12.6c-0.2,0.8-1.4,1.4-2.1,2.1c-3.8,3.5-7.9,6.7-11.1,10.6c-2.7,3.3-3.2,8.5-8.6,9.4
					c-0.1,0-0.2,0.3-0.3,0.5c-2.7,5-6.6,8.9-11.8,11.6c-0.5,0.2-1.2,0.7-1.2,1.1c-0.1,3.8-4.1,4-5.8,6.3c0.8,1.5,1.5,2.8,1.9,3.6
					c-2.8,1-5.9,1.3-7.7,3c-5,4.6-9.6,9.6-14.4,14.7c-0.4,0.9-0.8,1.9-1.1,2.8c0.2,0.8,0.3,1.7,0.5,2.8c-0.5,0.1-1,0.2-1.6,0.4
					c-0.1,0.4-0.3,0.8-0.4,1.2c-0.1,0.4-0.2,0.7-0.4,1.1c5.2,0.2,10.1,2.2,15.3,2.8c4,0.4,8.5-0.7,12.3,1.8c0,0,0.1,0,0.1,0
					c-2.8-9.9,12.2-17.3,17.7-7.1c1.5,2.8,3.2,5.4,5.1,7.9c1.3,0.1,2.5,0.2,3.7,0.3c0.7,0.1,1.4,0.7,2.3,1.1
					c-0.3,1.3-0.6,2.5-1.1,4.4c0.1,0.1,0.2,0.1,0.2,0.3c2.8-2.7,5.2-4.5,8.6-4c0.8,0.1,2.1-1,2.8-1.9c3-3.5,5.8-7.1,8.6-10.6
					c4.3-5.4,8.7-10.8,13.1-16.2c3.2-3.8,6.4-7.6,9.4-11.5c3.3-4.4,6.4-9,9.8-13.3c9.9-12.5,19.9-25,29.9-37.5
					c12-15,23.9-30,36-44.9c2.6-3.2,5.9-6,8.4-9.2c4.3-5.4,8.2-11.1,12.3-16.7c0-0.1,0-0.2,0-0.3c0.1,0.1,0.1,0.1,0.2,0.1
					c0.5-0.7,1-1.4,1.9-2.7c0.2,3,0.2,3.1-1.9,2.7c0,0,0,0.1-0.1,0.1c0,0,0,0.1-0.1,0.1c0.4,2.1,0.8,4.1,1.3,6.2
					c0.5,2.3,0.5,5.1,1.9,6.6c2.3,2.5-0.1,4.6-0.1,6.7c0.1,8.3-0.7,16.7-1.2,25c-0.2,3.1-1.1,6.3-1.1,9.4c0,5.2,0.8,10.3,0.6,15.4
					c-0.2,7-0.7,14,0.8,20.9c0.4,2.1,1,4.8,0.1,6.4c-2.6,4.3-1.4,8,0.2,12c0.3,0.9,0.5,1.9,0.5,2.9c-0.4,4.7-1,9.3-1.5,14
					c-1.3,0-2.3,0.1-4,0.1c-0.2,6.1,0.3,12.5-1,18.4c-1.3,6-0.4,12.2-1.8,18.3c-5.1-1.9-5.1-1.9-8.3,0.7c2.8,0.8,5.4,1.6,8.2,2.3
					c-0.7,1-1.9,1.8-1.9,2.7c0,1.2,0.8,2.4,1.5,3.9c-1.7,0.2-2.9,0.5-4,0.5c-11.8-0.3-23.5-0.6-35.3-0.9
					c-10.6-0.2-21.1-0.4-31.7-0.7c-5.4-0.1-10.9-0.7-16.3-0.7c-6.4,0-12.7,0.5-19.1,0.4c-2.6,0-5.1-1.1-8.1-1.8
					c-4.5,2.3-9.6,1.2-14.8,1c4.4,4.3,9,8.4,13.4,12.5c8.9,8.6-5,21.6-13.9,13.2c-5-4.8-10.2-9.5-15-14.5c-3.3,3.7-7.4,6.5-11,9.8
					c-0.7,0.7-1.8,1.4-1.9,2.2c-0.5,3.2-2.6,4.8-5.1,6.3c-0.8,0.5-1.5,1.2-2,2c-2.2,3.9-4.4,7.8-6.4,11.9c-0.2,0.3-0.4,0.7-0.5,1
					c1.6-0.1,3.3-0.2,4.9-0.3c1.2-0.2,2.4-0.4,3.6-0.4c16.9-0.1,33.8-1.8,50.7-1.9c0.6,0,1.1,0.1,1.6,0.1c0.7,0,1.5-0.1,2.3-0.1
					h60.4C851.8,635.8,855.4,636.6,858.5,637.8z M952.6,608.5c0.2,0.4,0.4,0.7,0.5,1.1c-1.3,0.7-2.6,1.4-3.9,2.1
					c-0.3-0.4-0.5-0.8-0.8-1.3C949.9,609.7,951.3,609.1,952.6,608.5z M729.2,569.3c-0.7-0.1-1.4-0.5-2.2-0.8
					c0.3-0.4,0.7-0.8,1.1-1.2c0.7,0.2,1.3,0.5,2,0.7C729.7,568.5,729.4,569.4,729.2,569.3z M739.8,556.8c1.2-6.9,2.7-8.8,10.6-12.8
					C747.1,547.9,743.8,551.9,739.8,556.8z M754.7,537.8c-0.4-0.3-0.8-0.5-1.2-0.8c0.9-1.4,1.9-2.9,2.8-4.3c0.5,0.3,1,0.7,1.5,1
					L754.7,537.8z M766.5,523.3c-0.2,0.2-0.7,0.1-2.3,0.2c1.6-1.8,2.5-2.8,3.5-3.9c0.3,0.3,0.7,0.7,1,1
					C768,521.5,767.3,522.4,766.5,523.3z M779,508.7c0,0-0.1,0-0.1,0c-1.5,1.3-3,2.7-4.4,4c0.1-3.1,0.1-3.1,4.4-4
					C779,508.7,779,508.7,779,508.7C779,508.6,779,508.6,779,508.7c-1.3-3.6,0.9-5.1,3.9-6.2C781.6,504.5,780.3,506.5,779,508.7
					C779,508.6,779,508.6,779,508.7z M789.1,494.2c-0.4-0.1-1-0.7-1-1.1c0-0.3,0.6-0.7,1.2-1.3c0.4,0.6,1,1.1,0.9,1.4
					C790.1,493.6,789.5,494.2,789.1,494.2z M901.8,553.6c0.6,0.1,1.2,0.1,1.8,0.2c-0.4,3.2-0.8,6.3-1.2,9.5c-0.4,0-0.9-0.1-1.4-0.2
					C900.2,559.9,901.3,556.8,901.8,553.6z M901.9,568.5c-0.1,1.1-0.2,2.3-0.3,3.5c-0.2,0-0.4,0-0.7,0c-0.2-1.2-0.3-2.4-0.5-3.6
					C900.9,568.4,901.4,568.5,901.9,568.5z"/>
				<path class="st0" d="M723.3,575.7c-0.1,0-0.6-0.8-0.6-0.9c0.3-0.4,0.8-0.6,1.2-0.9c0.2,0.3,0.4,0.6,0.7,1.1
					C724.1,575.3,723.7,575.5,723.3,575.7z"/>
				<path class="st0" d="M823.4,451.2c0-0.5,0-1.1,0.1-1.6c0.1-0.2,0.6-0.2,1-0.3c0.1,0.2,0.3,0.4,0.5,0.6
					C824.5,450.3,824,450.8,823.4,451.2z"/>
				<path class="st0" d="M838.3,432.3c-0.2-0.2-0.4-0.3-0.6-0.5c0.5-0.6,1-1.2,1.4-1.8c0.2,0.2,0.5,0.4,0.7,0.6
					C839.4,431.2,838.9,431.8,838.3,432.3z"/>
				<path class="st0" d="M902.5,584.6c-0.3,0.6-0.6,1.1-0.9,1.7c0,0-0.5-0.2-0.4-0.2c0.1-0.6,0.3-1.2,0.5-1.7
					C902,584.4,902.3,584.5,902.5,584.6z"/>
				<path class="st0" d="M898.9,309c-4.3-0.3-6.1-1.8-4.6-5.1c2.7-6.3,1.4-12.6,1.7-18.9c0.5-9.8,1.8-19.5,5.1-28.7
					c1.2-3.5,3.4-7,6-9.6c5.2-5.5,10.9-10.5,16.5-15.6c7.1-6.4,11.8-13.8,11.7-23.7c0-1-0.6-1.9-1.1-3.4c6.1-0.4,7.2-5.3,7.9-10.8
					c5.1,3,5.2,7.1,5.8,10.7c1.5,8.4,2.6,16.9,3.7,25.4c0.3,1.7,0.1,3.4,0,5.1c-0.1,2.2-0.8,4.4-0.6,6.6c0.7,6.3-1.5,11.8-3.6,17.4
					c-0.5,1.3-0.1,2.9-0.2,3.5c-2.8,4.1-5.2,7.6-7.5,11.3c-4.6,7.2-9.1,14.6-16.4,19.5c-1.6,1-3.4,1.8-5.2,2.5
					c-3.4,1.3-6.2,3-8.1,6.5c-1.8,3.2-4.8,5.6-7.6,8.1c-0.6,0.5-2.4-0.6-3.7-0.9L898.9,309z"/>
				<path class="st0" d="M674.8,639.7c11.7-0.1,23.4-0.3,35.1-0.7c1.6-1.2,3.1-2.6,4.4-4.4c-0.7-0.7-1.4-1.3-2.3-2
					c0.5-1.1,0.9-2.2,1.4-3.2c3.8-8,1.3-15.6-1.7-23.1c-0.2-0.6-0.9-1.3-1.5-1.6c-4.9-2.5-8.9-6.1-14.9-7.1c-1-0.2-2-0.2-3-0.3
					c-0.2,0.1-0.4,0.3-0.6,0.3c-0.9,0.4-1.8,0.8-2.7,1.2c-2,3.1-3.6,6.5-5.6,9.6c-3.3,5.1-7.1,9.3-12.2,12.5
					c-1.2,1.6-2.4,3.2-3.7,4.7c-0.6,0.7-1.3,1.2-2.1,1.5c1.4,4,4,7.5,7.2,10.6C673.3,638.5,674,639.1,674.8,639.7z"/>
			</g>
			<path class="st0" d="M732.7,637.8c16.9-0.1,33.8-1.8,50.7-1.9c0.1,0,0.2,0,0.3,0l-2.2-42.9l-14.8,1l7.7-9.7l-25.2-54.1
				l-41.8,48.1c-0.9,2.5-2.5,4.2-4.4,5.1l-2.2,2.6c-1.1,5-4.2,9.5-9,11.8c-0.6,0.3-1.3,0.6-2,0.9l-2,2.3c-1.5,2.6-2.8,5.2-4.3,7.6
				c-3.3,5.1-7.1,9.3-12.2,12.5c-1.2,1.6-2.4,3.2-3.7,4.7c-0.9,1-2,1.7-3.2,2.1l-10.4,12c0.3,0,0.5,0,0.8,0
				c24.8,0,49.6-0.2,74.4-1.6C730.3,638,731.5,637.8,732.7,637.8z"/>
		</g>
		<path class="st0" d="M1002.6,117.3c0,22-17.6,39.8-39.2,39.8c-21.7,0-39.2-17.8-39.2-39.8c0-22,17.6-39.8,39.2-39.8
			C985,77.5,1002.6,95.3,1002.6,117.3z"/>
	</g>
</g>
</svg>
