<?xml version="1.0" encoding="utf-8"?>
<!-- Generator: Adobe Illustrator 22.0.1, SVG Export Plug-In . SVG Version: 6.00 Build 0)  -->
<svg version="1.1" id="Capa_1" xmlns="http://www.w3.org/2000/svg" xmlns:xlink="http://www.w3.org/1999/xlink" x="0px" y="0px"
	 viewBox="0 0 1920 1080" style="enable-background:new 0 0 1920 1080;" xml:space="preserve">
<style type="text/css">
	.st0{fill:#FFFFFF;}
</style>
<g>
	<path class="st0" d="M1083.4,566.4c2.1,0,4.3,0.1,6.4,0.1c19.2-3.3,38.6-3.3,58.1-2.9c-0.6-1.2-1.4-2.3-2.4-3.8
		c-0.6-0.3-2-0.2-2.8-1.9c-0.5-1.2-2.4-1.8-2.8-3c-0.8-2.5-2.8-3.7-4.4-5.2c-3.2-3.1-5.2-7.3-8.4-10.4c-0.7-0.7-1.2-2-1.9-2.9
		c-0.7-0.8-1-1.8-1.8-3.1c-2-1.1-2.4-1.6-4.1-4.5c-0.2-0.3-0.5-0.5-0.8-0.8c-3.4-4.1-6.9-8.2-10.3-12.3c-0.2-0.2-0.5-0.5-0.5-0.7
		c0.9-2.5-1.3-3.5-2.3-5c-1.1-1.7-2.5-3.4-4.1-4.4c-2.3-1.4-3-3.9-4.8-5.6c-0.5-0.5-1.4-1.4-1.3-1.9c0.7-2.2-0.8-2.1-2-2.5
		c-0.6-0.2-1.5-0.7-1.6-1.2c-0.4-2.2-1.4-4-3-5.3c-0.3-0.3-0.6-0.8-0.6-1.3c-0.2-2-1.7-2.5-3-3.3c-0.5-0.3-1-0.6-1.6-0.9
		c0.8-1.3,2.7-1.8,1.8-4c-1,1.5-1.8,3-3.7,2.6c-0.3,0-0.7,0.5-1,0.9c-1.2,1.6-2.3,3.2-3.6,4.7c-3,3.5-5.2,7.4-7.3,11.5
		c-0.7,1.4-1.5,2.3-2.4,2.4c-0.6,1.2-0.8,2.1-1.4,2.7c-0.6,0.7-1.6,1-1.4,2.2c0,0.3-0.3,0.8-0.5,0.9c-2.1,0.7-2.7,2.4-2.9,4.5
		c0,0.3-0.3,0.8-0.5,1c-1,0.5-1.5,1.1-1.8,2.5c-0.1,0.7-1.3,1.6-1.8,2.6c-0.5,1-1,2-1.6,3c-1.1-0.2-2-0.4-2.9-0.6
		c0.3,0.7,0.7,0.9,1,1.1c1.6,1.4,1.7,2.5,0.2,4.3c-0.1,0.1-0.3,0-0.6-0.1c0.2-0.7,0.4-1.5,0.5-1.9c-1.3,0.7-2.6,1.3-3.9,1.9
		c1,2,1,2-0.8,3.8c-0.6,0.6-0.9,1.4-1.3,2.1c0.2,0.1,0.3,0.3,0.5,0.4c0.5-0.5,1-0.9,1.5-1.3c0.4,0.6,0.7,1.1,1,1.5l0.6-0.1
		c0.1-1.1,0.4-2.2,0.2-3.2c-0.3-1.5,0.4-1.9,1.5-2.1c0.9,2.4,0.9,2.1,3.1,2.6c4.2,0.9,8.3,1.6,12.5,1c1.6,1,3-0.4,4.5-0.5
		c2.8-0.1,5.6-0.3,7.5-0.5c1.7-2.3,2.9-3.9,4.1-5.6c1,1,2.3,1.6,2.5,2.5c0.2,1.6,2.4,2.2,1.9,4.2c-0.1,0.4,1.4,1.3,2.2,2.1
		c-0.2,0.8-0.4,1.6-0.6,2.5c2.2,0.1,2.8,1.8,3.2,3.3c1.5,0.2,2.8,0.4,4.5,0.7c-0.8,0.9-1.2,1.3-1.4,1.5c0.3,2.3,3.1,1.5,3.4,3.7
		c0.2,1.7,0.8,3.3,1.3,5.1c-1.5,0.6-2.9,0.9-4.4,0.6c-1.7-0.3-3.3-0.3-5.1-0.1c-2.3,0.3-4.9,1-7.2-0.6c-0.5,0.3-1.1,0.9-1.4,0.7
		c-1.7-0.8-3.4,0-5.1-0.1c-1,0-1.9-0.1-2.9-0.2c0-0.1,0-0.3,0-0.4c0.5-0.3,1.1-0.6,1.9-1c-6.1-0.9-6.1-0.9-7.2,0.2
		c0.7,0.4,1.4,0.7,2.1,1.1c-3.5,0.3-6.9,0.4-10.3,0.2c-2.2-0.1-4.3-0.6-6.6-0.5c-2.3,0-4.7,0.4-7,0.7c-1.5,0.2-2.1-0.8-3-1.7
		c-1-1,0.2-1.7,0.5-2.3c-2.1-1.7-4.3-0.4-6.6-0.3c1.5-2.4,2.8-4.5,4.5-7.1c-2.9,1.6-4.8,3.4-6.1,6c-0.6-9.5-1-19-1.2-28.4
		c-0.2-9.4-0.1-18.8-0.6-28.2c0.8,0.1,1.2,0.1,1.7,0.2c0.2-0.1,0.4-0.2,0.6-0.4c-3-1.5-2.7-3.8-2.1-6.2c0.1-0.2-0.1-0.6-0.1-0.8
		c-0.1-2.4-0.1-4.8-0.2-7.2c-0.1-2.6,0-5.3,0-7.9c0-1.8,0-3.5,0.5-5c1.5,1.5,3.1,2.8,4.3,4.4c1.4,1.8,2.6,3.1,5.1,2.7
		c1.1-0.1,1.8-0.2,2.1-1.2c0.3-0.8,0.5-1.8,0.6-2.7c0-1.4-0.1-2.8-0.2-4.2c-0.1-1.3,1.1-2.6,0.3-4c1.5-2-0.5-4.5,0.7-6.7
		c0.4-0.7,0.3-2.1,0.5-3.2c0.5-2.2,0.9-4.7-0.9-6.6c-1.3-1.4-2.5-2.9-3.4-4.7c-0.7-1.4-1.6-3.2-2.8-3.6c-2.5-1-2.8-3.9-4.9-5.4
		c-1.8-1.3-2.7-3.8-4-5.7c-0.5-0.7-1-1.4-1.6-1.9c-1.6-1.4-2.7-3.1-2.8-5.4c0-0.3-0.2-0.5-0.2-0.7c-0.9-0.3-1.7-0.5-2.4-0.7
		c-0.3-1.3-0.9-2.3-1.7-3.1c-1-1.2-2.5-2.1-3.1-3.5c-0.9-2-2.9-3.4-3-5.9c0-0.4-0.5-0.8-0.8-1.1c-1.2-1.5-2.4-2.9-3.6-4.3
		c-0.4-0.5-0.8-1.2-1.3-1.4c-1.8-0.5-2.9-1.8-3.4-3.7c-0.2,0.1-0.4,0.1-0.6,0.1c-0.2,1.2-0.3,2.5-0.5,3.7l0.1,0
		c-0.8,1.9,0.1,3.3,1.4,4.3c-1.8,3-2,2.2-0.8,5.9c0.2,0.7,0.5,1.9,0.1,2.2c-1.2,1,0.3,2-0.2,2.7c-0.7,0.9-1.4,1.7-2.1,2.5
		c0.1,0.1,0.2,0.2,0.3,0.2c0.6-0.2,1.2-0.4,2-0.8c0.2,4.5,0.5,8.8,0.7,13.1c-1.5,0.3-2.8,0.6-4.1,0.9c0,0.2,0,0.3,0.1,0.5l3.6,0
		c-0.4,0.5-0.6,0.7-0.7,0.8c0.4,1.1,1.2,2.2,0.9,3.1c-0.5,1.9-2.4,0.8-3.7,1.4c1.2,0.2,2.2,0.4,3.2,0.6c0.5,2.2,0.9,4.2,1.4,6.3
		c-0.7,0.2-1.2,0.3-1.9,0.5c0.8,0.8,1.4,1.5,2,2c-0.2,1.5-1,2.2-2.3,2c-0.1,0-0.1,0.2-0.2,0.4c0.7,0.3,1.3,0.5,2.2,0.8l-0.1,7.7
		c-0.8,0.1-1.5,0.2-2.6,0.4c3.1,1.5,3.6,2.5,2.9,5.7c-0.5,2.6-0.3,5.1,0.5,7.6c-0.6,0-1.1,0.1-1.5,0.1c0.3,1.3,0.7,2.5,0.9,3.7
		c0.2,1.2,0.4,2.4,0.5,3.7c-0.9,0.3-1.5,0.5-2.3,0.8c1.5,1.1,1.3,1.2,2,3.1c0.4,1.2,0.6,2.2-0.1,3.2c-0.6,0.9,0.8,2.3-0.7,3.1
		c0,0,0.1,0.8,0.3,0.9c0.8,0.4,0.6,1.1,0.5,1.7c-0.1,0.7-0.5,1.4-0.2,1.9c1.3,3,0.6,6.2,1,9.3c0.3,1.8,0.4,3.7-0.8,5.3
		c-0.2,0.3-0.2,0.9-0.1,1.4c0.3,1.3,0.7,2.6,1.1,4c-0.4,0.3-1,0.7-1.6,1.2c0.6,0.9,1.1,1.5,1.5,2.3c0.2,0.5,0.9,1.2-0.3,1.5
		c-0.2,0-0.3,0.7-0.2,1c0.2,1.8,0,3.8,0.6,5.5c0.6,1.8-0.4,3.5,0.2,5.2c-1.1,0.8-0.4,1.9-0.5,2.9c-0.1,1.7,1.2,3.2,0.4,4.9
		c1.4,2.5-0.7,4.1-1.3,6.2c1.5,1.1,1.8,1.6,1,3.1c-0.5,1-0.6,1.7,0.1,2.6c0.4,0.5,0.8,1.3,0.6,1.7c-0.2,0.6-1,0.9-1.7,1.4
		c2,1.5,1.7,3.8,0.7,5.3c-2.4,3.6-0.3,6.6,0.3,10.5c-0.2,0.6-1.6,1.8,0.2,3.1c0.2,0.1,0,0.8,0,1.3c-0.1,0.4-0.4,1-0.2,1.1
		c0.2,0.2,0.3,0.4,0.4,0.6c0.1,0,0.2-0.1,0.3-0.1c2.2-0.7,4.5-1,6.7-1.1c10-1.8,20.9-0.5,31.3,0.6c10-2.5,20.1-0.2,30.2,0
		C1081.5,566,1082.5,566.2,1083.4,566.4z M1093.6,534.9c-0.5-0.3-1.1-0.7-1.6-1c0.2-0.3,0.4-0.5,0.6-0.7c0.5,0.4,0.9,0.8,1.4,1.2
		C1093.9,534.6,1093.7,534.8,1093.6,534.9z M1038.3,549.7c-0.1,0-0.1,0.1-0.2,0.1c0,0,0,0,0-0.1c-1.1-1.8-1.1-2,0.6-2.5
		c0.5,1-0.1,1.7-0.6,2.5C1038.2,549.7,1038.3,549.7,1038.3,549.7c0.7-0.3,1.4-0.6,2.4-1C1040.2,550.9,1039.1,549.6,1038.3,549.7z"/>
	<path class="st0" d="M1253.3,684.8c-1.4-1.6-2.9-3.3-4.2-4.9c-0.9-1.1-1.7-2.3-2.5-3.5c-0.3-0.4-0.3-1-0.4-1.4
		c-0.2-0.8-0.4-1.5-0.7-2.4c0.3-0.3,0.7-0.8,1.5-1.6c-1.1-0.6-1.9-1.1-2.5-1.4c-1.1,0.6-1.9,1.1-2.8,1.6c0.3-0.4,0.5-0.8,0.8-1.1
		c-1.2-0.6-2.5-1.1-3.5-1.9c-1.8-1.4-3.8-2.7-3.6-5.5c0-0.6-0.7-1.2-1.1-1.7c-0.6-0.6-1.3-1.2-2.1-1.8c0.6-1,1.1-1.6,1.9-2.8
		c-1.6,0.5-2.6,0.8-3.4,1.1c-1.1-0.9-2-1.8-3.2-2.7c2.1-1,3.8,1.9,5.4-0.2c-2.2-0.6-4.1-2.1-6.5-0.9c-1.3-1.3-2.4-2.4-4-4
		c2-0.2,3.3-0.3,4.7-0.4c0-0.2,0-0.4,0-0.6c-2-0.5-3.9-0.9-5.8-1.4c-0.5-1.1-1.2-2-1.2-3c0-1.1,0.6-2.3,0.9-3.4
		c2.4-1.6,5.6-0.9,7.9-2.6c-1.4-2.5-1.4-2.5-3.7-1.2c-1.5-0.1-2.7-0.6-3.5-0.2c-2.1,1.1-3.8,0.7-5.7-0.3c-0.2-1-0.3-1.9-0.4-2.8
		c-1.5-0.4-2.7-0.8-4.5-1.4c1.1-0.7,1.8-1.2,2.5-1.6c-0.4-1.4-1.2-1.4-2.2-1.2c-1.4,0.3-2.6,0.1-3.1-1.6c-0.4-1.2-1.3-1.4-2.4-1.3
		c-0.9,0.1-1.8,0.1-2.6-0.2c-0.5-0.2-0.8-1-1.2-1.5c0.7-0.6,1.3-1.1,1.8-1.6c-0.1-0.2-0.2-0.3-0.2-0.5c-1,0.3-1.9,0.5-3,0.8
		c-12.3-14.4-24.7-28.7-36.5-43.4c2.4-1.9,2.4-1.9,1.9-3.8c-2,0.3-3.9-0.1-5.6-1.4c-1-0.7-1.7-0.4-2.4,0.2c-2.1,1.9-4.8,3.2-6,6
		c-0.3,0.6-1.1,1.1-1.8,1.5c-2,1.3-3.8,2.9-4.7,5.2c-0.3,0.7-0.9,1.3-1.4,1.9c-0.5,0.5-1.3,0.9-1.5,1.4c-1.4,3.9-4.7,6.3-7,9.5
		c-1.5,2-3.3,3.7-4.9,5.7c-2.8,3.4-5.5,6.8-8.3,10.1c-2.7,3.2-5.4,6.3-8.2,9.4c-1.7,1.9-3.5,3.7-5.3,5.5c-0.2,0.2-0.6,0.2-0.8,0.2
		c-1.6-0.2-2.1,0.7-2.5,2c-0.3,0.9-0.8,1.8-1.4,2.5c-1.1,1.4-2.9,2.4-3.5,3.9c-0.8,1.9-2,1.8-3.2,1.7c-0.2,2.5-0.6,4.7-2.6,6.4
		c-0.1-0.1-0.2-0.3-0.3-0.4c-0.2,0.3-0.5,0.7-0.8,1c-0.7,0.7-1.3,1.3-2,2l0.2,0.1c-0.1,2.5-2.2,3.7-3.9,5.2c-0.3-0.4-0.6-0.7-0.8-1
		c-0.7,0.6-1.3,1.3-2,1.9c0.5,0.3,1,0.6,1.5,1c-2,2.7-3.6,5.9-7.3,6.8c-0.4,2.5-7.1,11.5-10.7,14.4c-1.6-1.2-1.5-1.2-1.9-2.4
		c-0.2-0.7-0.7-1.4-1.2-1.9c-1.3-1.2-2.7-2.3-4-3.5c-0.2-0.2-0.4-0.8-0.3-1.1c0.4-1.1,0.2-2-0.4-2.7c-1.5-0.8-2.8-2.1-3.6-4.1
		c-0.2-0.3-0.3-0.7-0.3-1.1c-0.3,0.2-0.6,0.4-0.8,0.5c-1.3-0.3-0.4-2.7-2.4-2c0.2-1.3-0.8-1.8-1.8-2.1c0-1.2,0.9-2.1-0.2-3.2
		c-0.7-0.7-0.3-1.3,0.3-1.7c0.1-0.9,0.4-1.8,1-2.5c-0.8,0.5-1.7,0.3-2.7-0.5c1.3-0.2,2.5-0.4,3.8-0.6c-0.1,0.1-0.1,0.2-0.2,0.3
		c0.8-0.6,1.9-1,3.1-0.9c1-1.4,2.6-2.1,4.8-1.3c1.3,0.5,2.5,0.9,3.7,1.3c3.2-0.1,6.4,0,9.7,0c0.4-0.2,0.9-0.6,1.3-1.2
		c0.4-0.5,1.1-0.8,1.7-1.1c0.1-0.1,0.4,0.1,0.5,0.1c0,0.1,0.1,0.3,0.1,0.4c0.1-0.1,0.1-0.3,0.2-0.5c0.4-0.8,1-1.4,1.8-1.9
		c2-4.5,5.4-8.1,8.3-9c0.8-1.2,1.6-1.9,1.6-2.6c0.2-3.5,2.9-5.3,5-7.5c1.3-1.3,2.1-3.5,4.4-3.6c-0.5-2.7,2.1-3.7,3.3-5.3
		c3.8-4.7,8.1-9,12.2-13.4c0.6-0.7,1.5-1.1,2.1-1.9c1.9-2.4,3.5-5,5.6-7.2c3-3.3,6.8-5.7,9.1-9.7c0.2-0.3,0.6-0.5,1-0.7
		c1.3-0.5,1.9-1.2,2-2.7c0-0.6,0.6-1.2,1.1-1.7c0.7-0.9,1.4-1.6,2.2-2.6c-1.2-1.1-2.2-2-3.4-3.2c0.7-0.5,1.3-0.9,1.7-1.4
		c0.1-0.2,0.3-0.4,0.4-0.5c-0.4-0.1-0.8-0.2-1.1-0.4c-0.9,1.2-2,2-3.3,2.5c-1.1,0.4-2.4,0.5-3.7,0.3c-1.3-0.3-2.7-0.2-4.1-0.3
		l-85.4,0c-1.6,0.1-3.1,0.1-4.7,0.1c-5.6,0-11.3,0.2-16.9-0.1l-11.9,0l-2.2,0l-5.2-0.5l-4.5,1.9c-1.1,1.3-2.1,2.7-3.1,4l0.1-0.1
		c-1.1,1.6-2.1,3.1-3.2,4.7c-2.3,3.2-4.6,6.5-6.9,9.7c-1.8,2.6-3.7,5.2-5.5,7.8c-5,7.2-10.1,14.5-15.1,21.6
		c-4.1,5.9-8.4,11.7-12.6,17.6c-3,4.2-5.9,8.6-8.9,12.8c-3.3,4.6-6.7,9.2-10.1,13.7c-1.9,2.7-3.6,5.6-5.8,8c-2.7,2.9-2.9,6.1-3,9.8
		c3.4-0.1,6.8,0,10.2,0.1c0-0.1-0.1-0.2-0.1-0.2l2-0.6c0,0.1,0.1,0.2,0.1,0.4c-0.4,0.2-0.9,0.3-1.3,0.5c5.1,0.2,10,0.5,14.5,0.8
		c1.5-2.1,3-4.2,5-5.8c1.6-1.3,2.6-3.2,3.8-4.8c0.1-0.1,0-0.2,0-0.3c-1.3-1.6,0.3-2.4,1-3.2c1.7-1.8,3.2-3.8,4.3-6
		c0.7-1.5,2.1-2.6,3.2-3.9c0.8-1,2.3-1.8,2.4-2.9c0.4-3.3,2.8-4.8,4.9-6.8c0.6-0.6,1.2-1.3,1.4-2.1c0.3-1.1,0.6-2.1,1.9-2.4
		c0.3-0.1,0.8-0.6,0.7-0.8c-0.1-1.2,0.7-1.7,1.4-2.4c1.2-1.3,2.6-2.8,3.2-4.4c1-2.8,3.2-4.4,4.9-6.5c0.1,0,0.1,0.1,0.2,0.1
		c0.1-0.2,0.2-0.4,0.4-0.6c0.1-0.1,0.2-0.3,0.3-0.4c-0.1-0.1-0.2-0.2-0.2-0.3c1.2-1.5,2.4-2.9,3.7-4.4c0.1-0.3,0.2-0.6,0.3-1
		c0.3-1.9,1.4-2.9,2.7-3.3c0-0.6,0.3-1.1,1-1.4l0.2,0.2c0.8-1.4,1.8-2.7,3.2-3.8c0.2-1.7,1.3-3.1,2.8-3.7c0.6-1.2,1.4-2.2,2.2-3.4
		c0.4-0.6,1-1.1,1.6-1.5c0.5-0.6,1-1.2,1.6-1.8c0.2-0.3,0.6-0.5,0.9-0.7c0.9-1.3,2.3-2.2,3.9-2.1c1.6,0.1,3.1,0.4,4.5,0.8
		c-0.2-0.2-0.3-0.4-0.5-0.6c2.6-0.1,4.9-0.2,7.3-0.3c-0.2,0.3-0.5,0.8-0.8,1.2c2,0.9,1.5-1.1,2.4-2.2c1,0.9,2,1.7,3.3,2.9
		c0.9-0.2,2.7-0.2,3.4-1c0.7-0.8,1.5-0.9,2.2-1.4c1.6-1,2.3-0.3,3.3,0.7c-0.9-1.6,0-1.8,2-1.8c-0.8,0.9-1.3,1.4-1.7,1.9
		c1.6-0.7,3.2-1.5,4.9-2.2c0.5,1,0.8,1.6,1.1,2.2c0.3-0.1,0.7-0.1,0.8-0.3c1.1-1.3,2.2,0,3.3,0c2-0.1,4-0.1,5.9-0.3
		c0.6,0,1.2-0.3,1.7-0.6c0.7-0.5,1.4-0.7,2.2,0c0.3,0.3,0.9,0.3,1.3,0.2c0.6-0.1,3.2-0.1,3.8,0c2.5,0.2,5.1,0.2,7.6,0.4
		c1.8,0.1,3.5,0.3,5.3,0.3c3.5-0.1,9.5-2,9.2,2.3c-0.1,2.1-8,9.6-9.6,10.3c0.9-1.1,1.5-2.6,2.3-3.7c-4.8,3.3-8.9,7.6-14.3,10.2
		c-9.6,4.7-22.4,2.1-32.6,0.7c-3.9-0.5-8,0.6-12,0.6c-2.2,0-10.1-1.9-11.8-0.8c-0.4,0.3-0.8,0.5-1.3,0.7c-2.2,0.8-2.7,4.1-3,6.7
		c0.6,0.5,1.6,1,1.9,1.5c0.1,0.1,0.2,0.3,0.3,0.5c0.2-0.6,0.3-1.2,0.5-1.8c1.4,2.2,2.7,5.4,2.8,7.1c0,0.1,0,0.3,0,0.4
		c0.2,0.2,0.4,0.5,0.6,0.7c0.3,0.4,0.6,0.8,1,1.2c0.2,0,0.3,0.1,0.5,0.1c0.7,0.1,1.6,0.9,1.9,1.6c0.4,0.7,0.5,1.6,0.7,2.5
		c0.5,0.7,1.1,1.4,1.6,2.1c0.5-0.2,0.9-0.4,1.4-0.5c2.2,1.9,2.8,2.8,2.5,4.5c2.3,1.9,4.2,4.1,5.7,6.6c1,1.6,1.8,3.3,2.9,4.6
		c0.2-0.4,0.4-0.8,0.7-1.1c1,1.3,1.4,2,1.2,2.8c3.6,2.3,7.6,4.7,9.4,8.8c0.2,0.6,0.4,1.1,0.4,1.7c1.1,1.4,2.2,2.9,3,4.5
		c1,1.9,1.2,4.2,3.6,5.1c0.2,0.1,0.3,0.2,0.5,0.4c9.7,0,19.5,0.2,29.2,0.4c11.7-4.6,27.1-0.7,39.5-0.4c1.2,0,2.4,0.2,3.4,0.5
		c1.3-1,2.7-1.7,4.5-2.2c0.3-0.1,0.7-0.1,1-0.2h0c0.4-0.1,0.7-0.1,1.1-0.2c1.5-0.5,3-0.8,4.7-0.8c1.3,0.2,2.6,0.3,3.9,0.5
		c1.2,0.3,2.2,0.8,3.3,1.4h26c2.1,0,4.1,0.5,5.9,1.4c9.8-2,19.7-1.5,30.1-1.4c0.7,0,1.4,0.1,2,0.2c1.3,0,2.6,0.1,3.8,0.4
		c0.3,0.1,0.6,0.1,0.9,0.2c0.4,0,0.8,0,1.2,0.1c2.2-1.7,5.1-2.7,8.6-2.7c2.7,0,4.9,0.6,6.8,1.7c3.4-0.9,7-0.7,10.1,0.7
		c8.6-0.8,17.3-0.9,26.1-0.7C1253.7,685.3,1253.5,685.1,1253.3,684.8z M1027,606.3c-0.4-0.1-0.8-0.1-1.2-0.2
		c0.2-0.2,0.5-0.4,0.7-0.5c0.1-0.1,0.3,0.1,0.5,0.2C1027,606,1027,606.2,1027,606.3z M1066.5,604.5c0-0.2,0-0.4,0-0.6l2.2,0
		C1067.7,604.2,1067.1,604.3,1066.5,604.5z M1029.8,629.5c-0.3-0.1-0.5-0.5-0.5-0.8c0-0.1,0.4-0.5,0.5-0.5c0.3,0.1,0.6,0.3,1.1,0.7
		C1030.3,629.2,1030,629.6,1029.8,629.5z M1041.3,640.1c-1.2,2.5,0.6,3.4,2.4,4.7c-0.7,0.3-1.3,0.7-1.4,0.6c-1.5-1.5-3-3.1-4.7-4.8
		c0.9-0.4,1.5-0.6,2.1-0.9l0-2.6c-0.3,0-0.6,0-0.7,0.1c-2.9,2.1-3.5,1.9-4.8-1.3c-0.4-1.1,0-1.8,0.7-2.3c0.8-0.5,1.7-0.4,2,0.5
		c0.6,1.6,1.9,1.9,3.4,1.9c0.3,0,0.7,0,0.9,0.1c2,1.5,3.6,3.3,5.4,5.3C1043.3,642.7,1043.1,642.6,1041.3,640.1z M1048.5,653.1
		c-0.5-0.2-1-0.5-1.5-0.8l0.2-0.4c0.5,0.3,1,0.5,1.5,0.8C1048.6,652.8,1048.5,652.9,1048.5,653.1z M1162.7,577.5
		c0,0.1,0,0.2,0.1,0.4c-0.4,0.1-0.9,0.2-1.3,0.3c0-0.2,0-0.5,0-0.7L1162.7,577.5z M1181,660.6c0.2,1.8,1.7,2.7,0.4,4.1
		c-0.8,0.9-1.4,1.7-2.6,1.7c-2.5,0-5,0.2-7.5,0.1c-4.4-0.1-8.8-0.4-13.2-0.6c-3.9-0.2-7.8-0.4-11.7-0.5c-1,0-2,0.1-3,0.2
		c-0.9,0-1.9,0-2.9,0c0.7-2.2,2.4-0.6,3.5-1.5c0.2-1.1-0.5-1.8-1.5-1.4c-1.8,0.8-4,0.5-5.5,2.1c-0.7,0.7-1.8,1.5-2.7,0
		c-0.1-0.2-0.6-0.2-0.8-0.1c-4,1.7-8.2,0.5-12.2,1c-0.8,0.1-1.6,0.2-2.4,0.2c-0.9,0-1.9-0.1-2.8-0.1c0-0.3,0-0.5-0.1-0.8
		c0.9-0.2,1.8-0.4,3.1-0.7c-0.7-0.6-1.2-1.1-2-1.9c2.8,0.3,2.9-2.9,5.3-3.2c1.6,1.4,3,3.6,5.7,2.5c-0.2-0.2-0.4-0.6-0.6-0.6
		c-2.5-0.4-3.6-2.7-5.3-3.9c0.6-2.7,3-2,4.6-2.9c-0.2-0.5-0.5-1.1-0.7-1.7c3-2.5,4.7-6.5,8.7-8.1c0-0.7-0.1-1.5-0.2-2.4
		c1.8-1.1,3.8-2.1,5.2-3.6c1.2-1.3,1.7-3.3,2.8-5.3c0.7,0.1,1.8,0.2,3.3,0.4c-0.4-0.8-0.8-1.4-1.2-2.2c0.8-1.2,3.1-2,1.7-4.2
		c1.4-1.3,3.6-1.5,3.8-3.9c0-0.6,1.1-1,1.7-1.6c0.8-0.8,2-1.2,1.9-2.8c-0.1-0.7,1.4-1.4,2.3-2.3c3.4,3.3,7.4,5.8,9.2,10.3
		c0.2,0.5,0,1.1,0,1.8c1.5-0.6,2.5,0.8,3.7,1.9c3.4,3.2,6.2,6.9,9,10.6c1.1,1.5,2.8,2.9,2.5,5.2c0,0.1,0.3,0.2,0.4,0.3
		c1,0.8,2.2,1.4,2.9,2.4c0.9,1.4,1.9,2.7,3.2,3.8c0.4,0.4,1.5,0.9,0.8,2c0,0.1,0.3,0.5,0.5,0.7c1.2,1,2.5,1.9,3.6,3
		c0.6,0.7,0.9,1.7,1.4,2.5c0.4,0.7,1,1.4,1.7,2.3c-2.5,1-5,0.1-7.7,0.9c0.3-0.8,0.5-1.2,0.8-1.8c-1.3,0.1-2.6,0.2-4,0.4
		C1183.2,662.3,1182.3,661.6,1181,660.6z M1185.3,665.9c3.7-1.4,7-0.9,10.3-0.6c0,0.2,0,0.4,0,0.7L1185.3,665.9z M1210.7,635.2
		c0.4-0.9,1.9-0.8,3.8,0.3c-0.9,0.4-1.7,0.8-2.8,1.2C1211.5,636.4,1211,635.8,1210.7,635.2z M1218.9,640.1c-1.8,0.6-3.2-0.1-4.4-1.3
		c0.1-0.2,0.1-0.4,0.2-0.6c1.5,0.3,3,0.7,4.4,1C1219,639.5,1219,639.8,1218.9,640.1z"/>
	<path class="st0" d="M978.7,574.8c-0.5-0.4-1.1-0.7-1.6-1c-0.4,0.3-0.7,0.6-1.3,1.2c0.3-1.3,0.4-2,0.6-3c-2.3,3-6,0.6-8.5,2.6
		c-0.1,0.1-0.5,0-0.6-0.2c-0.6-0.8-1.2-0.4-2.1-0.2c-1.9,0.3-3.8,0.2-5.8,0.3c-4.1,0.1-8.1,0.1-12.2,0.1c-3.4,0-6.8,0-10.2,0.1
		c-2.7,0.1-5.3-1.3-8,0c-0.3,0.1-0.8-0.1-1.1-0.3c-0.6-0.6-1.1-0.6-1.8-0.1c-0.5,0.3-1.3,0.3-2,0.2c-4.4,0-8.8,0-13.2,0
		c-1.7,0-3.4,0-5.1-0.1c-0.5,0-1.2-0.2-1.6-0.6c-1-1-2-0.8-3-0.3c-1.6,0.8-3.3,0.7-5,0.8c-3.6,0.1-7.2-0.5-10.8-0.1
		c-2.7,0.3-5.4,0.1-8.1,0.1c-1,0-1.9,0-2.8,0.1c-2.2,0.4-3.1-0.7-2.7-3.1c-0.3-0.2-0.8-0.5-0.9-0.4c-1,0.7-1.8,1.5-2.8,2.3
		c0.5,0.3,0.8,0.5,1.8,1.1c-4.3,0-8-0.3-11.6,0c-2.5,0.2-4.8-0.8-7.2-0.9c-1.7-0.1-3.4-0.6-5-0.2c-1.8,0.5-3.5,0.9-5.1-0.2
		c-1,0.7-2,1.4-2.9,2.1c0.4,0.5,0.7,0.8,1.4,1.6c-1.3,0.3-2.3,0.4-3.2,0.6c-1.9,0.4-3-1.3-3.9-1.8c-1.6,0.4-2.7,0.8-3.8,0.9
		c-1.5,0.1-2.4,0.7-2.4,2.5c1.1,0.2,2,0.5,3.3,0.8c-0.9,0.4-1.4,0.8-2,0.8c-1.8-0.1-2.7,1.5-2.9,2.4c-0.6,2.6-2.4,4.1-4,5.9
		c-1.1,1.3-2.4,2.4-3.5,3.7c-3.7,4.5-7.4,9.1-11.1,13.7c-0.2,0.2-0.2,0.7-0.4,1.1c0.5,0.1,0.9,0.3,1,0.2c3-1.9,5.8-4.2,8.1-6.9
		c0.3-0.3,0.3-1,0.1-1.4c-0.4-1.4,0.5-1.9,1.5-2.1c0.7-0.2,1.6,0,2.1,0c1.2-2.4,2-4.8,3.4-6.7c1.6-2.1,3.8-3.8,5.5-5.8
		c1.4-1.6,2.9-2.3,5.1-1.6c-0.8,1.2-1.5,2.5-2.4,3.5c-1.7,2-3.6,3.8-5.1,6.1c-2.2,3.4-5.1,6.4-7.6,9.6c-1.3,1.7-2.7,3.3-3.9,5.1
		c-1.5,2.4-2.5,5.3-5.5,6.5c-0.2,0.1-0.2,0.5-0.3,0.8c-0.7,1.2-1.4,2.4-2.3,3.5c-3.3,4.4-6.7,8.7-10.1,13c-0.8,1-2,1.8-3.1,2.8
		c0.6,0.9,0,1.7-1.1,2.3c-1.2,0.6-2.2,1.4-2.4,2.9c-0.1,0.6-0.7,1.2-1.1,1.7c-1.4,1.8-2.9,3.6-4.3,5.4c-3.5,4.6-7,9.3-10.5,13.9
		c-2.4,3.1-4.8,6.1-7.2,9.2c-1.6,2-3.1,4.1-4.7,6.1c-2,2.5-4,4.9-5.9,7.5c-0.4,0.5-0.7,0.9-1.1,1.2c0,1,0.1,2.1,0.2,3.1
		c0.2,0,0.4,0.1,0.6,0.1c1-0.3,2.1-0.6,3.1-1c2.6-0.9,5-0.8,7.3-0.2c10.2-2.4,21.5-2,32.3-1.3c1.1-0.9,2-1.2,3.1,0
		c-0.1,0.1-0.2,0.1-0.2,0.2c1.1,0.1,2.3,0.1,3.4,0.2c0,0,0,0,0,0c0.4-0.2,0.8-0.5,1.1-0.7c0.1,0.2,0.2,0.4,0.3,0.6
		c-0.2,0.1-0.3,0.1-0.5,0.2c3.2,0.2,6.3,0.4,9.2,0.4c-0.3-0.3-0.6-0.7-1.1-1.2c4.4-0.4,8.1-0.2,12.3,0.1c-0.6,0.7-1.1,1-1.7,1.1
		c2.7,0,5.3-0.1,8-0.1c1.2-1.4,2-1.5,3.7-1.1c-0.2,0.3-0.5,0.7-0.7,1c4.7-0.1,9.3-0.2,14-0.3c-0.1-0.1-0.2-0.1-0.3-0.2
		c0.7-0.1,1.4-0.1,2-0.2c0,0.1,0.1,0.3,0.1,0.4c7.5-0.2,15-0.4,22.5-0.5v0h0.1c8.1-0.1,16.2-0.2,24.4,0.1c0.1-0.1,0.2-0.2,0.4-0.3
		c0,0.1,0.1,0.2,0.1,0.3c0.5,0,1,0,1.6,0c0.8,0,1.6,0.1,2.3,0.2c0-0.1,0.1-0.1,0.1-0.2c0.9-3.2,3.1-5.6,4.9-8.1
		c2.2-3,4.2-6.1,6.6-8.9c1.7-2,3.4-3.9,4.6-6.3c1-2,2.5-3.9,3.9-5.7c1.9-2.5,2.8-5.8,6.1-7.2c0.3-0.1,0.3-0.9,0.4-1.4
		c0.2-0.6,0.2-1.3,0.6-1.6c2.5-2.8,4.4-6.1,6.6-9.2c3.1-4.5,6.3-9,9.6-13.3c2.9-3.8,4.9-8.3,9-11.1c0.4-0.3,0.8-0.9,0.7-1.3
		c-0.3-1.6,0.9-2.3,1.7-3.3c1.4-1.8,3-3.4,4.2-5.3c2.6-3.8,4.9-7.7,7.5-11.4c1.2-1.7,2.6-3.3,3.8-5c1.2-1.6,2-3.8,3.6-4.7
		c1.9-1.1,2.5-3.2,4.5-4.1c0.2-0.1,0.3-0.7,0.4-1.1C979.6,575.5,979.2,575.1,978.7,574.8z M928.4,604.7c-0.9,1-1.3,2.4-2.1,3.5
		c-3.3,4.5-6.6,8.9-9.9,13.4c-2.1,2.8-4,5.7-6.1,8.5c-0.4,0.5-1,0.9-1.5,1.4c-0.5,0.5-1.1,0.9-1.5,1.5c-2.1,3.2-4,6.6-6.1,9.8
		c-1.8,2.6-3.9,5-5.7,7.6c-1.3,1.9-2.4,3.9-3.6,5.8c-1.2,1.9-2.7,3.1-4.8,4.1c-5.1,2.4-10.3,1-15.5,1.4c-2.6,0.2-5.2,0-7.7,0
		c-0.3-0.6-0.5-1-0.8-1.5c-0.3,0.1-0.6,0.2-0.8,0.2c-1.1,0.4-2.2,1.1-3.3,1.1c-7.7,0.2-15.4,0.2-23.1,0.3c-4.9,0-9.8-0.1-14.7,0
		c-1.8,0-3.4-0.1-4.2-1.8c-1.5,0.3-2.8,0.5-4.4,0.9c3.5-6.9,6.6-13.5,11.6-18.7c1.2-1.2,2.4-2.5,3.2-3.9c0.9-1.4,2-2.4,4-2.1
		c-0.1-0.9-0.1-1.6-0.2-2.4c1.1-0.4,1.8-1,2.3-2.3c0.6-1.6,2.1-2.9,3.2-4.3c1.1-1.4,2.3-2.7,3.5-3.9c1.1-1.1,2.4-2,3.6-3
		c0.8-0.6,1.5-1.2,2.5-1.9c-0.6-0.7-1-1.2-1.5-1.8c4.1-3,6.7-7.1,9.9-10.7c1.2-1.4,2.6-2.5,4.3-3.2c1.4-0.6,2.7-0.8,3.5,0.6
		c2.7-0.9,5.2-1.8,7.9-2.7c2.4,0.8,5,2.4,8,2c0.1-0.2,0.1-0.5,0.2-0.7c-0.8-0.3-1.5-0.5-2.3-0.8c1.1-1.2,1.1-1.2,6.3-0.1
		c-0.2,0.2-0.3,0.4-0.5,0.5c-0.2,0.1-0.5,0.3-1.4,0.7c2.6,0.2,4.4,0,6.3-0.3c1.9-0.2,3.8-0.5,5.8-0.3c2.1,0.2,5,0.3,6.5-3.1
		c0.5,2.5,2.1,2.4,3.7,2.5c2.4,0.1,4.8,0.1,7.1,0.4c0.8,0.1,1.4,0.8,2.3,1.3c1-1,2-2,3.3-3.2c0.4,0.1,1.4,0,1.9,0.5
		c1.7,1.5,3.5,1,5.3,0.4c1.2-0.4,2.3-0.6,2.6,1.1c2.1-0.2,4.1-0.4,6.1-0.6c0.1,0.2,0.1,0.4,0.1,0.5
		C930.7,602.6,929.4,603.5,928.4,604.7z"/>
	<g>
		<g>
			<path class="st0" d="M953.2,565h44.1c0.1-2.3,0.2-4.5,0.4-6.8c0.1-1.3,0.6-2.5,0.9-3.7c1.7,0.2,1.2-1.9,2.5-2.4l3,0.1
				c-2-2.2-4.1-2.9-6.6-2.9c0.1-1.7-0.4-3.5,1.9-4.1c0.8,0.5,1.5,1.1,2.3,1.6l0.4-0.4c-1-1.2-2-2.4-2.8-3.4c0.9-1.1,1.6-2,2.4-2.9
				c-1.2,0.4-2.4,0.7-3.8,1.1l0.3-12.8c0.7-0.2,1.5-0.4,2.3-0.6c-0.3-1.6-0.6-2.9-0.8-4.2c1-0.6,1.8-1.1,2.6-1.6
				c-0.1-0.1-0.1-0.2-0.2-0.4c-1.2,0.4-2.4,0.7-3.8,1.1c-0.4-2.2,0.9-3.8,1.8-5.5c-0.6-0.3-1.5-0.4-1.6-0.8
				c-0.7-2.9,0.2-5.7,1.2-8.4c-0.6-0.4-1.4-0.9-1.4-1.1c0.2-0.8,0.7-1.5,1.2-2.2c-1.3-2-1.3-3.6,0.1-5.4c-0.2-0.5-0.6-1-0.6-1.4
				c0.1-2.4,0.9-4.8,0.6-7.2c-0.2-1.9-0.6-3.6-0.7-5.5c-0.3-7.8,0.5-15.5,0.6-23.3c0-1.2-0.2-2.4-0.3-3.8c0.8,0.3,1.2,0.5,2.1,1
				c-0.8-1.3-1.7-2.1-1.8-2.9c-0.2-1.9,0-3.8,0.1-5.6c0.2-2.8,0.5-5.5,0.8-8.4c0.3-0.2,0.8-0.5,1.3-0.7c-0.4-0.9-0.9-1.6-1.1-2.5
				c-0.4-1.9-0.7-3.8-0.8-5.8c-0.1-3.8,0-7.5,0.1-11.3c0-1.7-0.5-3.7,1.1-4.7c-0.5-0.7-1.1-1.1-1.1-1.6c0-2.6-0.7-5.4,1.2-7.9
				c-1.5-1.5-1.4-3.5-1-5.3c0.5-2.4-0.5-4.9,0.7-7.3c0.3-0.5-0.3-1.4-0.4-2.3c1.9-1.7,1.9-1.7,0.1-4c-2,1.7-4,3.6-6.1,5.2
				c-2.9,2.2-4.7,5.5-7.3,7.9c-0.9,0.9-1.7,1.9-2.5,2.9c-1,1.2-2.5,2.2-2.9,3.6c-0.5,2.1-1.6,3.1-3.3,3.3c-0.5,1.2-0.7,2.7-1.5,3
				c-2.6,1.2-3.4,3.3-3.6,5.2c-1.5,1.5-2.7,2.6-3.6,3.8c-1.2,1.5-1.9,3.7-3.4,4.7c-2,1.4-3.6,2.9-4.6,5.1c-0.1,0.1-0.3,0.2-0.4,0.4
				c-0.4-0.2-0.9-0.4-1.3-0.6c-0.2,0.3-0.6,0.5-0.6,0.7c0.1,2-1.1,3.3-2.5,4.5c-0.5,0.4-0.9,1-1.4,1.6c-2.3,3.2-4.5,6.3-6.7,9.5
				c-0.6,0.8-1.2,1.5-1.9,2.2c-0.8,0.9-1.8,1.6-2.5,2.5c-1.4,2.2-2.4,4.8-4.2,6.6c-1.9,1.9-2.2,4.4-3.9,6.4
				c-1.5,1.8-2.7,3.9-4.5,5.5c-1.1,1-1.1,2-0.9,3.2c0,0,0.1,0,0.1,0c0,0,0,0,0.1,0c0.5-0.2,0.9-0.4,1.7-0.7
				c-0.7,1.3-0.8,1.3-1.7,0.7c0,0-0.1,0-0.1,0.1c0,0,0-0.1,0-0.1c-0.6,0-1.3-0.2-1.6,0.1c-2.2,2.1-4.6,4.2-6.3,6.7
				c-1.7,2.4-2.9,5.3-5.7,6.9c-0.3,0.2-0.4,0.7-0.7,1c-0.7,0.9-1.6,1.8-2.2,2.8c-1.4,2.3-4.2,3.4-5,6.3c-0.1,0.4-0.7,0.7-1,1
				c-1.9,1.8-4,3.3-5.6,5.3c-1.4,1.7-1.6,4.2-4.3,4.7c-0.1,0-0.1,0.2-0.1,0.3c-1.4,2.5-3.3,4.4-5.9,5.8c-0.2,0.1-0.6,0.3-0.6,0.5
				c0,1.9-2,2-2.9,3.1c0.4,0.7,0.7,1.4,1,1.8c-1.4,0.5-3,0.7-3.9,1.5c-2.5,2.3-4.8,4.8-7.2,7.3c-0.2,0.5-0.4,0.9-0.6,1.4
				c0.1,0.4,0.2,0.9,0.3,1.4c-0.3,0.1-0.5,0.1-0.8,0.2c-0.1,0.2-0.1,0.4-0.2,0.6c-0.1,0.2-0.1,0.4-0.2,0.5c2.6,0.1,5.1,1.1,7.6,1.4
				c2,0.2,4.2-0.3,6.2,0.9c0,0,0.1,0,0.1,0c-1.4-5,6.1-8.7,8.8-3.6c0.7,1.4,1.6,2.7,2.6,3.9c0.6,0.1,1.2,0.1,1.9,0.2
				c0.4,0,0.7,0.3,1.1,0.5c-0.2,0.6-0.3,1.2-0.6,2.2c0.1,0,0.1,0.1,0.1,0.1c1.4-1.4,2.6-2.2,4.3-2c0.4,0.1,1-0.5,1.4-0.9
				c1.5-1.8,2.9-3.5,4.3-5.3c2.2-2.7,4.4-5.4,6.6-8.1c1.6-1.9,3.2-3.8,4.7-5.8c1.7-2.2,3.2-4.5,4.9-6.7c4.9-6.3,9.9-12.5,14.9-18.7
				c6-7.5,12-15,18-22.4c1.3-1.6,2.9-3,4.2-4.6c2.1-2.7,4.1-5.6,6.2-8.3c0-0.1,0-0.1,0-0.1c0,0,0.1,0,0.1,0c0.2-0.4,0.5-0.7,1-1.3
				c0.1,1.5,0.1,1.6-1,1.3c0,0,0,0,0,0.1c0,0,0,0,0,0c0.2,1,0.4,2.1,0.7,3.1c0.3,1.1,0.2,2.5,0.9,3.3c1.1,1.3,0,2.3,0,3.4
				c0,4.2-0.3,8.3-0.6,12.5c-0.1,1.6-0.6,3.1-0.6,4.7c0,2.6,0.4,5.2,0.3,7.7c-0.1,3.5-0.3,7,0.4,10.4c0.2,1,0.5,2.4,0,3.2
				c-1.3,2.1-0.7,4,0.1,6c0.2,0.4,0.3,1,0.2,1.5c-0.2,2.3-0.5,4.7-0.8,7c-0.7,0-1.1,0.1-2,0.1c-0.1,3.1,0.1,6.2-0.5,9.2
				c-0.7,3-0.2,6.1-0.9,9.1c-2.5-0.9-2.5-0.9-4.2,0.3c1.4,0.4,2.7,0.8,4.1,1.2c-0.4,0.5-0.9,0.9-1,1.4c0,0.6,0.4,1.2,0.7,2
				c-0.9,0.1-1.4,0.2-2,0.2c-5.9-0.1-11.8-0.3-17.6-0.4c-5.3-0.1-10.6-0.2-15.8-0.4c-2.7-0.1-5.4-0.3-8.1-0.4
				c-3.2,0-6.4,0.2-9.5,0.2c-1.3,0-2.6-0.6-4-0.9c-2.2,1.2-4.8,0.6-7.4,0.5c2.2,2.2,4.5,4.2,6.7,6.3c4.5,4.3-2.5,10.8-7,6.6
				c-2.5-2.4-5.1-4.8-7.5-7.2c-1.7,1.9-3.7,3.3-5.5,4.9c-0.3,0.3-0.9,0.7-0.9,1.1c-0.2,1.6-1.3,2.4-2.5,3.1c-0.4,0.2-0.8,0.6-1,1
				c-1.1,2-2.2,3.9-3.2,5.9c-0.1,0.2-0.2,0.3-0.3,0.5c0.8,0,1.6-0.1,2.5-0.1c0.6-0.1,1.2-0.2,1.8-0.2c8.5-0.1,16.9-0.9,25.3-1
				c0.3,0,0.5,0,0.8,0.1c0.4,0,0.7-0.1,1.1-0.1h30.2C949.9,564.1,951.6,564.4,953.2,565z M1000.3,550.4c0.1,0.2,0.2,0.4,0.3,0.5
				c-0.6,0.3-1.3,0.7-1.9,1c-0.1-0.2-0.3-0.4-0.4-0.6C998.9,551,999.6,550.7,1000.3,550.4z M888.6,530.8c-0.4,0-0.7-0.2-1.1-0.4
				c0.2-0.2,0.4-0.4,0.5-0.6c0.3,0.1,0.6,0.2,1,0.4C888.8,530.4,888.7,530.8,888.6,530.8z M893.9,524.5c0.6-3.5,1.4-4.4,5.3-6.4
				C897.5,520.1,895.9,522.1,893.9,524.5z M901.3,515.1c-0.2-0.1-0.4-0.3-0.6-0.4c0.5-0.7,0.9-1.4,1.4-2.2c0.3,0.2,0.5,0.3,0.8,0.5
				L901.3,515.1z M907.2,507.8c-0.1,0.1-0.3,0.1-1.2,0.1c0.8-0.9,1.3-1.4,1.8-2c0.2,0.2,0.3,0.3,0.5,0.5
				C907.9,506.9,907.6,507.4,907.2,507.8z M913.5,500.5C913.5,500.5,913.4,500.5,913.5,500.5c-0.8,0.7-1.6,1.4-2.3,2
				C911.3,500.9,911.3,500.9,913.5,500.5C913.4,500.5,913.4,500.5,913.5,500.5C913.5,500.5,913.5,500.4,913.5,500.5
				c-0.6-1.8,0.5-2.6,1.9-3.1C914.8,498.4,914.1,499.4,913.5,500.5C913.5,500.4,913.5,500.5,913.5,500.5z M918.5,493.2
				c-0.2,0-0.5-0.4-0.5-0.6c0-0.2,0.3-0.4,0.6-0.7c0.2,0.3,0.5,0.6,0.5,0.7C919,492.9,918.7,493.2,918.5,493.2z M974.9,523
				c0.3,0,0.6,0.1,0.9,0.1c-0.2,1.6-0.4,3.2-0.6,4.7c-0.2,0-0.4,0-0.7-0.1C974.1,526.1,974.6,524.5,974.9,523z M974.9,530.4
				c0,0.6-0.1,1.2-0.1,1.7c-0.1,0-0.2,0-0.3,0c-0.1-0.6-0.2-1.2-0.2-1.8C974.4,530.4,974.7,530.4,974.9,530.4z"/>
			<path class="st0" d="M885.6,534c-0.1,0-0.3-0.4-0.3-0.4c0.2-0.2,0.4-0.3,0.6-0.5c0.1,0.2,0.2,0.3,0.3,0.6
				C886,533.8,885.8,533.9,885.6,534z"/>
			<path class="st0" d="M935.7,471.8c0-0.3,0-0.5,0.1-0.8c0-0.1,0.3-0.1,0.5-0.2c0.1,0.1,0.2,0.2,0.2,0.3
				C936.2,471.3,936,471.5,935.7,471.8z"/>
			<path class="st0" d="M943.1,462.3c-0.1-0.1-0.2-0.2-0.3-0.2c0.2-0.3,0.5-0.6,0.7-0.9c0.1,0.1,0.2,0.2,0.3,0.3
				C943.6,461.8,943.4,462,943.1,462.3z"/>
			<path class="st0" d="M975.2,538.5c-0.2,0.3-0.3,0.6-0.5,0.8c0,0-0.2-0.1-0.2-0.1c0.1-0.3,0.2-0.6,0.3-0.9
				C975,538.3,975.1,538.4,975.2,538.5z"/>
			<path class="st0" d="M973.4,400.6c-2.1-0.1-3-0.9-2.3-2.6c1.3-3.1,0.7-6.3,0.8-9.5c0.2-4.9,0.9-9.7,2.5-14.4
				c0.6-1.8,1.7-3.5,3-4.8c2.6-2.7,5.4-5.3,8.3-7.8c3.5-3.2,5.9-6.9,5.8-11.9c0-0.5-0.3-0.9-0.5-1.7c3.1-0.2,3.6-2.7,3.9-5.4
				c2.6,1.5,2.6,3.6,2.9,5.3c0.7,4.2,1.3,8.5,1.9,12.7c0.1,0.8,0.1,1.7,0,2.6c-0.1,1.1-0.4,2.2-0.3,3.3c0.4,3.1-0.8,5.9-1.8,8.7
				c-0.3,0.7-0.1,1.5-0.1,1.8c-1.4,2.1-2.6,3.8-3.8,5.7c-2.3,3.6-4.5,7.3-8.2,9.8c-0.8,0.5-1.7,0.9-2.6,1.3
				c-1.7,0.6-3.1,1.5-4.1,3.2c-0.9,1.6-2.4,2.8-3.8,4.1c-0.3,0.2-1.2-0.3-1.9-0.5L973.4,400.6z"/>
			<path class="st0" d="M861.4,566c5.9,0,11.7-0.1,17.6-0.3c0.8-0.6,1.5-1.3,2.2-2.2c-0.4-0.3-0.7-0.6-1.1-1
				c0.3-0.5,0.5-1.1,0.7-1.6c1.9-4,0.7-7.8-0.8-11.6c-0.1-0.3-0.4-0.6-0.7-0.8c-2.4-1.3-4.4-3.1-7.5-3.5c-0.5-0.1-1-0.1-1.5-0.1
				c-0.1,0.1-0.2,0.1-0.3,0.2c-0.5,0.2-0.9,0.4-1.4,0.6c-1,1.6-1.8,3.3-2.8,4.8c-1.6,2.5-3.6,4.6-6.1,6.3c-0.6,0.8-1.2,1.6-1.9,2.3
				c-0.3,0.3-0.7,0.6-1,0.8c0.7,2,2,3.7,3.6,5.3C860.6,565.4,861,565.7,861.4,566z"/>
		</g>
		<path class="st0" d="M890.3,565c8.5-0.1,16.9-0.9,25.3-1c0,0,0.1,0,0.1,0l-1.1-21.4l-7.4,0.5l3.8-4.9l-12.6-27.1l-20.9,24
			c-0.5,1.3-1.3,2.1-2.2,2.5l-1.1,1.3c-0.5,2.5-2.1,4.7-4.5,5.9c-0.3,0.2-0.7,0.3-1,0.4l-1,1.2c-0.7,1.3-1.4,2.6-2.2,3.8
			c-1.6,2.5-3.6,4.6-6.1,6.3c-0.6,0.8-1.2,1.6-1.9,2.4c-0.4,0.5-1,0.8-1.6,1l-5.2,6c0.1,0,0.3,0,0.4,0c12.4,0,24.8-0.1,37.2-0.8
			C889.1,565.2,889.7,565,890.3,565z"/>
	</g>
	<path class="st0" d="M1025.3,304.8c0,11-8.8,19.9-19.6,19.9c-10.8,0-19.6-8.9-19.6-19.9c0-11,8.8-19.9,19.6-19.9
		C1016.5,284.9,1025.3,293.8,1025.3,304.8z"/>
</g>
</svg>
