<?xml version="1.0" encoding="utf-8"?>
<!-- Generator: Adobe Illustrator 22.0.1, SVG Export Plug-In . SVG Version: 6.00 Build 0)  -->
<svg version="1.1" id="Capa_1" xmlns="http://www.w3.org/2000/svg" xmlns:xlink="http://www.w3.org/1999/xlink" x="0px" y="0px"
	 viewBox="0 0 1920 1080" style="enable-background:new 0 0 1920 1080;" xml:space="preserve">
<style type="text/css">
	.st0{fill:#FFFFFF;}
</style>
<g>
	<path class="st0" d="M1049.3,582.4c2.6,0.1,5.1,0.1,7.7,0.2c23.1-3.9,46.4-4,69.7-3.5c-0.8-1.4-1.7-2.8-2.9-4.6
		c-0.8-0.3-2.4-0.3-3.3-2.3c-0.7-1.4-2.9-2.2-3.3-3.6c-1-3-3.4-4.4-5.3-6.3c-3.8-3.8-6.2-8.7-10.1-12.5c-0.9-0.9-1.4-2.4-2.3-3.5
		c-0.8-0.9-1.3-2.2-2.1-3.7c-2.4-1.3-2.9-1.9-4.9-5.4c-0.2-0.4-0.6-0.6-0.9-0.9c-4.1-4.9-8.3-9.9-12.4-14.8
		c-0.2-0.3-0.6-0.6-0.6-0.8c1-3-1.6-4.2-2.8-6c-1.3-2-3-4.1-4.9-5.3c-2.7-1.7-3.6-4.7-5.7-6.8c-0.7-0.6-1.7-1.7-1.5-2.2
		c0.8-2.7-0.9-2.5-2.4-3c-0.7-0.2-1.8-0.9-1.9-1.5c-0.5-2.6-1.6-4.8-3.6-6.4c-0.4-0.3-0.7-1-0.7-1.5c-0.2-2.4-2.1-3-3.6-4
		c-0.6-0.4-1.2-0.7-2-1.1c1-1.5,3.2-2.1,2.1-4.7c-1.2,1.8-2.1,3.6-4.4,3.2c-0.3-0.1-0.9,0.6-1.2,1.1c-1.5,1.9-2.8,3.9-4.3,5.7
		c-3.6,4.1-6.2,8.9-8.7,13.8c-0.8,1.6-1.8,2.8-2.9,2.9c-0.7,1.5-1,2.5-1.6,3.3c-0.7,0.8-1.9,1.2-1.7,2.7c0,0.3-0.4,1-0.7,1.1
		c-2.5,0.9-3.3,2.9-3.5,5.3c0,0.4-0.3,1-0.7,1.1c-1.2,0.6-1.8,1.3-2.1,2.9c-0.1,0.9-1.5,1.9-2.1,3.1c-0.6,1.2-1.2,2.4-1.9,3.6
		c-1.4-0.3-2.4-0.5-3.5-0.8c0.3,0.8,0.8,1,1.2,1.4c2,1.6,2,3.1,0.3,5.2c-0.1,0.1-0.4-0.1-0.7-0.1c0.2-0.9,0.4-1.7,0.6-2.2
		c-1.6,0.8-3.2,1.6-4.7,2.3c1.2,2.4,1.1,2.4-0.9,4.6c-0.7,0.7-1.1,1.7-1.6,2.6c0.2,0.2,0.4,0.3,0.6,0.5c0.6-0.5,1.2-1.1,1.8-1.5
		c0.5,0.7,0.9,1.3,1.2,1.9l0.7-0.1c0.1-1.3,0.5-2.6,0.2-3.8c-0.4-1.8,0.4-2.2,1.8-2.5c1,2.8,1.1,2.6,3.7,3.1c5,1.1,10,2,15,1.2
		c1.9,1.2,3.6-0.5,5.4-0.6c3.3-0.1,6.7-0.4,9.1-0.6c2-2.8,3.4-4.7,4.9-6.8c1.2,1.2,2.8,1.9,3,3c0.3,2,2.9,2.6,2.2,5.1
		c-0.1,0.5,1.7,1.6,2.6,2.5c-0.2,0.9-0.4,1.9-0.7,3c2.7,0.1,3.4,2.1,3.8,4c1.8,0.3,3.3,0.5,5.4,0.8c-1,1-1.5,1.6-1.7,1.8
		c0.3,2.8,3.7,1.8,4,4.5c0.3,2,1,4,1.6,6.1c-1.9,0.7-3.4,1-5.3,0.7c-2-0.3-4-0.4-6.1-0.1c-2.7,0.3-5.9,1.2-8.6-0.7
		c-0.6,0.4-1.3,1.1-1.7,0.9c-2.1-1-4.1,0-6.1-0.1c-1.2,0-2.3-0.1-3.5-0.2c0-0.2,0-0.3,0-0.5c0.6-0.3,1.3-0.7,2.3-1.2
		c-7.3-1.1-7.3-1.1-8.7,0.2c0.9,0.4,1.7,0.9,2.5,1.3c-4.3,0.4-8.3,0.4-12.4,0.3c-2.6-0.1-5.2-0.7-7.9-0.6c-2.8,0-5.6,0.4-8.4,0.9
		c-1.8,0.3-2.6-1-3.5-2c-1.2-1.2,0.3-2.1,0.6-2.8c-2.6-2.1-5.1-0.5-7.9-0.4c1.8-2.9,3.4-5.4,5.4-8.5c-3.5,1.9-5.7,4-7.3,7.2
		c-0.7-11.5-1.2-22.8-1.5-34.1c-0.3-11.2-0.1-22.5-0.7-33.8c0.9,0.1,1.5,0.2,2,0.2c0.2-0.1,0.5-0.3,0.8-0.5
		c-3.6-1.8-3.2-4.6-2.5-7.4c0.1-0.3-0.2-0.7-0.2-1c-0.1-2.9-0.1-5.8-0.2-8.6c-0.1-3.2,0-6.3,0-9.5c0-2.2,0-4.2,0.6-6
		c1.8,1.7,3.7,3.3,5.2,5.3c1.6,2.2,3.1,3.7,6.1,3.2c1.3-0.2,2.1-0.3,2.5-1.4c0.4-1,0.6-2.2,0.7-3.2c0.1-1.7-0.1-3.4-0.3-5.1
		c-0.1-1.6,1.4-3.1,0.3-4.8c1.8-2.4-0.6-5.3,0.8-8c0.5-0.8,0.4-2.5,0.6-3.8c0.6-2.7,1.1-5.6-1.1-8c-1.6-1.7-3-3.5-4.1-5.7
		c-0.8-1.7-1.9-3.8-3.4-4.4c-3-1.2-3.4-4.7-5.8-6.5c-2.1-1.5-3.2-4.5-4.8-6.9c-0.6-0.8-1.2-1.7-1.9-2.3c-2-1.7-3.2-3.8-3.3-6.5
		c0-0.3-0.2-0.6-0.3-0.8c-1-0.3-2-0.6-2.9-0.8c-0.4-1.6-1.1-2.7-2-3.8c-1.2-1.4-3-2.6-3.8-4.2c-1.1-2.5-3.5-4.1-3.6-7
		c0-0.5-0.6-0.9-1-1.4c-1.4-1.7-2.9-3.5-4.3-5.2c-0.5-0.6-1-1.5-1.6-1.6c-2.2-0.6-3.5-2.1-4.1-4.5c-0.2,0.1-0.5,0.1-0.7,0.2
		c-0.2,1.5-0.4,3-0.6,4.5l0.1-0.1c-0.9,2.3,0.1,3.9,1.7,5.2c-2.2,3.7-2.4,2.7-1,7.1c0.3,0.8,0.5,2.3,0.2,2.6
		c-1.4,1.2,0.4,2.4-0.3,3.3c-0.8,1-1.7,2-2.5,3.1c0.1,0.1,0.2,0.2,0.3,0.3c0.7-0.3,1.4-0.5,2.5-0.9c0.3,5.4,0.6,10.5,0.9,15.7
		c-1.9,0.4-3.4,0.8-4.9,1.1c0,0.2,0.1,0.4,0.1,0.6l4.4,0c-0.5,0.6-0.8,0.9-0.9,1c0.4,1.3,1.4,2.7,1.1,3.7c-0.6,2.3-2.9,1-4.4,1.7
		c1.4,0.3,2.7,0.5,3.8,0.7c0.6,2.6,1.1,5,1.7,7.5c-0.8,0.2-1.4,0.4-2.3,0.6c1,1,1.7,1.7,2.4,2.4c-0.3,1.9-1.2,2.6-2.8,2.5
		c-0.1,0-0.2,0.3-0.3,0.5c0.8,0.3,1.6,0.6,2.7,1l-0.1,9.3c-1,0.2-1.8,0.3-3.1,0.5c3.7,1.9,4.3,3,3.5,6.9c-0.6,3.1-0.4,6.2,0.6,9.2
		c-0.7,0.1-1.3,0.1-1.8,0.2c0.4,1.6,0.8,3,1.1,4.4c0.3,1.4,0.4,2.9,0.7,4.4c-1,0.3-1.8,0.6-2.8,0.9c1.8,1.3,1.6,1.4,2.4,3.7
		c0.5,1.4,0.7,2.6-0.1,3.9c-0.7,1.1,0.9,2.8-0.8,3.7c-0.1,0,0.1,1,0.4,1.1c1,0.5,0.7,1.3,0.6,2.1c-0.1,0.8-0.6,1.7-0.3,2.3
		c1.5,3.6,0.7,7.4,1.2,11.1c0.3,2.1,0.5,4.4-1,6.3c-0.3,0.3-0.2,1.1-0.1,1.6c0.4,1.6,0.8,3.1,1.3,4.8c-0.5,0.4-1.2,0.8-2,1.4
		c0.7,1.1,1.3,1.8,1.8,2.8c0.3,0.6,1,1.5-0.4,1.8c-0.2,0-0.3,0.8-0.3,1.2c0.2,2.2,0.1,4.6,0.7,6.6c0.7,2.2-0.4,4.2,0.2,6.3
		c-1.3,1-0.5,2.3-0.6,3.5c-0.1,2,1.5,3.8,0.5,5.9c1.7,3-0.9,5-1.6,7.4c1.8,1.3,2.1,1.9,1.1,3.7c-0.6,1.2-0.8,2,0.1,3.1
		c0.4,0.6,1,1.5,0.8,2c-0.2,0.7-1.2,1-2,1.7c2.5,1.8,2,4.6,0.8,6.4c-2.8,4.3-0.3,7.9,0.3,12.6c-0.3,0.7-1.9,2.1,0.2,3.7
		c0.2,0.1,0,1-0.1,1.5c-0.1,0.5-0.4,1.2-0.3,1.3c0.2,0.2,0.4,0.5,0.5,0.7c0.1,0,0.2-0.1,0.4-0.2c2.7-0.8,5.4-1.2,8-1.3
		c12-2.2,25.1-0.5,37.5,0.7c12-3,24.1-0.3,36.3-0.1C1047,582,1048.2,582.2,1049.3,582.4z M1061.5,544.7c-0.7-0.4-1.3-0.8-1.9-1.2
		c0.2-0.3,0.4-0.6,0.7-0.9c0.6,0.5,1.1,1,1.7,1.5C1061.8,544.3,1061.7,544.5,1061.5,544.7z M995.2,562.4c-0.1,0-0.2,0.1-0.2,0.1
		c0,0,0,0,0.1-0.1c-1.3-2.2-1.3-2.4,0.7-2.9c0.6,1.2-0.1,2.1-0.7,2.9C995.1,562.4,995.1,562.4,995.2,562.4c0.8-0.4,1.7-0.7,2.9-1.2
		C997.4,563.8,996.1,562.3,995.2,562.4z"/>
	<path class="st0" d="M1253.2,724.5c-1.7-2-3.4-3.9-5.1-5.9c-1.1-1.3-2-2.7-3-4.2c-0.3-0.5-0.3-1.2-0.5-1.7
		c-0.2-0.9-0.5-1.8-0.8-2.9c0.3-0.3,0.9-1,1.8-1.9c-1.3-0.7-2.3-1.3-3-1.6c-1.3,0.7-2.3,1.3-3.3,1.9c0.3-0.5,0.6-0.9,1-1.4
		c-1.4-0.8-3-1.3-4.2-2.3c-2.2-1.7-4.5-3.3-4.3-6.6c0-0.7-0.8-1.5-1.4-2.1c-0.7-0.8-1.6-1.4-2.5-2.2c0.7-1.1,1.3-1.9,2.2-3.4
		c-2,0.6-3.1,1-4.1,1.3c-1.3-1.1-2.4-2.1-3.8-3.3c2.5-1.2,4.5,2.3,6.5-0.2c-2.6-0.7-4.9-2.6-7.8-1.1c-1.5-1.5-2.9-2.9-4.8-4.8
		c2.4-0.2,4-0.3,5.6-0.5c0-0.2,0-0.5,0-0.7c-2.4-0.6-4.7-1.1-7-1.7c-0.5-1.3-1.4-2.4-1.4-3.5c0-1.4,0.7-2.7,1-4.1
		c2.8-1.9,6.7-1.1,9.5-3.1c-1.6-3-1.6-3-4.5-1.4c-1.7-0.1-3.3-0.7-4.2-0.2c-2.5,1.3-4.6,0.8-6.9-0.4c-0.2-1.2-0.4-2.3-0.5-3.4
		c-1.8-0.5-3.3-1-5.4-1.6c1.4-0.9,2.2-1.4,3-1.9c-0.4-1.7-1.5-1.7-2.6-1.4c-1.7,0.3-3.1,0.1-3.7-1.9c-0.4-1.4-1.6-1.6-2.9-1.6
		c-1.1,0.1-2.2,0.1-3.2-0.2c-0.6-0.2-1-1.2-1.4-1.8c0.9-0.8,1.6-1.3,2.2-1.9c-0.1-0.2-0.2-0.4-0.3-0.6c-1.2,0.3-2.3,0.6-3.6,0.9
		c-14.7-17.3-29.6-34.4-43.8-52c2.8-2.3,2.8-2.3,2.3-4.5c-2.4,0.4-4.7-0.2-6.7-1.7c-1.1-0.9-2-0.5-2.9,0.2c-2.5,2.3-5.8,3.8-7.3,7.2
		c-0.3,0.8-1.3,1.3-2.1,1.8c-2.5,1.6-4.5,3.5-5.6,6.3c-0.3,0.8-1.1,1.5-1.7,2.2c-0.6,0.6-1.5,1-1.8,1.7c-1.7,4.7-5.6,7.6-8.4,11.4
		c-1.8,2.4-3.9,4.5-5.8,6.8c-3.3,4-6.6,8.1-9.9,12.1c-3.2,3.8-6.5,7.6-9.8,11.3c-2,2.3-4.2,4.4-6.4,6.6c-0.2,0.2-0.7,0.3-1,0.2
		c-1.9-0.3-2.5,0.9-3,2.4c-0.4,1.1-1,2.1-1.7,3c-1.4,1.6-3.5,2.9-4.2,4.7c-0.9,2.2-2.4,2.2-3.8,2.1c-0.2,3-0.7,5.6-3.1,7.6
		c-0.1-0.2-0.2-0.3-0.3-0.5c-0.2,0.4-0.6,0.8-0.9,1.2c-0.8,0.8-1.6,1.6-2.4,2.4l0.2,0.2c-0.1,3-2.7,4.4-4.6,6.3
		c-0.4-0.5-0.7-0.8-1-1.2c-0.8,0.8-1.6,1.5-2.4,2.3c0.6,0.4,1.2,0.8,1.9,1.2c-2.4,3.3-4.4,7.1-8.8,8.2c-0.5,3-8.5,13.8-12.9,17.3
		c-1.9-1.4-1.8-1.4-2.2-2.8c-0.3-0.8-0.8-1.6-1.4-2.2c-1.6-1.5-3.3-2.8-4.8-4.2c-0.3-0.3-0.5-0.9-0.4-1.3c0.5-1.3,0.2-2.4-0.5-3.3
		c-1.8-1-3.3-2.5-4.3-4.9c-0.2-0.4-0.3-0.8-0.4-1.3c-0.3,0.2-0.7,0.4-0.9,0.6c-1.6-0.3-0.5-3.3-2.9-2.3c0.3-1.6-1-2.1-2.1-2.5
		c0-1.4,1.1-2.5-0.3-3.9c-0.8-0.8-0.3-1.5,0.4-2c0.1-1.1,0.5-2.1,1.2-3c-1,0.6-2.1,0.4-3.3-0.6c1.5-0.2,3-0.5,4.5-0.7
		c-0.1,0.1-0.1,0.2-0.2,0.3c1-0.7,2.2-1.2,3.7-1.1c1.2-1.6,3.2-2.5,5.7-1.6c1.5,0.6,3,1.1,4.5,1.6c3.9-0.2,7.7,0,11.6,0.1
		c0.5-0.3,1.1-0.8,1.5-1.5c0.4-0.7,1.4-0.9,2.1-1.4c0.2-0.1,0.4,0.1,0.6,0.1c0,0.1,0.1,0.3,0.1,0.5c0.1-0.2,0.2-0.3,0.3-0.5
		c0.5-1,1.2-1.7,2.1-2.3c2.4-5.5,6.5-9.7,10-10.8c0.9-1.4,1.9-2.2,1.9-3.1c0.3-4.2,3.5-6.4,6-9c1.5-1.6,2.5-4.2,5.3-4.3
		c-0.6-3.3,2.5-4.5,4-6.3c4.6-5.6,9.7-10.8,14.6-16.1c0.8-0.8,1.8-1.4,2.5-2.2c2.3-2.8,4.3-5.9,6.7-8.6c3.6-3.9,8.2-6.9,10.9-11.7
		c0.2-0.4,0.7-0.6,1.2-0.8c1.5-0.5,2.3-1.5,2.4-3.2c0-0.7,0.8-1.4,1.3-2.1c0.8-1,1.6-2,2.6-3.1c-1.4-1.3-2.6-2.4-4.1-3.9
		c0.8-0.6,1.6-1,2.1-1.7c0.2-0.2,0.3-0.4,0.5-0.6c-0.5-0.1-0.9-0.3-1.3-0.4c-1,1.4-2.4,2.4-3.9,3c-1.4,0.5-2.9,0.6-4.5,0.3
		c-1.6-0.3-3.3-0.3-4.9-0.3l-102.5,0c-1.9,0.1-3.8,0.1-5.6,0.1c-6.8,0-13.6,0.2-20.3-0.1l-14.2,0l-2.6,0l-6.2-0.7l-5.4,2.2
		c-1.3,1.6-2.5,3.2-3.7,4.8l0.1-0.1c-1.3,1.9-2.6,3.8-3.9,5.6c-2.8,3.9-5.5,7.8-8.3,11.7c-2.2,3.1-4.5,6.2-6.6,9.3
		c-6.1,8.7-12.1,17.4-18.2,26c-5,7.1-10.1,14.1-15.1,21.1c-3.6,5.1-7.1,10.3-10.7,15.4c-4,5.5-8.1,11-12.1,16.5
		c-2.3,3.2-4.3,6.7-7,9.5c-3.3,3.4-3.5,7.4-3.6,11.8c4.1-0.1,8.2-0.1,12.2,0.1c0-0.1-0.1-0.2-0.1-0.3l2.4-0.7
		c0.1,0.1,0.1,0.3,0.1,0.4c-0.5,0.2-1.1,0.4-1.6,0.6c6.2,0.2,12.1,0.6,17.4,0.9c1.8-2.5,3.6-5,6-7c1.9-1.5,3.1-3.9,4.6-5.8
		c0.1-0.1,0.1-0.3,0-0.4c-1.5-1.9,0.3-2.9,1.2-3.8c2.1-2.2,3.8-4.5,5.1-7.2c0.9-1.7,2.5-3.1,3.8-4.7c1-1.2,2.7-2.2,2.9-3.5
		c0.5-3.9,3.4-5.8,5.9-8.1c0.7-0.7,1.4-1.6,1.7-2.5c0.4-1.3,0.7-2.5,2.2-2.9c0.4-0.1,0.9-0.7,0.9-1c-0.1-1.4,0.9-2,1.7-2.9
		c1.5-1.6,3.2-3.3,3.9-5.3c1.2-3.3,3.8-5.3,5.9-7.9c0.1,0,0.1,0.1,0.2,0.1c0.1-0.2,0.3-0.5,0.4-0.7c0.1-0.2,0.2-0.3,0.4-0.5
		c-0.1-0.1-0.2-0.3-0.3-0.4c1.5-1.8,2.9-3.5,4.4-5.3c0.1-0.4,0.2-0.8,0.3-1.2c0.4-2.3,1.7-3.5,3.3-3.9c0.1-0.7,0.3-1.3,1.2-1.7
		l0.2,0.2c1-1.7,2.2-3.2,3.9-4.5c0.2-2.1,1.6-3.7,3.4-4.5c0.8-1.4,1.6-2.7,2.6-4c0.5-0.7,1.2-1.4,1.9-1.9c0.6-0.7,1.2-1.5,1.9-2.1
		c0.3-0.3,0.7-0.6,1.1-0.8c1.1-1.5,2.7-2.6,4.7-2.5c1.9,0.1,3.7,0.5,5.5,1c-0.2-0.3-0.3-0.5-0.5-0.8c3.1-0.1,5.9-0.2,8.7-0.3
		c-0.3,0.4-0.6,0.9-1,1.5c2.4,1.1,1.8-1.3,2.9-2.6c1.2,1,2.4,2.1,4,3.5c1.1-0.3,3.3-0.2,4.1-1.2c0.9-1,1.8-1.1,2.6-1.6
		c1.9-1.2,2.8-0.4,3.9,0.9c-1-1.9,0-2.2,2.4-2.2c-1,1.1-1.5,1.7-2.1,2.2c1.9-0.9,3.8-1.7,5.9-2.7c0.6,1.1,0.9,1.9,1.3,2.7
		c0.4-0.1,0.8-0.1,1-0.3c1.3-1.6,2.7,0,4,0c2.4-0.1,4.7-0.2,7.1-0.3c0.7,0,1.4-0.3,2-0.7c0.9-0.5,1.6-0.9,2.6,0
		c0.3,0.3,1.1,0.3,1.6,0.3c0.7-0.1,3.9-0.1,4.6,0c3,0.2,6.1,0.3,9.1,0.5c2.1,0.1,4.2,0.4,6.3,0.3c4.2-0.1,11.4-2.4,11.1,2.7
		c-0.1,2.5-9.6,11.5-11.5,12.4c1-1.3,1.8-3.1,2.8-4.5c-5.8,3.9-10.7,9.1-17.1,12.2c-11.5,5.7-26.9,2.5-39.1,0.9
		c-4.7-0.6-9.6,0.8-14.4,0.7c-2.7,0-12.2-2.3-14.1-0.9c-0.5,0.4-1,0.6-1.6,0.8c-2.6,0.9-3.3,5-3.5,8.1c0.8,0.6,1.9,1.2,2.3,1.8
		c0.1,0.2,0.2,0.4,0.3,0.5c0.2-0.7,0.4-1.4,0.6-2.2c1.7,2.6,3.3,6.4,3.3,8.5c0,0.1,0,0.3,0,0.4c0.2,0.3,0.4,0.5,0.7,0.8
		c0.4,0.5,0.8,1,1.2,1.5c0.2,0.1,0.4,0.1,0.6,0.1c0.9,0.2,1.9,1.1,2.3,1.9c0.4,0.9,0.6,1.9,0.8,3c0.6,0.9,1.3,1.7,2,2.6
		c0.5-0.2,1.1-0.4,1.6-0.6c2.6,2.3,3.4,3.4,3,5.4c2.7,2.2,5,4.9,6.8,8c1.1,1.9,2.1,3.9,3.5,5.5c0.3-0.5,0.5-0.9,0.8-1.4
		c1.2,1.6,1.7,2.4,1.5,3.3c4.4,2.8,9.1,5.6,11.3,10.6c0.3,0.7,0.4,1.3,0.5,2c1.3,1.7,2.6,3.5,3.6,5.4c1.2,2.3,1.4,5.1,4.3,6.2
		c0.2,0.1,0.4,0.3,0.6,0.5c11.7,0,23.3,0.2,35,0.5c14.1-5.5,32.5-0.8,47.4-0.5c1.5,0,2.8,0.3,4.1,0.6c1.6-1.1,3.3-2.1,5.4-2.6
		c0.4-0.1,0.8-0.1,1.2-0.2h0c0.4-0.1,0.9-0.2,1.3-0.3c1.8-0.6,3.6-0.9,5.6-0.9c1.6,0.2,3.1,0.4,4.7,0.6c1.4,0.4,2.7,1,3.9,1.7h31.2
		c2.5,0,4.9,0.6,7.1,1.6c11.8-2.4,23.6-1.8,36.2-1.6c0.8,0,1.6,0.1,2.4,0.2c1.5,0,3.1,0.1,4.6,0.4c0.4,0.1,0.7,0.1,1.1,0.2
		c0.5,0,0.9,0.1,1.4,0.1c2.7-2,6.1-3.3,10.4-3.3c3.2,0,5.9,0.8,8.2,2c4.1-1.1,8.4-0.8,12.1,0.9c10.4-1,20.8-1.1,31.3-0.9
		C1253.7,725.2,1253.5,724.8,1253.2,724.5z M981.6,630.4c-0.5-0.1-1-0.2-1.5-0.2c0.3-0.2,0.5-0.5,0.9-0.6c0.1-0.1,0.4,0.2,0.6,0.3
		C981.6,630,981.6,630.2,981.6,630.4z M1029,628.2c0-0.2,0-0.5,0.1-0.7l2.7,0C1030.4,627.8,1029.7,628,1029,628.2z M985,658.2
		c-0.3-0.1-0.5-0.6-0.6-1c0-0.1,0.5-0.6,0.7-0.6c0.4,0.1,0.7,0.4,1.3,0.8C985.6,657.8,985.2,658.3,985,658.2z M998.8,670.9
		c-1.5,3,0.7,4.1,2.8,5.6c-0.8,0.3-1.5,0.8-1.7,0.7c-1.9-1.8-3.6-3.7-5.7-5.8c1.1-0.5,1.8-0.8,2.5-1.1l0-3.1c-0.4,0.1-0.7,0-0.9,0.1
		c-3.5,2.5-4.3,2.3-5.8-1.6c-0.5-1.3,0-2.1,0.9-2.7c0.9-0.7,2-0.4,2.4,0.6c0.8,1.9,2.3,2.2,4.1,2.3c0.4,0,0.8,0,1.1,0.1
		c2.4,1.8,4.3,4,6.4,6.3C1001.1,674,1000.9,673.9,998.8,670.9z M1007.4,686.5c-0.6-0.3-1.2-0.6-1.8-0.9l0.3-0.5
		c0.6,0.3,1.2,0.6,1.8,0.9C1007.5,686.1,1007.5,686.3,1007.4,686.5z M1144.4,595.8c0,0.2,0,0.3,0.1,0.5c-0.5,0.1-1.1,0.2-1.6,0.4
		c0-0.3,0-0.5,0-0.8L1144.4,595.8z M1166.3,695.5c0.2,2.1,2,3.2,0.5,4.9c-0.9,1.1-1.7,2-3.1,2c-3,0-6,0.2-9,0.1
		c-5.3-0.2-10.6-0.5-15.8-0.7c-4.7-0.2-9.3-0.5-14-0.6c-1.2,0-2.4,0.2-3.6,0.2c-1.1,0-2.2,0-3.5,0c0.8-2.7,2.9-0.8,4.2-1.7
		c0.2-1.3-0.6-2.2-1.8-1.6c-2.2,0.9-4.8,0.6-6.7,2.5c-0.8,0.8-2.2,1.7-3.3,0c-0.1-0.2-0.7-0.2-1-0.1c-4.8,2.1-9.8,0.5-14.6,1.2
		c-1,0.1-1.9,0.2-2.9,0.2c-1.1,0-2.3-0.1-3.4-0.2c0-0.3,0-0.6-0.1-1c1.1-0.2,2.2-0.5,3.8-0.8c-0.8-0.7-1.4-1.3-2.4-2.2
		c3.4,0.4,3.5-3.4,6.4-3.9c2,1.7,3.6,4.3,6.9,3c-0.2-0.3-0.4-0.7-0.7-0.7c-3-0.5-4.3-3.2-6.4-4.7c0.7-3.2,3.6-2.4,5.6-3.5
		c-0.3-0.7-0.6-1.3-0.9-2.1c3.7-3,5.6-7.7,10.5-9.8c-0.1-0.8-0.1-1.8-0.2-2.8c2.1-1.4,4.6-2.5,6.3-4.3c1.5-1.6,2.1-3.9,3.3-6.4
		c0.8,0.1,2.2,0.3,4,0.5c-0.5-1-0.9-1.7-1.5-2.7c1-1.4,3.8-2.4,2-5c1.6-1.6,4.3-1.8,4.6-4.7c0.1-0.7,1.4-1.2,2-1.9
		c0.9-1,2.4-1.4,2.3-3.4c-0.1-0.8,1.7-1.7,2.8-2.8c4.1,4,8.9,7,11.1,12.4c0.2,0.6,0,1.3,0,2.2c1.8-0.7,3,0.9,4.4,2.3
		c4.1,3.8,7.5,8.3,10.8,12.8c1.3,1.8,3.4,3.5,3,6.2c0,0.1,0.3,0.2,0.5,0.4c1.2,0.9,2.6,1.6,3.4,2.8c1.1,1.7,2.2,3.2,3.8,4.6
		c0.5,0.4,1.8,1.1,0.9,2.3c-0.1,0.1,0.4,0.6,0.6,0.8c1.4,1.2,3,2.3,4.4,3.7c0.8,0.8,1,2,1.6,3c0.5,0.8,1.2,1.6,2.1,2.8
		c-2.9,1.2-6,0.1-9.3,1.1c0.4-1,0.6-1.4,0.9-2.1c-1.6,0.2-3.1,0.3-4.8,0.4C1169.1,697.5,1168,696.7,1166.3,695.5z M1171.6,701.8
		c4.4-1.7,8.4-1.1,12.4-0.7c0,0.3,0,0.5,0,0.8L1171.6,701.8z M1202,665.1c0.5-1.1,2.3-1,4.6,0.3c-1.1,0.5-2.1,0.9-3.4,1.5
		C1203,666.4,1202.5,665.7,1202,665.1z M1211.9,670.9c-2.1,0.7-3.8-0.1-5.3-1.5c0.1-0.3,0.1-0.5,0.2-0.8c1.8,0.4,3.6,0.8,5.3,1.2
		C1212,670.2,1212,670.5,1211.9,670.9z"/>
	<path class="st0" d="M923.7,592.6c-0.6-0.4-1.3-0.8-1.9-1.2c-0.5,0.4-0.8,0.7-1.6,1.4c0.3-1.6,0.5-2.4,0.7-3.5
		c-2.8,3.6-7.2,0.8-10.2,3.1c-0.1,0.1-0.6,0-0.7-0.2c-0.8-0.9-1.5-0.5-2.5-0.3c-2.2,0.4-4.6,0.3-6.9,0.3c-4.9,0.1-9.8,0.1-14.6,0.1
		c-4.1,0-8.2,0-12.3,0.2c-3.2,0.1-6.4-1.5-9.6-0.1c-0.3,0.1-1-0.1-1.3-0.3c-0.8-0.7-1.3-0.7-2.2-0.1c-0.6,0.4-1.6,0.3-2.4,0.3
		c-5.3,0-10.6,0-15.8,0c-2.1,0-4.1,0-6.1-0.2c-0.7,0-1.5-0.3-1.9-0.7c-1.2-1.2-2.5-1-3.7-0.4c-1.9,1-3.9,0.8-5.9,0.9
		c-4.3,0.2-8.6-0.6-13-0.1c-3.2,0.4-6.5,0.1-9.7,0.2c-1.1,0-2.3,0-3.4,0.1c-2.6,0.4-3.7-0.8-3.2-3.7c-0.4-0.2-0.9-0.6-1.1-0.5
		c-1.1,0.8-2.2,1.8-3.3,2.8c0.5,0.3,1,0.6,2.2,1.3c-5.1,0-9.6-0.4-13.9,0c-3,0.2-5.7-1-8.6-1.1c-2-0.1-4.1-0.8-6-0.2
		c-2.2,0.6-4.1,1-6.2-0.2c-1.2,0.9-2.4,1.7-3.5,2.5c0.5,0.6,0.9,1,1.7,1.9c-1.6,0.3-2.7,0.5-3.8,0.7c-2.3,0.4-3.6-1.6-4.7-2.1
		c-2,0.5-3.2,1-4.5,1.1c-1.8,0.2-2.9,0.9-2.9,3c1.3,0.3,2.4,0.6,4,0.9c-1.1,0.4-1.7,0.9-2.3,0.9c-2.1-0.1-3.2,1.8-3.5,2.9
		c-0.7,3.1-2.9,4.9-4.8,7c-1.3,1.5-2.9,2.8-4.2,4.4c-4.5,5.5-8.9,11-13.3,16.5c-0.3,0.3-0.3,0.8-0.5,1.3c0.6,0.1,1,0.3,1.2,0.2
		c3.6-2.3,7-5,9.8-8.3c0.3-0.4,0.3-1.2,0.2-1.6c-0.5-1.7,0.6-2.2,1.8-2.5c0.9-0.2,1.9,0,2.5,0c1.4-2.8,2.4-5.7,4.1-8.1
		c1.9-2.6,4.5-4.5,6.6-6.9c1.7-1.9,3.5-2.7,6.2-1.9c-1,1.5-1.8,2.9-2.9,4.2c-2.1,2.4-4.3,4.6-6.1,7.3c-2.7,4.1-6.1,7.7-9.1,11.5
		c-1.6,2-3.3,3.9-4.7,6.1c-1.8,2.9-3,6.4-6.6,7.8c-0.2,0.1-0.2,0.7-0.4,0.9c-0.9,1.4-1.7,2.9-2.7,4.2c-4,5.2-8,10.5-12.1,15.6
		c-1,1.2-2.3,2.1-3.8,3.4c0.7,1.1,0,2-1.3,2.7c-1.4,0.7-2.6,1.6-2.8,3.4c-0.1,0.7-0.8,1.4-1.4,2.1c-1.7,2.2-3.4,4.3-5.1,6.5
		c-4.2,5.5-8.3,11.1-12.6,16.6c-2.8,3.7-5.8,7.3-8.7,11c-1.9,2.4-3.8,4.9-5.7,7.3c-2.4,3-4.8,5.9-7.1,9c-0.4,0.6-0.8,1.1-1.3,1.5
		c0,1.2,0.1,2.5,0.2,3.7c0.2,0,0.5,0.1,0.7,0.1c1.2-0.4,2.5-0.7,3.7-1.1c3.1-1.1,6-1,8.7-0.2c12.2-2.9,25.8-2.4,38.8-1.5
		c1.3-1,2.4-1.4,3.7,0c-0.1,0.1-0.2,0.1-0.3,0.2c1.4,0.1,2.7,0.2,4,0.3c0,0,0,0,0,0c0.4-0.3,0.9-0.6,1.4-0.8
		c0.1,0.2,0.2,0.5,0.4,0.7c-0.2,0.1-0.4,0.1-0.6,0.2c3.8,0.2,7.5,0.4,11.1,0.5c-0.3-0.4-0.7-0.8-1.3-1.4c5.3-0.5,9.8-0.3,14.8,0.1
		c-0.7,0.8-1.3,1.2-2,1.4c3.2,0,6.4-0.1,9.5-0.1c1.5-1.7,2.4-1.8,4.5-1.3c-0.3,0.4-0.6,0.8-0.9,1.2c5.6-0.1,11.2-0.2,16.8-0.4
		c-0.1-0.1-0.2-0.1-0.3-0.3c0.8-0.1,1.6-0.2,2.4-0.2c0,0.1,0.1,0.3,0.1,0.5c9-0.2,18-0.5,27-0.6v0h0.1c9.7-0.2,19.5-0.2,29.2,0.1
		c0.2-0.1,0.3-0.2,0.5-0.3c0.1,0.1,0.1,0.2,0.1,0.3c0.6,0,1.3,0,1.9,0c1,0,1.9,0.1,2.8,0.3c0-0.1,0.1-0.2,0.1-0.2
		c1.1-3.8,3.7-6.7,5.9-9.8c2.6-3.6,5.1-7.3,7.9-10.7c2-2.4,4.1-4.7,5.5-7.6c1.2-2.5,3-4.6,4.7-6.8c2.3-2.9,3.4-7,7.3-8.7
		c0.3-0.1,0.4-1.1,0.5-1.6c0.2-0.7,0.3-1.5,0.7-2c3.1-3.4,5.3-7.3,7.9-11c3.8-5.4,7.6-10.8,11.5-16c3.5-4.5,5.9-9.9,10.8-13.3
		c0.5-0.3,0.9-1,0.9-1.5c-0.3-1.9,1.1-2.8,2-4c1.7-2.1,3.6-4.1,5.1-6.3c3.1-4.5,5.9-9.2,9-13.7c1.4-2.1,3.1-4,4.6-6
		c1.4-1.9,2.4-4.6,4.3-5.6c2.3-1.3,3.1-3.8,5.4-4.9c0.3-0.1,0.3-0.8,0.5-1.3C924.8,593.4,924.2,592.9,923.7,592.6z M863.3,628.4
		c-1,1.2-1.5,2.9-2.5,4.2c-3.9,5.4-7.9,10.7-11.9,16.1c-2.5,3.4-4.8,6.8-7.3,10.2c-0.5,0.6-1.2,1.1-1.8,1.7
		c-0.6,0.6-1.3,1.1-1.7,1.8c-2.5,3.9-4.8,7.9-7.4,11.7c-2.1,3.1-4.7,6-6.9,9.1c-1.6,2.2-2.8,4.7-4.3,7c-1.4,2.2-3.2,3.7-5.7,5
		c-6.1,2.9-12.4,1.2-18.6,1.7c-3.1,0.3-6.2,0-9.3,0c-0.4-0.7-0.6-1.2-0.9-1.8c-0.4,0.1-0.7,0.2-1,0.3c-1.3,0.4-2.6,1.3-4,1.3
		c-9.2,0.2-18.5,0.3-27.7,0.3c-5.9,0-11.8-0.1-17.6,0c-2.2,0-4.1-0.1-5-2.1c-1.8,0.3-3.3,0.6-5.3,1c4.2-8.3,7.9-16.2,14-22.5
		c1.4-1.5,2.8-3,3.9-4.7c1.1-1.7,2.4-2.9,4.8-2.5c-0.1-1.1-0.1-1.9-0.2-2.8c1.3-0.4,2.2-1.2,2.8-2.7c0.7-1.9,2.5-3.5,3.9-5.1
		c1.4-1.6,2.7-3.2,4.2-4.7c1.3-1.3,2.8-2.4,4.3-3.6c0.9-0.8,1.9-1.5,3-2.3c-0.7-0.8-1.2-1.5-1.8-2.1c4.9-3.6,8-8.6,11.9-12.8
		c1.5-1.6,3.1-3,5.1-3.8c1.7-0.7,3.2-1,4.2,0.7c3.2-1.1,6.2-2.1,9.4-3.2c2.9,1,6,2.8,9.6,2.4c0.1-0.3,0.2-0.6,0.2-0.9
		c-0.9-0.3-1.8-0.6-2.7-0.9c1.3-1.5,1.3-1.5,7.5-0.1c-0.3,0.3-0.4,0.5-0.6,0.6c-0.3,0.2-0.6,0.3-1.7,0.8c3.1,0.2,5.3,0,7.5-0.3
		c2.3-0.3,4.5-0.5,7-0.3c2.5,0.2,6,0.3,7.8-3.7c0.6,3,2.6,2.9,4.5,3c2.9,0.1,5.7,0.2,8.6,0.5c0.9,0.1,1.7,1,2.7,1.6
		c1.2-1.1,2.4-2.4,4-3.9c0.5,0.1,1.7,0,2.3,0.5c2.1,1.8,4.2,1.3,6.4,0.5c1.4-0.4,2.8-0.7,3.1,1.3c2.5-0.2,4.9-0.5,7.4-0.7
		c0.1,0.2,0.1,0.4,0.2,0.6C866,625.9,864.5,627,863.3,628.4z"/>
	<g>
		<g>
			<path class="st0" d="M893.1,580.8H946c0.1-2.7,0.3-5.4,0.5-8.1c0.1-1.5,0.7-3,1.1-4.5c2.1,0.2,1.5-2.3,3.1-2.9l3.6,0.1
				c-2.4-2.6-5-3.5-7.9-3.5c0.1-2.1-0.5-4.2,2.2-4.9c0.9,0.6,1.9,1.3,2.8,1.9l0.5-0.4c-1.2-1.5-2.4-2.9-3.4-4.1
				c1.1-1.3,2-2.4,2.8-3.5c-1.4,0.4-2.9,0.9-4.6,1.4l0.4-15.4c0.9-0.3,1.9-0.5,2.7-0.8c-0.4-1.9-0.7-3.5-1-5
				c1.2-0.8,2.2-1.3,3.1-1.9c-0.1-0.2-0.2-0.3-0.2-0.4c-1.5,0.4-2.9,0.8-4.5,1.3c-0.5-2.6,1.1-4.6,2.1-6.6c-0.7-0.4-1.8-0.5-1.9-1
				c-0.9-3.5,0.3-6.8,1.5-10c-0.7-0.5-1.7-1.1-1.7-1.3c0.3-0.9,0.9-1.7,1.4-2.7c-1.6-2.4-1.5-4.3,0.2-6.4c-0.3-0.6-0.7-1.2-0.7-1.6
				c0.1-2.9,1.1-5.7,0.7-8.7c-0.2-2.2-0.8-4.3-0.9-6.6c-0.3-9.3,0.6-18.6,0.7-27.9c0-1.4-0.2-2.9-0.4-4.6c0.9,0.4,1.4,0.6,2.5,1.2
				c-1-1.6-2.1-2.5-2.2-3.5c-0.2-2.2-0.1-4.5,0.1-6.8c0.3-3.3,0.7-6.6,1-10.1c0.4-0.2,1-0.5,1.6-0.8c-0.5-1.1-1.1-2-1.3-3
				c-0.4-2.3-0.9-4.6-1-6.9c-0.1-4.5-0.1-9,0.1-13.6c0.1-2.1-0.6-4.4,1.3-5.6c-0.6-0.8-1.3-1.4-1.3-1.9c0-3.1-0.9-6.5,1.4-9.4
				c-1.8-1.8-1.7-4.2-1.2-6.4c0.6-2.9-0.6-5.9,0.8-8.8c0.3-0.6-0.3-1.7-0.5-2.7c2.3-2.1,2.3-2.1,0.1-4.8c-2.4,2.1-4.8,4.3-7.4,6.3
				c-3.5,2.7-5.6,6.6-8.7,9.5c-1.1,1.1-2,2.3-3,3.4c-1.2,1.4-3,2.7-3.5,4.3c-0.7,2.5-1.9,3.7-4,4c-0.6,1.4-0.9,3.2-1.8,3.6
				c-3.2,1.4-4.1,4-4.3,6.2c-1.8,1.9-3.2,3.1-4.3,4.6c-1.4,1.9-2.3,4.4-4.1,5.7c-2.4,1.7-4.3,3.5-5.5,6.2c-0.1,0.2-0.3,0.3-0.5,0.4
				c-0.5-0.2-1-0.5-1.6-0.7c-0.3,0.3-0.7,0.6-0.7,0.8c0.1,2.4-1.3,3.9-3,5.4c-0.6,0.5-1.1,1.2-1.6,1.9c-2.7,3.8-5.4,7.6-8.1,11.4
				c-0.7,0.9-1.5,1.8-2.3,2.7c-0.9,1-2.2,1.9-3,3c-1.7,2.6-2.8,5.8-5,7.9c-2.3,2.2-2.6,5.3-4.7,7.7c-1.8,2.1-3.3,4.7-5.4,6.6
				c-1.3,1.2-1.3,2.4-1.1,3.8c0,0,0.1,0,0.1,0c0,0,0,0,0.1,0.1c0.6-0.2,1.1-0.5,2-0.8c-0.9,1.6-0.9,1.6-2,0.8c0,0-0.1,0-0.1,0.1
				c0,0,0-0.1,0-0.1c-0.7,0-1.6-0.2-1.9,0.1c-2.6,2.6-5.5,5-7.6,8c-2.1,2.9-3.5,6.3-6.8,8.3c-0.4,0.2-0.5,0.8-0.8,1.2
				c-0.9,1.1-1.9,2.1-2.6,3.3c-1.6,2.8-5.1,4.1-6,7.5c-0.1,0.5-0.8,0.8-1.2,1.2c-2.3,2.1-4.8,4-6.7,6.4c-1.6,2-1.9,5.1-5.2,5.7
				c-0.1,0-0.1,0.2-0.2,0.3c-1.6,3-4,5.3-7.1,6.9c-0.3,0.1-0.7,0.4-0.7,0.6c0,2.3-2.5,2.4-3.5,3.8c0.5,0.9,0.9,1.7,1.2,2.2
				c-1.7,0.6-3.6,0.8-4.6,1.8c-3,2.8-5.8,5.8-8.7,8.8c-0.2,0.6-0.5,1.1-0.7,1.7c0.1,0.5,0.2,1,0.3,1.7c-0.3,0.1-0.6,0.1-0.9,0.2
				c-0.1,0.2-0.2,0.5-0.2,0.7c-0.1,0.2-0.1,0.4-0.2,0.6c3.1,0.1,6.1,1.3,9.2,1.7c2.4,0.3,5.1-0.4,7.4,1.1c0,0,0.1,0,0.1,0
				c-1.7-6,7.3-10.4,10.6-4.3c0.9,1.7,1.9,3.2,3.1,4.7c0.8,0.1,1.5,0.1,2.2,0.2c0.4,0,0.8,0.4,1.4,0.6c-0.2,0.8-0.4,1.5-0.7,2.6
				c0.1,0,0.1,0.1,0.1,0.2c1.7-1.6,3.1-2.7,5.1-2.4c0.5,0.1,1.3-0.6,1.7-1.1c1.8-2.1,3.5-4.3,5.2-6.4c2.6-3.2,5.2-6.5,7.9-9.7
				c1.9-2.3,3.8-4.6,5.6-6.9c2-2.6,3.8-5.4,5.9-8c5.9-7.5,11.9-15,17.9-22.5c7.2-9,14.4-18,21.6-26.9c1.6-1.9,3.5-3.6,5-5.5
				c2.6-3.3,4.9-6.7,7.4-10c0-0.1,0-0.1,0-0.2c0,0,0.1,0,0.1,0c0.3-0.4,0.6-0.9,1.1-1.6c0.1,1.8,0.1,1.9-1.1,1.6c0,0,0,0-0.1,0.1
				c0,0,0,0,0,0.1c0.3,1.2,0.5,2.5,0.8,3.7c0.3,1.4,0.3,3.1,1.1,4c1.4,1.5-0.1,2.7,0,4c0,5-0.4,10-0.7,15c-0.1,1.9-0.7,3.8-0.7,5.6
				c0,3.1,0.5,6.2,0.4,9.3c-0.1,4.2-0.4,8.4,0.5,12.5c0.3,1.2,0.6,2.9,0,3.8c-1.6,2.6-0.9,4.8,0.1,7.2c0.2,0.5,0.3,1.2,0.3,1.8
				c-0.3,2.8-0.6,5.6-0.9,8.4c-0.8,0-1.4,0.1-2.4,0.1c-0.1,3.7,0.2,7.5-0.6,11c-0.8,3.6-0.3,7.3-1.1,11c-3.1-1.1-3.1-1.1-5,0.4
				c1.7,0.5,3.2,0.9,4.9,1.4c-0.4,0.6-1.1,1.1-1.2,1.6c0,0.7,0.5,1.4,0.9,2.3c-1,0.1-1.7,0.3-2.4,0.3c-7.1-0.2-14.1-0.3-21.2-0.5
				c-6.3-0.1-12.7-0.2-19-0.4c-3.3-0.1-6.5-0.4-9.8-0.4c-3.8,0-7.6,0.3-11.4,0.2c-1.6,0-3.1-0.7-4.8-1.1c-2.7,1.4-5.8,0.7-8.9,0.6
				c2.6,2.6,5.4,5,8,7.5c5.4,5.1-3,13-8.3,7.9c-3-2.9-6.1-5.7-9-8.7c-2,2.2-4.4,3.9-6.6,5.9c-0.4,0.4-1.1,0.8-1.1,1.3
				c-0.3,1.9-1.5,2.9-3,3.8c-0.5,0.3-0.9,0.7-1.2,1.2c-1.3,2.4-2.6,4.7-3.9,7.1c-0.1,0.2-0.2,0.4-0.3,0.6c1,0,2-0.1,3-0.2
				c0.7-0.1,1.4-0.2,2.2-0.2c10.2-0.1,20.3-1.1,30.4-1.2c0.3,0,0.7,0,1,0.1c0.4,0,0.9-0.1,1.4-0.1h36.3
				C889,579.7,891.2,580.1,893.1,580.8z M949.5,563.2c0.1,0.2,0.2,0.4,0.3,0.7c-0.8,0.4-1.5,0.8-2.3,1.2c-0.2-0.3-0.3-0.5-0.5-0.8
				C947.9,564,948.7,563.6,949.5,563.2z M815.5,539.8c-0.4,0-0.9-0.3-1.3-0.5c0.2-0.3,0.4-0.5,0.6-0.7c0.4,0.1,0.8,0.3,1.2,0.4
				C815.8,539.2,815.6,539.8,815.5,539.8z M821.9,532.2c0.7-4.1,1.6-5.3,6.3-7.7C826.2,526.9,824.3,529.3,821.9,532.2z M830.8,520.8
				c-0.2-0.2-0.5-0.3-0.7-0.5c0.6-0.8,1.1-1.7,1.7-2.6c0.3,0.2,0.6,0.4,0.9,0.6L830.8,520.8z M837.9,512.1c-0.1,0.1-0.4,0.1-1.4,0.1
				c0.9-1.1,1.5-1.7,2.1-2.4c0.2,0.2,0.4,0.4,0.6,0.6C838.7,511,838.3,511.6,837.9,512.1z M845.4,503.4
				C845.4,503.4,845.3,503.4,845.4,503.4c-1,0.8-1.9,1.7-2.7,2.4C842.7,503.9,842.7,503.9,845.4,503.4
				C845.3,503.4,845.3,503.4,845.4,503.4C845.4,503.3,845.4,503.3,845.4,503.4c-0.8-2.1,0.6-3.1,2.3-3.7
				C846.9,500.8,846.2,502.1,845.4,503.4C845.4,503.3,845.4,503.3,845.4,503.4z M851.4,494.7c-0.2,0-0.6-0.4-0.6-0.7
				c0-0.2,0.4-0.4,0.7-0.8c0.3,0.4,0.6,0.7,0.6,0.9C852,494.3,851.7,494.7,851.4,494.7z M919.1,530.3c0.4,0.1,0.7,0.1,1.1,0.1
				c-0.2,1.9-0.5,3.8-0.7,5.7c-0.3,0-0.5,0-0.8-0.1C918.1,534.1,918.7,532.2,919.1,530.3z M919.1,539.2c0,0.7-0.1,1.4-0.2,2.1
				c-0.1,0-0.3,0-0.4,0c-0.1-0.7-0.2-1.4-0.3-2.2C918.5,539.2,918.8,539.2,919.1,539.2z"/>
			<path class="st0" d="M811.9,543.6c-0.1,0-0.4-0.5-0.3-0.5c0.2-0.2,0.5-0.4,0.7-0.6c0.1,0.2,0.2,0.4,0.4,0.7
				C812.5,543.3,812.2,543.5,811.9,543.6z"/>
			<path class="st0" d="M872,468.9c0-0.3,0-0.7,0.1-1c0-0.1,0.4-0.1,0.6-0.2c0.1,0.1,0.2,0.3,0.3,0.4
				C872.7,468.3,872.4,468.6,872,468.9z"/>
			<path class="st0" d="M881,457.6c-0.1-0.1-0.2-0.2-0.3-0.3c0.3-0.4,0.6-0.7,0.9-1.1c0.1,0.1,0.3,0.2,0.4,0.3
				C881.6,456.9,881.3,457.2,881,457.6z"/>
			<path class="st0" d="M919.5,548.9c-0.2,0.3-0.4,0.7-0.6,1c0,0-0.3-0.1-0.2-0.1c0.1-0.3,0.2-0.7,0.3-1
				C919.1,548.8,919.3,548.9,919.5,548.9z"/>
			<path class="st0" d="M917.3,383.5c-2.6-0.2-3.7-1.1-2.8-3.1c1.6-3.8,0.8-7.6,1-11.4c0.3-5.9,1.1-11.7,3.1-17.2
				c0.7-2.1,2-4.2,3.6-5.8c3.1-3.3,6.5-6.3,9.9-9.3c4.3-3.8,7.1-8.3,7-14.2c0-0.6-0.3-1.1-0.7-2c3.7-0.3,4.3-3.2,4.7-6.5
				c3.1,1.8,3.1,4.3,3.5,6.4c0.9,5,1.6,10.2,2.2,15.2c0.2,1,0.1,2.1,0,3.1c-0.1,1.3-0.5,2.7-0.3,4c0.4,3.8-0.9,7.1-2.2,10.5
				c-0.3,0.8-0.1,1.8-0.1,2.1c-1.7,2.5-3.1,4.6-4.5,6.8c-2.8,4.3-5.4,8.7-9.8,11.7c-0.9,0.6-2.1,1.1-3.1,1.5
				c-2.1,0.8-3.7,1.8-4.9,3.9c-1.1,1.9-2.9,3.4-4.5,4.9c-0.3,0.3-1.5-0.3-2.2-0.5L917.3,383.5z"/>
			<path class="st0" d="M782.8,582c7,0,14-0.2,21.1-0.4c0.9-0.7,1.8-1.5,2.6-2.7c-0.4-0.4-0.9-0.8-1.4-1.2c0.3-0.6,0.6-1.3,0.9-1.9
				c2.3-4.8,0.8-9.4-1-13.9c-0.1-0.4-0.5-0.8-0.9-1c-2.9-1.5-5.3-3.7-8.9-4.3c-0.6-0.1-1.2-0.1-1.8-0.2c-0.1,0.1-0.2,0.2-0.3,0.2
				c-0.5,0.3-1.1,0.5-1.6,0.7c-1.2,1.9-2.2,3.9-3.3,5.8c-2,3-4.3,5.6-7.3,7.5c-0.7,1-1.4,1.9-2.2,2.8c-0.4,0.4-0.8,0.7-1.2,0.9
				c0.8,2.4,2.4,4.5,4.3,6.3C782,581.2,782.4,581.6,782.8,582z"/>
		</g>
		<path class="st0" d="M817.6,580.8c10.2-0.1,20.3-1.1,30.4-1.2c0.1,0,0.1,0,0.2,0l-1.3-25.7l-8.9,0.6l4.6-5.8l-15.1-32.5
			l-25.1,28.8c-0.5,1.5-1.5,2.5-2.6,3l-1.3,1.5c-0.6,3-2.5,5.7-5.4,7.1c-0.4,0.2-0.8,0.4-1.2,0.5l-1.2,1.4c-0.9,1.5-1.7,3.1-2.6,4.6
			c-2,3-4.3,5.6-7.3,7.5c-0.7,1-1.4,1.9-2.2,2.8c-0.5,0.6-1.2,1-1.9,1.3l-6.2,7.2c0.2,0,0.3,0,0.5,0c14.9,0,29.8-0.1,44.6-0.9
			C816.1,581,816.9,580.8,817.6,580.8z"/>
	</g>
	<path class="st0" d="M979.5,268.5c0,13.2-10.5,23.9-23.5,23.9c-13,0-23.5-10.7-23.5-23.9c0-13.2,10.5-23.9,23.5-23.9
		C969,244.6,979.5,255.3,979.5,268.5z"/>
</g>
</svg>
