<?xml version="1.0" encoding="utf-8"?>
<!-- Generator: Adobe Illustrator 22.0.1, SVG Export Plug-In . SVG Version: 6.00 Build 0)  -->
<svg version="1.1" id="Capa_1" xmlns="http://www.w3.org/2000/svg" xmlns:xlink="http://www.w3.org/1999/xlink" x="0px" y="0px"
	 viewBox="0 0 1920 1080" style="enable-background:new 0 0 1920 1080;" xml:space="preserve">
<style type="text/css">
	.st0{fill:#00FFA3;}
</style>
<g>
	<g>
		<path class="st0" d="M865.3,623c0.7,0.2,1.3,0.4,1.7,0.6s0.8,0.5,1,0.8s0.4,0.6,0.5,0.9c0.1,0.3,0.1,0.6,0.1,0.8
			c0,0.4-0.1,0.8-0.3,1.1c-0.2,0.4-0.4,0.7-0.8,0.9c-0.3,0.3-0.7,0.5-1.1,0.6c-0.4,0.2-0.9,0.2-1.4,0.2c-0.5,0-0.9-0.1-1.3-0.2
			c-0.4-0.1-0.8-0.3-1.1-0.5c-0.3-0.2-0.6-0.5-0.8-0.8c-0.2-0.3-0.3-0.7-0.4-1l1.2-0.2c0.1,0.4,0.4,0.8,0.8,1.1
			c0.4,0.3,0.9,0.4,1.6,0.4c0.3,0,0.6,0,0.9-0.1c0.3-0.1,0.5-0.2,0.7-0.4c0.2-0.1,0.4-0.3,0.5-0.5c0.1-0.2,0.2-0.4,0.2-0.6
			c0-0.9-0.8-1.5-2.4-1.9c-0.4-0.1-0.8-0.2-1.2-0.3c-0.4-0.1-0.7-0.3-1.1-0.5s-0.6-0.5-0.8-0.8c-0.2-0.3-0.3-0.7-0.3-1.2
			c0-0.4,0.1-0.8,0.2-1.1c0.2-0.3,0.4-0.6,0.7-0.9c0.3-0.2,0.6-0.4,1.1-0.6c0.4-0.1,0.9-0.2,1.4-0.2c0.4,0,0.9,0.1,1.2,0.2
			c0.4,0.1,0.7,0.3,1,0.5c0.3,0.2,0.5,0.5,0.7,0.8c0.2,0.3,0.3,0.7,0.3,1l-1.2,0.3c-0.1-0.4-0.3-0.8-0.7-1.1
			c-0.4-0.3-0.8-0.4-1.4-0.4c-0.6,0-1.1,0.1-1.5,0.4c-0.4,0.3-0.5,0.6-0.5,1.1c0,0.2,0,0.3,0.1,0.5c0.1,0.1,0.2,0.3,0.3,0.4
			c0.2,0.1,0.4,0.2,0.7,0.3C864.4,622.8,864.8,622.9,865.3,623z"/>
		<path class="st0" d="M873.4,628.9c0,0-0.1,0-0.2,0.1c-0.1,0-0.3,0.1-0.5,0.1c-0.2,0-0.4,0-0.6,0c-0.2,0-0.4-0.1-0.6-0.3
			c-0.6-0.4-0.9-1.2-0.9-2.4v-3.1h-0.9v-1.2h0.9V619h1.2v3.1h1.4v1.2h-1.4v3.1c0,0.7,0.1,1.2,0.4,1.4c0.1,0.1,0.2,0.1,0.3,0.1
			c0.1,0,0.2,0,0.3,0c0.1,0,0.2,0,0.3-0.1L873.4,628.9z"/>
		<path class="st0" d="M874.7,626.8c0-0.2-0.1-0.3-0.1-0.5v-0.2v-4h1.2v4c0,0.2,0,0.3,0,0.6c0,0.2,0.1,0.4,0.2,0.6
			c0.1,0.2,0.3,0.4,0.5,0.5c0.2,0.1,0.5,0.2,0.9,0.2c0.4,0,0.8-0.1,1.1-0.2c0.3-0.1,0.5-0.3,0.6-0.5s0.2-0.4,0.3-0.6
			c0-0.2,0.1-0.4,0.1-0.5v-4.1h1.2v6.7h-1.2v-0.6c-0.2,0.2-0.4,0.3-0.5,0.4c-0.2,0.1-0.4,0.2-0.6,0.3c-0.3,0.1-0.6,0.1-0.9,0.1
			c-0.5,0-0.9-0.1-1.3-0.2c-0.3-0.2-0.6-0.3-0.8-0.6c-0.2-0.2-0.4-0.5-0.5-0.7C874.8,627.3,874.7,627,874.7,626.8z"/>
		<path class="st0" d="M889.4,619v9.8h-1.2V628c-0.3,0.3-0.7,0.6-1.1,0.8c-0.4,0.2-0.8,0.3-1.3,0.3c-0.5,0-0.9-0.1-1.3-0.3
			c-0.4-0.2-0.8-0.4-1.1-0.8c-0.3-0.3-0.5-0.7-0.7-1.2c-0.2-0.4-0.3-0.9-0.3-1.4c0-0.5,0.1-1,0.3-1.4c0.2-0.4,0.4-0.8,0.7-1.2
			c0.3-0.3,0.7-0.6,1.1-0.8c0.4-0.2,0.8-0.3,1.3-0.3c0.5,0,0.9,0.1,1.3,0.3c0.4,0.2,0.8,0.4,1.1,0.8V619H889.4z M885.9,627.9
			c0.3,0,0.6-0.1,0.9-0.2c0.3-0.1,0.5-0.3,0.7-0.5c0.2-0.2,0.4-0.5,0.5-0.8c0.1-0.3,0.2-0.6,0.2-1s-0.1-0.7-0.2-1s-0.3-0.6-0.5-0.8
			c-0.2-0.2-0.4-0.4-0.7-0.5c-0.3-0.1-0.6-0.2-0.9-0.2c-0.3,0-0.6,0.1-0.9,0.2c-0.3,0.1-0.5,0.3-0.7,0.5c-0.2,0.2-0.4,0.5-0.5,0.8
			c-0.1,0.3-0.2,0.6-0.2,1s0.1,0.7,0.2,1c0.1,0.3,0.3,0.6,0.5,0.8c0.2,0.2,0.4,0.4,0.7,0.5C885.3,627.8,885.6,627.9,885.9,627.9z"/>
		<path class="st0" d="M893,620.2c0,0.2-0.1,0.4-0.2,0.6c-0.1,0.2-0.3,0.2-0.5,0.2s-0.4-0.1-0.6-0.2c-0.2-0.2-0.2-0.3-0.2-0.6
			c0-0.2,0.1-0.4,0.2-0.5c0.2-0.1,0.3-0.2,0.6-0.2s0.4,0.1,0.5,0.2C892.9,619.8,893,619.9,893,620.2z M892.8,628.8h-1.2v-6.7h1.2
			V628.8z"/>
		<path class="st0" d="M898.1,629.1c-0.5,0-1-0.1-1.4-0.3c-0.4-0.2-0.8-0.4-1.2-0.8c-0.3-0.3-0.6-0.7-0.8-1.2
			c-0.2-0.4-0.3-0.9-0.3-1.4c0-0.5,0.1-1,0.3-1.4c0.2-0.4,0.5-0.8,0.8-1.2c0.3-0.3,0.7-0.6,1.2-0.8c0.4-0.2,0.9-0.3,1.4-0.3
			c0.5,0,1,0.1,1.4,0.3c0.4,0.2,0.8,0.5,1.2,0.8c0.3,0.3,0.6,0.7,0.8,1.2c0.2,0.4,0.3,0.9,0.3,1.4c0,0.5-0.1,1-0.3,1.4
			c-0.2,0.4-0.5,0.8-0.8,1.2c-0.3,0.3-0.7,0.6-1.2,0.8C899.1,629,898.6,629.1,898.1,629.1z M898.1,623c-0.3,0-0.7,0.1-1,0.2
			c-0.3,0.1-0.6,0.3-0.8,0.5c-0.2,0.2-0.4,0.5-0.5,0.8c-0.1,0.3-0.2,0.6-0.2,1s0.1,0.7,0.2,1c0.1,0.3,0.3,0.6,0.5,0.8
			c0.2,0.2,0.5,0.4,0.8,0.5c0.3,0.1,0.6,0.2,1,0.2s0.7-0.1,0.9-0.2c0.3-0.1,0.6-0.3,0.8-0.5c0.2-0.2,0.4-0.5,0.5-0.8
			c0.1-0.3,0.2-0.6,0.2-1s-0.1-0.7-0.2-1c-0.1-0.3-0.3-0.6-0.5-0.8c-0.2-0.2-0.5-0.4-0.8-0.5C898.8,623.1,898.5,623,898.1,623z"/>
		<path class="st0" d="M912.7,619v9.8h-1.2V628c-0.3,0.3-0.7,0.6-1.1,0.8c-0.4,0.2-0.8,0.3-1.3,0.3s-0.9-0.1-1.3-0.3
			c-0.4-0.2-0.8-0.4-1.1-0.8c-0.3-0.3-0.5-0.7-0.7-1.2c-0.2-0.4-0.3-0.9-0.3-1.4c0-0.5,0.1-1,0.3-1.4c0.2-0.4,0.4-0.8,0.7-1.2
			c0.3-0.3,0.7-0.6,1.1-0.8c0.4-0.2,0.8-0.3,1.3-0.3s0.9,0.1,1.3,0.3c0.4,0.2,0.8,0.4,1.1,0.8V619H912.7z M909.2,627.9
			c0.3,0,0.6-0.1,0.9-0.2c0.3-0.1,0.5-0.3,0.7-0.5c0.2-0.2,0.4-0.5,0.5-0.8c0.1-0.3,0.2-0.6,0.2-1s-0.1-0.7-0.2-1s-0.3-0.6-0.5-0.8
			c-0.2-0.2-0.4-0.4-0.7-0.5c-0.3-0.1-0.6-0.2-0.9-0.2c-0.3,0-0.6,0.1-0.9,0.2c-0.3,0.1-0.5,0.3-0.7,0.5c-0.2,0.2-0.4,0.5-0.5,0.8
			c-0.1,0.3-0.2,0.6-0.2,1s0.1,0.7,0.2,1c0.1,0.3,0.3,0.6,0.5,0.8c0.2,0.2,0.4,0.4,0.7,0.5C908.6,627.8,908.9,627.9,909.2,627.9z"/>
		<path class="st0" d="M915.6,625.8c0,0.3,0.1,0.6,0.2,0.8c0.1,0.3,0.3,0.5,0.5,0.7c0.2,0.2,0.4,0.3,0.7,0.4
			c0.2,0.1,0.5,0.2,0.8,0.2c0.4,0,0.8-0.1,1.2-0.3c0.4-0.2,0.6-0.5,0.8-0.8l1,0.6c-0.3,0.5-0.7,0.9-1.3,1.2
			c-0.5,0.3-1.1,0.5-1.7,0.5c-0.4,0-0.9-0.1-1.2-0.3s-0.7-0.4-1-0.7c-0.3-0.3-0.5-0.6-0.7-1c-0.2-0.4-0.3-0.8-0.3-1.3
			c0,0,0-0.1,0-0.2c0-0.1,0-0.1,0-0.2c0-0.3,0-0.6,0.1-0.8c0.1-0.4,0.2-0.8,0.4-1.1c0.2-0.3,0.5-0.6,0.7-0.9s0.6-0.4,1-0.6
			c0.4-0.1,0.7-0.2,1.1-0.2s0.8,0.1,1.1,0.2c0.4,0.1,0.7,0.3,1,0.6c0.3,0.2,0.5,0.5,0.7,0.9c0.2,0.3,0.4,0.7,0.4,1.1
			c0.1,0.3,0.1,0.5,0.1,0.8c0,0.1,0,0.1,0,0.2c0,0.1,0,0.1,0,0.2H915.6z M919.8,624.6c-0.2-0.5-0.4-0.9-0.8-1.2
			c-0.4-0.3-0.8-0.5-1.3-0.5c-0.5,0-0.9,0.2-1.3,0.5c-0.4,0.3-0.6,0.7-0.8,1.2H919.8z"/>
		<path class="st0" d="M929.8,619c0.5,0,0.9,0.1,1.3,0.3c0.4,0.2,0.8,0.4,1.1,0.7c0.3,0.3,0.6,0.7,0.7,1.1c0.2,0.4,0.3,0.9,0.3,1.3
			c0,0.5-0.1,0.9-0.3,1.3c-0.2,0.4-0.4,0.8-0.7,1.1c-0.3,0.3-0.7,0.6-1.1,0.7c-0.4,0.2-0.9,0.3-1.3,0.3h-2.6v3h-1.3V619H929.8z
			 M929.8,624.5c0.3,0,0.6-0.1,0.8-0.2s0.5-0.3,0.7-0.5s0.3-0.4,0.4-0.7c0.1-0.3,0.2-0.5,0.2-0.8c0-0.3-0.1-0.6-0.2-0.8
			c-0.1-0.3-0.3-0.5-0.4-0.7s-0.4-0.3-0.7-0.5c-0.3-0.1-0.5-0.2-0.8-0.2h-2.6v4.3H929.8z"/>
		<path class="st0" d="M936.4,620.2c0,0.2-0.1,0.4-0.2,0.6c-0.1,0.2-0.3,0.2-0.5,0.2c-0.2,0-0.4-0.1-0.6-0.2
			c-0.2-0.2-0.2-0.3-0.2-0.6c0-0.2,0.1-0.4,0.2-0.5c0.2-0.1,0.3-0.2,0.6-0.2c0.2,0,0.4,0.1,0.5,0.2
			C936.3,619.8,936.4,619.9,936.4,620.2z M936.2,628.8H935v-6.7h1.2V628.8z"/>
		<path class="st0" d="M944.5,624.1c0,0.1,0,0.2,0,0.3c0,0.1,0,0.2,0,0.2v0.2v4h-1.2v-4c0-0.1,0-0.3,0-0.5c0-0.2-0.1-0.4-0.2-0.6
			c-0.1-0.2-0.3-0.4-0.5-0.5c-0.2-0.1-0.5-0.2-0.9-0.2c-0.4,0-0.8,0.1-1.1,0.2c-0.3,0.1-0.5,0.3-0.6,0.5c-0.1,0.2-0.2,0.4-0.3,0.6
			c0,0.2-0.1,0.3-0.1,0.5v4.1h-1.2v-6.7h1.2v0.6c0,0,0.1,0,0.1-0.1c0.1-0.1,0.2-0.2,0.4-0.3s0.4-0.2,0.6-0.3
			c0.3-0.1,0.6-0.1,0.9-0.1c0.5,0,0.9,0.1,1.3,0.2c0.3,0.2,0.6,0.3,0.8,0.6c0.2,0.2,0.4,0.5,0.5,0.7
			C944.4,623.6,944.5,623.9,944.5,624.1z"/>
		<path class="st0" d="M949.9,628.9c0,0-0.1,0-0.2,0.1c-0.1,0-0.3,0.1-0.5,0.1c-0.2,0-0.4,0-0.6,0c-0.2,0-0.4-0.1-0.6-0.3
			c-0.6-0.4-0.9-1.2-0.9-2.4v-3.1h-0.9v-1.2h0.9V619h1.2v3.1h1.4v1.2h-1.4v3.1c0,0.7,0.1,1.2,0.4,1.4c0.1,0.1,0.2,0.1,0.3,0.1
			c0.1,0,0.2,0,0.3,0c0.1,0,0.2,0,0.3-0.1L949.9,628.9z"/>
		<path class="st0" d="M951.2,626.8c0-0.2-0.1-0.3-0.1-0.5v-0.2v-4h1.2v4c0,0.2,0,0.3,0,0.6c0,0.2,0.1,0.4,0.2,0.6
			c0.1,0.2,0.3,0.4,0.5,0.5c0.2,0.1,0.5,0.2,0.9,0.2c0.4,0,0.8-0.1,1.1-0.2c0.3-0.1,0.5-0.3,0.6-0.5s0.2-0.4,0.3-0.6
			c0-0.2,0.1-0.4,0.1-0.5v-4.1h1.2v6.7H956v-0.6c-0.2,0.2-0.4,0.3-0.5,0.4c-0.2,0.1-0.4,0.2-0.6,0.3c-0.3,0.1-0.6,0.1-0.9,0.1
			c-0.5,0-0.9-0.1-1.3-0.2c-0.3-0.2-0.6-0.3-0.8-0.6c-0.2-0.2-0.4-0.5-0.5-0.7C951.3,627.3,951.2,627,951.2,626.8z"/>
		<path class="st0" d="M962.7,621.8c0.3,0,0.6,0,0.8,0.1l-0.2,1.2c-0.2-0.1-0.4-0.1-0.7-0.1c-0.4,0-0.8,0.1-1.1,0.2
			s-0.5,0.3-0.6,0.5c-0.1,0.2-0.2,0.4-0.3,0.6c0,0.2-0.1,0.3-0.1,0.5v4.1h-1.2v-6.7h1.2v0.6c0,0,0.1-0.1,0.1-0.1
			c0.1-0.1,0.2-0.2,0.4-0.3c0.2-0.1,0.4-0.2,0.6-0.3C962.1,621.9,962.4,621.8,962.7,621.8z"/>
		<path class="st0" d="M971.2,622.1v6.7H970V628c-0.3,0.3-0.7,0.6-1.1,0.8c-0.4,0.2-0.8,0.3-1.3,0.3c-0.5,0-0.9-0.1-1.3-0.3
			c-0.4-0.2-0.8-0.4-1.1-0.8c-0.3-0.3-0.5-0.7-0.7-1.2c-0.2-0.4-0.3-0.9-0.3-1.4c0-0.5,0.1-1,0.3-1.4c0.2-0.4,0.4-0.8,0.7-1.2
			c0.3-0.3,0.7-0.6,1.1-0.8c0.4-0.2,0.8-0.3,1.3-0.3c0.5,0,0.9,0.1,1.3,0.3c0.4,0.2,0.8,0.4,1.1,0.8v-0.8H971.2z M967.7,627.9
			c0.3,0,0.6-0.1,0.9-0.2c0.3-0.1,0.5-0.3,0.7-0.5c0.2-0.2,0.4-0.5,0.5-0.8c0.1-0.3,0.2-0.6,0.2-1s-0.1-0.7-0.2-1
			c-0.1-0.3-0.3-0.6-0.5-0.8c-0.2-0.2-0.4-0.4-0.7-0.5c-0.3-0.1-0.6-0.2-0.9-0.2c-0.3,0-0.6,0.1-0.9,0.2c-0.3,0.1-0.5,0.3-0.7,0.5
			c-0.2,0.2-0.4,0.5-0.5,0.8c-0.1,0.3-0.2,0.6-0.2,1s0.1,0.7,0.2,1c0.1,0.3,0.3,0.6,0.5,0.8c0.2,0.2,0.4,0.4,0.7,0.5
			C967.1,627.8,967.4,627.9,967.7,627.9z"/>
		<path class="st0" d="M982.3,622.1l-4.5,10.4l-1-0.5l1.4-3.3l-2.8-6.6h1.3l2.2,5.1l2.2-5.1H982.3z"/>
		<path class="st0" d="M989.5,619c0.7,0,1.3,0.1,1.9,0.4c0.6,0.3,1.1,0.6,1.6,1.1c0.4,0.4,0.8,1,1.1,1.6c0.3,0.6,0.4,1.2,0.4,1.9
			s-0.1,1.3-0.4,1.9c-0.3,0.6-0.6,1.1-1.1,1.6c-0.4,0.4-1,0.8-1.6,1.1c-0.6,0.3-1.2,0.4-1.9,0.4h-2.8V619H989.5z M989.5,627.5
			c0.5,0,1-0.1,1.4-0.3c0.4-0.2,0.8-0.5,1.1-0.8c0.3-0.3,0.6-0.7,0.8-1.2c0.2-0.4,0.3-0.9,0.3-1.4c0-0.5-0.1-1-0.3-1.4
			c-0.2-0.4-0.4-0.8-0.8-1.2s-0.7-0.6-1.1-0.8c-0.4-0.2-0.9-0.3-1.4-0.3H988v7.2H989.5z"/>
		<path class="st0" d="M996.8,625.8c0,0.3,0.1,0.6,0.2,0.8c0.1,0.3,0.3,0.5,0.5,0.7c0.2,0.2,0.4,0.3,0.7,0.4
			c0.2,0.1,0.5,0.2,0.8,0.2c0.4,0,0.8-0.1,1.2-0.3c0.4-0.2,0.6-0.5,0.8-0.8l1,0.6c-0.3,0.5-0.7,0.9-1.3,1.2
			c-0.5,0.3-1.1,0.5-1.7,0.5c-0.4,0-0.9-0.1-1.2-0.3s-0.7-0.4-1-0.7c-0.3-0.3-0.5-0.6-0.7-1c-0.2-0.4-0.3-0.8-0.3-1.3
			c0,0,0-0.1,0-0.2c0-0.1,0-0.1,0-0.2c0-0.3,0-0.6,0.1-0.8c0.1-0.4,0.2-0.8,0.4-1.1c0.2-0.3,0.5-0.6,0.7-0.9c0.3-0.2,0.6-0.4,1-0.6
			c0.4-0.1,0.7-0.2,1.1-0.2s0.8,0.1,1.1,0.2c0.4,0.1,0.7,0.3,1,0.6c0.3,0.2,0.5,0.5,0.7,0.9c0.2,0.3,0.4,0.7,0.4,1.1
			c0.1,0.3,0.1,0.5,0.1,0.8c0,0.1,0,0.1,0,0.2c0,0.1,0,0.1,0,0.2H996.8z M1001.1,624.6c-0.2-0.5-0.4-0.9-0.8-1.2
			c-0.4-0.3-0.8-0.5-1.3-0.5c-0.5,0-0.9,0.2-1.3,0.5c-0.4,0.3-0.6,0.7-0.8,1.2H1001.1z"/>
		<path class="st0" d="M1007.1,623c-0.3,0-0.7,0.1-1,0.2c-0.3,0.1-0.6,0.3-0.8,0.5c-0.2,0.2-0.4,0.5-0.5,0.8c-0.1,0.3-0.2,0.6-0.2,1
			s0.1,0.7,0.2,1c0.1,0.3,0.3,0.6,0.5,0.8c0.2,0.2,0.5,0.4,0.8,0.5c0.3,0.1,0.6,0.2,1,0.2c0.4,0,0.8-0.1,1.2-0.3
			c0.4-0.2,0.6-0.5,0.8-0.8l1,0.6c-0.3,0.5-0.8,0.9-1.3,1.2c-0.5,0.3-1.1,0.4-1.7,0.4c-0.5,0-1-0.1-1.4-0.3
			c-0.4-0.2-0.8-0.5-1.2-0.8c-0.3-0.3-0.6-0.7-0.8-1.2c-0.2-0.4-0.3-0.9-0.3-1.4c0-0.5,0.1-1,0.3-1.4c0.2-0.4,0.5-0.8,0.8-1.1
			c0.3-0.3,0.7-0.6,1.2-0.8c0.4-0.2,0.9-0.3,1.4-0.3c0.6,0,1.2,0.1,1.7,0.4c0.5,0.3,1,0.7,1.3,1.2l-1,0.6c-0.2-0.3-0.5-0.6-0.9-0.8
			C1008,623.1,1007.6,623,1007.1,623z"/>
		<path class="st0" d="M1014.8,629.1c-0.5,0-1-0.1-1.4-0.3c-0.4-0.2-0.8-0.4-1.2-0.8c-0.3-0.3-0.6-0.7-0.8-1.2
			c-0.2-0.4-0.3-0.9-0.3-1.4c0-0.5,0.1-1,0.3-1.4c0.2-0.4,0.5-0.8,0.8-1.2c0.3-0.3,0.7-0.6,1.2-0.8c0.4-0.2,0.9-0.3,1.4-0.3
			c0.5,0,1,0.1,1.4,0.3c0.4,0.2,0.8,0.5,1.2,0.8c0.3,0.3,0.6,0.7,0.8,1.2c0.2,0.4,0.3,0.9,0.3,1.4c0,0.5-0.1,1-0.3,1.4
			c-0.2,0.4-0.5,0.8-0.8,1.2c-0.3,0.3-0.7,0.6-1.2,0.8C1015.7,629,1015.3,629.1,1014.8,629.1z M1014.8,623c-0.3,0-0.7,0.1-1,0.2
			c-0.3,0.1-0.6,0.3-0.8,0.5c-0.2,0.2-0.4,0.5-0.5,0.8c-0.1,0.3-0.2,0.6-0.2,1s0.1,0.7,0.2,1c0.1,0.3,0.3,0.6,0.5,0.8
			c0.2,0.2,0.5,0.4,0.8,0.5c0.3,0.1,0.6,0.2,1,0.2s0.7-0.1,0.9-0.2c0.3-0.1,0.6-0.3,0.8-0.5c0.2-0.2,0.4-0.5,0.5-0.8
			c0.1-0.3,0.2-0.6,0.2-1s-0.1-0.7-0.2-1c-0.1-0.3-0.3-0.6-0.5-0.8c-0.2-0.2-0.5-0.4-0.8-0.5C1015.4,623.1,1015.1,623,1014.8,623z"
			/>
		<path class="st0" d="M1023.4,621.8c0.3,0,0.6,0,0.8,0.1l-0.2,1.2c-0.2-0.1-0.4-0.1-0.7-0.1c-0.4,0-0.8,0.1-1.1,0.2
			s-0.5,0.3-0.6,0.5c-0.1,0.2-0.2,0.4-0.3,0.6s-0.1,0.3-0.1,0.5v4.1h-1.2v-6.7h1.2v0.6c0,0,0.1-0.1,0.1-0.1c0.1-0.1,0.2-0.2,0.4-0.3
			c0.2-0.1,0.4-0.2,0.6-0.3C1022.7,621.9,1023,621.8,1023.4,621.8z"/>
		<path class="st0" d="M1031.8,622.1v6.7h-1.2V628c-0.3,0.3-0.7,0.6-1.1,0.8c-0.4,0.2-0.8,0.3-1.3,0.3c-0.5,0-0.9-0.1-1.3-0.3
			c-0.4-0.2-0.8-0.4-1.1-0.8c-0.3-0.3-0.5-0.7-0.7-1.2c-0.2-0.4-0.3-0.9-0.3-1.4c0-0.5,0.1-1,0.3-1.4c0.2-0.4,0.4-0.8,0.7-1.2
			c0.3-0.3,0.7-0.6,1.1-0.8c0.4-0.2,0.8-0.3,1.3-0.3c0.5,0,0.9,0.1,1.3,0.3c0.4,0.2,0.8,0.4,1.1,0.8v-0.8H1031.8z M1028.3,627.9
			c0.3,0,0.6-0.1,0.9-0.2c0.3-0.1,0.5-0.3,0.7-0.5c0.2-0.2,0.4-0.5,0.5-0.8c0.1-0.3,0.2-0.6,0.2-1s-0.1-0.7-0.2-1
			c-0.1-0.3-0.3-0.6-0.5-0.8c-0.2-0.2-0.4-0.4-0.7-0.5c-0.3-0.1-0.6-0.2-0.9-0.2c-0.3,0-0.6,0.1-0.9,0.2c-0.3,0.1-0.5,0.3-0.7,0.5
			c-0.2,0.2-0.4,0.5-0.5,0.8c-0.1,0.3-0.2,0.6-0.2,1s0.1,0.7,0.2,1c0.1,0.3,0.3,0.6,0.5,0.8c0.2,0.2,0.4,0.4,0.7,0.5
			C1027.7,627.8,1028,627.9,1028.3,627.9z"/>
		<path class="st0" d="M1037.1,623c-0.3,0-0.7,0.1-1,0.2c-0.3,0.1-0.6,0.3-0.8,0.5c-0.2,0.2-0.4,0.5-0.5,0.8c-0.1,0.3-0.2,0.6-0.2,1
			s0.1,0.7,0.2,1c0.1,0.3,0.3,0.6,0.5,0.8c0.2,0.2,0.5,0.4,0.8,0.5c0.3,0.1,0.6,0.2,1,0.2c0.4,0,0.8-0.1,1.2-0.3
			c0.4-0.2,0.6-0.5,0.8-0.8l1,0.6c-0.3,0.5-0.8,0.9-1.3,1.2c-0.5,0.3-1.1,0.4-1.7,0.4c-0.5,0-1-0.1-1.4-0.3
			c-0.4-0.2-0.8-0.5-1.2-0.8c-0.3-0.3-0.6-0.7-0.8-1.2c-0.2-0.4-0.3-0.9-0.3-1.4c0-0.5,0.1-1,0.3-1.4c0.2-0.4,0.5-0.8,0.8-1.1
			c0.3-0.3,0.7-0.6,1.2-0.8c0.4-0.2,0.9-0.3,1.4-0.3c0.6,0,1.2,0.1,1.7,0.4c0.5,0.3,1,0.7,1.3,1.2l-1,0.6c-0.2-0.3-0.5-0.6-0.9-0.8
			C1037.9,623.1,1037.5,623,1037.1,623z"/>
		<path class="st0" d="M1043.1,620.2c0,0.2-0.1,0.4-0.2,0.6c-0.1,0.2-0.3,0.2-0.5,0.2s-0.4-0.1-0.6-0.2c-0.2-0.2-0.2-0.3-0.2-0.6
			c0-0.2,0.1-0.4,0.2-0.5c0.2-0.1,0.3-0.2,0.6-0.2s0.4,0.1,0.5,0.2C1043,619.8,1043.1,619.9,1043.1,620.2z M1042.9,628.8h-1.2v-6.7
			h1.2V628.8z"/>
		<path class="st0" d="M1051.2,625.4c0,2.5-1.7,3.6-3.4,3.6c-1.8,0-3.3-1.3-3.3-3.5c0-2.3,1.5-3.6,3.4-3.6
			C1049.8,621.9,1051.2,623.3,1051.2,625.4z M1045.8,625.4c0,1.5,0.9,2.6,2.1,2.6c1.2,0,2.1-1.1,2.1-2.6c0-1.2-0.6-2.6-2-2.6
			C1046.4,622.8,1045.8,624.1,1045.8,625.4z M1049.7,619.1l-1.7,2h-0.9l1.2-2H1049.7z"/>
		<path class="st0" d="M1058.9,624.1c0,0.1,0,0.2,0,0.3c0,0.1,0,0.2,0,0.2v0.2v4h-1.2v-4c0-0.1,0-0.3,0-0.5c0-0.2-0.1-0.4-0.2-0.6
			c-0.1-0.2-0.3-0.4-0.5-0.5c-0.2-0.1-0.5-0.2-0.9-0.2c-0.4,0-0.8,0.1-1.1,0.2s-0.5,0.3-0.6,0.5c-0.1,0.2-0.2,0.4-0.3,0.6
			c0,0.2-0.1,0.3-0.1,0.5v4.1h-1.2v-6.7h1.2v0.6c0,0,0.1,0,0.1-0.1c0.1-0.1,0.2-0.2,0.4-0.3c0.2-0.1,0.4-0.2,0.6-0.3
			c0.3-0.1,0.6-0.1,0.9-0.1c0.5,0,0.9,0.1,1.3,0.2c0.3,0.2,0.6,0.3,0.8,0.6c0.2,0.2,0.4,0.5,0.5,0.7
			C1058.8,623.6,1058.9,623.9,1058.9,624.1z"/>
	</g>
	<g>
		<path class="st0" d="M991.8,560.1c0.9,0,1.7,0,2.6,0.1c7.7-1.3,15.5-1.3,23.2-1.2c-0.3-0.5-0.6-0.9-1-1.5
			c-0.3-0.1-0.8-0.1-1.1-0.8c-0.2-0.5-1-0.7-1.1-1.2c-0.3-1-1.1-1.5-1.8-2.1c-1.3-1.3-2.1-2.9-3.4-4.2c-0.3-0.3-0.5-0.8-0.8-1.2
			c-0.3-0.3-0.4-0.7-0.7-1.2c-0.8-0.4-1-0.6-1.6-1.8c-0.1-0.1-0.2-0.2-0.3-0.3c-1.4-1.6-2.8-3.3-4.1-4.9c-0.1-0.1-0.2-0.2-0.2-0.3
			c0.3-1-0.5-1.4-0.9-2c-0.4-0.7-1-1.4-1.6-1.8c-0.9-0.6-1.2-1.6-1.9-2.3c-0.2-0.2-0.6-0.6-0.5-0.7c0.3-0.9-0.3-0.8-0.8-1
			c-0.2-0.1-0.6-0.3-0.6-0.5c-0.2-0.9-0.5-1.6-1.2-2.1c-0.1-0.1-0.2-0.3-0.2-0.5c-0.1-0.8-0.7-1-1.2-1.3c-0.2-0.1-0.4-0.2-0.7-0.4
			c0.3-0.5,1.1-0.7,0.7-1.6c-0.4,0.6-0.7,1.2-1.5,1.1c-0.1,0-0.3,0.2-0.4,0.4c-0.5,0.6-0.9,1.3-1.4,1.9c-1.2,1.4-2.1,3-2.9,4.6
			c-0.3,0.5-0.6,0.9-1,1c-0.2,0.5-0.3,0.8-0.5,1.1c-0.2,0.3-0.6,0.4-0.6,0.9c0,0.1-0.1,0.3-0.2,0.4c-0.8,0.3-1.1,1-1.2,1.8
			c0,0.1-0.1,0.3-0.2,0.4c-0.4,0.2-0.6,0.4-0.7,1c0,0.3-0.5,0.6-0.7,1c-0.2,0.4-0.4,0.8-0.6,1.2c-0.5-0.1-0.8-0.2-1.2-0.3
			c0.1,0.3,0.3,0.3,0.4,0.5c0.7,0.5,0.7,1,0.1,1.7c0,0-0.1,0-0.2,0c0.1-0.3,0.1-0.6,0.2-0.7c-0.5,0.3-1.1,0.5-1.6,0.8
			c0.4,0.8,0.4,0.8-0.3,1.5c-0.2,0.2-0.4,0.6-0.5,0.9c0.1,0.1,0.1,0.1,0.2,0.2c0.2-0.2,0.4-0.4,0.6-0.5c0.2,0.2,0.3,0.4,0.4,0.6
			l0.2,0c0-0.4,0.2-0.9,0.1-1.3c-0.1-0.6,0.1-0.7,0.6-0.8c0.3,0.9,0.4,0.9,1.2,1c1.7,0.4,3.3,0.7,5,0.4c0.6,0.4,1.2-0.2,1.8-0.2
			c1.1,0,2.2-0.1,3-0.2c0.7-0.9,1.1-1.6,1.6-2.3c0.4,0.4,0.9,0.6,1,1c0.1,0.7,1,0.9,0.7,1.7c0,0.2,0.6,0.5,0.9,0.8
			c-0.1,0.3-0.1,0.6-0.2,1c0.9,0,1.1,0.7,1.3,1.3c0.6,0.1,1.1,0.2,1.8,0.3c-0.3,0.3-0.5,0.5-0.6,0.6c0.1,0.9,1.2,0.6,1.3,1.5
			c0.1,0.7,0.3,1.3,0.5,2c-0.6,0.2-1.1,0.3-1.8,0.2c-0.7-0.1-1.3-0.1-2,0c-0.9,0.1-2,0.4-2.9-0.2c-0.2,0.1-0.5,0.4-0.6,0.3
			c-0.7-0.3-1.4,0-2,0c-0.4,0-0.8,0-1.2-0.1c0-0.1,0-0.1,0-0.2c0.2-0.1,0.4-0.2,0.8-0.4c-2.4-0.4-2.4-0.4-2.9,0.1
			c0.3,0.1,0.6,0.3,0.8,0.4c-1.4,0.1-2.8,0.1-4.1,0.1c-0.9,0-1.7-0.2-2.6-0.2c-0.9,0-1.9,0.1-2.8,0.3c-0.6,0.1-0.9-0.3-1.2-0.7
			c-0.4-0.4,0.1-0.7,0.2-0.9c-0.9-0.7-1.7-0.2-2.6-0.1c0.6-1,1.1-1.8,1.8-2.8c-1.2,0.6-1.9,1.3-2.4,2.4c-0.2-3.8-0.4-7.6-0.5-11.4
			c-0.1-3.7,0-7.5-0.2-11.3c0.3,0,0.5,0.1,0.7,0.1c0.1,0,0.2-0.1,0.3-0.2c-1.2-0.6-1.1-1.5-0.8-2.5c0-0.1-0.1-0.2-0.1-0.3
			c0-1,0-1.9-0.1-2.9c0-1.1,0-2.1,0-3.2c0-0.7,0-1.4,0.2-2c0.6,0.6,1.2,1.1,1.7,1.8c0.5,0.7,1,1.2,2,1.1c0.4-0.1,0.7-0.1,0.8-0.5
			c0.1-0.3,0.2-0.7,0.2-1.1c0-0.6,0-1.1-0.1-1.7c0-0.5,0.5-1,0.1-1.6c0.6-0.8-0.2-1.8,0.3-2.7c0.2-0.3,0.1-0.8,0.2-1.3
			c0.2-0.9,0.4-1.9-0.4-2.7c-0.5-0.6-1-1.2-1.4-1.9c-0.3-0.6-0.6-1.3-1.1-1.5c-1-0.4-1.1-1.6-1.9-2.2c-0.7-0.5-1.1-1.5-1.6-2.3
			c-0.2-0.3-0.4-0.6-0.6-0.8c-0.7-0.6-1.1-1.3-1.1-2.2c0-0.1-0.1-0.2-0.1-0.3c-0.3-0.1-0.7-0.2-1-0.3c-0.1-0.5-0.4-0.9-0.7-1.3
			c-0.4-0.5-1-0.9-1.3-1.4c-0.4-0.8-1.2-1.4-1.2-2.3c0-0.2-0.2-0.3-0.3-0.5c-0.5-0.6-1-1.2-1.4-1.7c-0.2-0.2-0.3-0.5-0.5-0.5
			c-0.7-0.2-1.2-0.7-1.4-1.5c-0.1,0-0.2,0-0.2,0.1c-0.1,0.5-0.1,1-0.2,1.5l0,0c-0.3,0.8,0,1.3,0.6,1.7c-0.7,1.2-0.8,0.9-0.3,2.4
			c0.1,0.3,0.2,0.8,0.1,0.9c-0.5,0.4,0.1,0.8-0.1,1.1c-0.3,0.3-0.6,0.7-0.8,1c0,0,0.1,0.1,0.1,0.1c0.2-0.1,0.5-0.2,0.8-0.3
			c0.1,1.8,0.2,3.5,0.3,5.2c-0.6,0.1-1.1,0.3-1.6,0.4c0,0.1,0,0.1,0,0.2l1.5,0c-0.2,0.2-0.3,0.3-0.3,0.3c0.1,0.4,0.5,0.9,0.4,1.2
			c-0.2,0.8-1,0.3-1.5,0.6c0.5,0.1,0.9,0.2,1.3,0.2c0.2,0.9,0.4,1.7,0.6,2.5c-0.3,0.1-0.5,0.1-0.8,0.2c0.3,0.3,0.6,0.6,0.8,0.8
			c-0.1,0.6-0.4,0.9-0.9,0.8c0,0-0.1,0.1-0.1,0.2c0.3,0.1,0.5,0.2,0.9,0.3l0,3.1c-0.3,0.1-0.6,0.1-1,0.2c1.2,0.6,1.4,1,1.2,2.3
			c-0.2,1-0.1,2.1,0.2,3.1c-0.2,0-0.4,0-0.6,0.1c0.1,0.5,0.3,1,0.4,1.5c0.1,0.5,0.1,1,0.2,1.5c-0.3,0.1-0.6,0.2-0.9,0.3
			c0.6,0.4,0.5,0.5,0.8,1.2c0.2,0.5,0.2,0.9,0,1.3c-0.2,0.4,0.3,0.9-0.3,1.2c0,0,0,0.3,0.1,0.4c0.3,0.2,0.2,0.4,0.2,0.7
			c0,0.3-0.2,0.6-0.1,0.8c0.5,1.2,0.2,2.5,0.4,3.7c0.1,0.7,0.2,1.5-0.3,2.1c-0.1,0.1-0.1,0.4,0,0.5c0.1,0.5,0.3,1,0.4,1.6
			c-0.2,0.1-0.4,0.3-0.7,0.5c0.2,0.4,0.4,0.6,0.6,0.9c0.1,0.2,0.3,0.5-0.1,0.6c-0.1,0-0.1,0.3-0.1,0.4c0.1,0.7,0,1.5,0.2,2.2
			c0.2,0.7-0.1,1.4,0.1,2.1c-0.4,0.3-0.2,0.8-0.2,1.2c0,0.7,0.5,1.3,0.2,2c0.6,1-0.3,1.7-0.5,2.5c0.6,0.4,0.7,0.6,0.4,1.2
			c-0.2,0.4-0.3,0.7,0,1c0.1,0.2,0.3,0.5,0.3,0.7c-0.1,0.2-0.4,0.3-0.7,0.6c0.8,0.6,0.7,1.5,0.3,2.1c-0.9,1.4-0.1,2.6,0.1,4.2
			c-0.1,0.2-0.6,0.7,0.1,1.2c0.1,0,0,0.3,0,0.5c0,0.2-0.1,0.4-0.1,0.4c0.1,0.1,0.1,0.2,0.2,0.2c0,0,0.1,0,0.1-0.1
			c0.9-0.3,1.8-0.4,2.7-0.4c4-0.7,8.4-0.2,12.5,0.2c4-1,8-0.1,12.1,0C991,560,991.4,560,991.8,560.1z M995.9,547.5
			c-0.2-0.1-0.4-0.3-0.6-0.4c0.1-0.1,0.1-0.2,0.2-0.3c0.2,0.2,0.4,0.3,0.6,0.5C996,547.4,995.9,547.4,995.9,547.5z M973.7,553.4
			C973.7,553.4,973.7,553.4,973.7,553.4C973.7,553.4,973.7,553.4,973.7,553.4c-0.5-0.7-0.5-0.8,0.2-1
			C974.1,552.8,973.9,553.1,973.7,553.4C973.7,553.4,973.7,553.4,973.7,553.4c0.3-0.1,0.6-0.2,1-0.4
			C974.5,553.9,974,553.4,973.7,553.4z"/>
		<path class="st0" d="M1059.7,607.5c-0.6-0.7-1.1-1.3-1.7-2c-0.4-0.4-0.7-0.9-1-1.4c-0.1-0.2-0.1-0.4-0.2-0.6
			c-0.1-0.3-0.2-0.6-0.3-1c0.1-0.1,0.3-0.3,0.6-0.6c-0.4-0.2-0.8-0.4-1-0.5c-0.4,0.2-0.8,0.4-1.1,0.6c0.1-0.2,0.2-0.3,0.3-0.5
			c-0.5-0.3-1-0.4-1.4-0.8c-0.7-0.6-1.5-1.1-1.4-2.2c0-0.2-0.3-0.5-0.5-0.7c-0.2-0.3-0.5-0.5-0.8-0.7c0.2-0.4,0.4-0.6,0.7-1.1
			c-0.7,0.2-1,0.3-1.4,0.4c-0.4-0.4-0.8-0.7-1.3-1.1c0.8-0.4,1.5,0.8,2.2-0.1c-0.9-0.2-1.6-0.9-2.6-0.4c-0.5-0.5-1-1-1.6-1.6
			c0.8-0.1,1.3-0.1,1.9-0.2c0-0.1,0-0.2,0-0.2c-0.8-0.2-1.6-0.4-2.3-0.6c-0.2-0.4-0.5-0.8-0.5-1.2c0-0.5,0.2-0.9,0.3-1.4
			c0.9-0.6,2.2-0.4,3.2-1c-0.5-1-0.5-1-1.5-0.5c-0.6,0-1.1-0.2-1.4-0.1c-0.8,0.4-1.5,0.3-2.3-0.1c-0.1-0.4-0.1-0.8-0.2-1.1
			c-0.6-0.2-1.1-0.3-1.8-0.5c0.5-0.3,0.7-0.5,1-0.6c-0.1-0.6-0.5-0.6-0.9-0.5c-0.6,0.1-1,0-1.2-0.6c-0.1-0.5-0.5-0.5-1-0.5
			c-0.4,0-0.7,0-1.1-0.1c-0.2-0.1-0.3-0.4-0.5-0.6c0.3-0.3,0.5-0.4,0.7-0.6c0-0.1-0.1-0.1-0.1-0.2c-0.4,0.1-0.8,0.2-1.2,0.3
			c-4.9-5.8-9.9-11.5-14.6-17.3c0.9-0.8,0.9-0.8,0.8-1.5c-0.8,0.1-1.6-0.1-2.2-0.6c-0.4-0.3-0.7-0.2-1,0.1c-0.8,0.8-1.9,1.3-2.4,2.4
			c-0.1,0.3-0.4,0.4-0.7,0.6c-0.8,0.5-1.5,1.2-1.9,2.1c-0.1,0.3-0.4,0.5-0.6,0.7c-0.2,0.2-0.5,0.3-0.6,0.6c-0.6,1.6-1.9,2.5-2.8,3.8
			c-0.6,0.8-1.3,1.5-1.9,2.3c-1.1,1.3-2.2,2.7-3.3,4c-1.1,1.3-2.2,2.5-3.3,3.8c-0.7,0.8-1.4,1.5-2.1,2.2c-0.1,0.1-0.2,0.1-0.3,0.1
			c-0.6-0.1-0.8,0.3-1,0.8c-0.1,0.4-0.3,0.7-0.6,1c-0.5,0.5-1.2,1-1.4,1.6c-0.3,0.7-0.8,0.7-1.3,0.7c-0.1,1-0.2,1.9-1,2.5
			c0-0.1-0.1-0.1-0.1-0.2c-0.1,0.1-0.2,0.3-0.3,0.4c-0.3,0.3-0.5,0.5-0.8,0.8l0.1,0.1c0,1-0.9,1.5-1.5,2.1c-0.1-0.2-0.2-0.3-0.3-0.4
			c-0.3,0.3-0.5,0.5-0.8,0.8c0.2,0.1,0.4,0.3,0.6,0.4c-0.8,1.1-1.5,2.4-2.9,2.7c-0.2,1-2.8,4.6-4.3,5.8c-0.6-0.5-0.6-0.5-0.7-0.9
			c-0.1-0.3-0.3-0.5-0.5-0.7c-0.5-0.5-1.1-0.9-1.6-1.4c-0.1-0.1-0.2-0.3-0.1-0.4c0.2-0.4,0.1-0.8-0.2-1.1c-0.6-0.3-1.1-0.8-1.4-1.6
			c-0.1-0.1-0.1-0.3-0.1-0.4c-0.1,0.1-0.2,0.1-0.3,0.2c-0.5-0.1-0.2-1.1-1-0.8c0.1-0.5-0.3-0.7-0.7-0.8c0-0.5,0.4-0.8-0.1-1.3
			c-0.3-0.3-0.1-0.5,0.1-0.7c0-0.4,0.2-0.7,0.4-1c-0.3,0.2-0.7,0.1-1.1-0.2c0.5-0.1,1-0.2,1.5-0.2c0,0,0,0.1-0.1,0.1
			c0.3-0.2,0.7-0.4,1.2-0.4c0.4-0.5,1.1-0.8,1.9-0.5c0.5,0.2,1,0.4,1.5,0.5c1.3-0.1,2.6,0,3.9,0c0.2-0.1,0.4-0.3,0.5-0.5
			c0.1-0.2,0.5-0.3,0.7-0.5c0.1,0,0.1,0,0.2,0c0,0,0,0.1,0,0.2c0-0.1,0.1-0.1,0.1-0.2c0.2-0.3,0.4-0.6,0.7-0.8
			c0.8-1.8,2.2-3.2,3.3-3.6c0.3-0.5,0.6-0.7,0.6-1c0.1-1.4,1.2-2.1,2-3c0.5-0.5,0.8-1.4,1.8-1.4c-0.2-1.1,0.8-1.5,1.3-2.1
			c1.5-1.9,3.2-3.6,4.9-5.4c0.3-0.3,0.6-0.5,0.8-0.7c0.8-0.9,1.4-2,2.2-2.9c1.2-1.3,2.7-2.3,3.6-3.9c0.1-0.1,0.2-0.2,0.4-0.3
			c0.5-0.2,0.8-0.5,0.8-1.1c0-0.2,0.3-0.5,0.4-0.7c0.3-0.3,0.5-0.7,0.9-1c-0.5-0.4-0.9-0.8-1.4-1.3c0.3-0.2,0.5-0.3,0.7-0.6
			c0.1-0.1,0.1-0.1,0.2-0.2c-0.2,0-0.3-0.1-0.4-0.1c-0.3,0.5-0.8,0.8-1.3,1c-0.5,0.2-1,0.2-1.5,0.1c-0.5-0.1-1.1-0.1-1.6-0.1
			l-34.2,0c-0.6,0-1.3,0-1.9,0c-2.3,0-4.5,0.1-6.8,0l-4.7,0l-0.9,0l-2.1-0.2l-1.8,0.7c-0.4,0.5-0.8,1.1-1.2,1.6l0,0
			c-0.4,0.6-0.9,1.3-1.3,1.9c-0.9,1.3-1.8,2.6-2.8,3.9c-0.7,1-1.5,2.1-2.2,3.1c-2,2.9-4,5.8-6.1,8.7c-1.7,2.4-3.4,4.7-5,7
			c-1.2,1.7-2.4,3.4-3.6,5.1c-1.3,1.8-2.7,3.7-4,5.5c-0.8,1.1-1.4,2.2-2.3,3.2c-1.1,1.1-1.2,2.5-1.2,3.9c1.4,0,2.7,0,4.1,0
			c0,0,0-0.1,0-0.1l0.8-0.2c0,0,0,0.1,0,0.1c-0.2,0.1-0.4,0.1-0.5,0.2c2.1,0.1,4,0.2,5.8,0.3c0.6-0.8,1.2-1.7,2-2.3
			c0.6-0.5,1-1.3,1.5-1.9c0,0,0-0.1,0-0.1c-0.5-0.6,0.1-1,0.4-1.3c0.7-0.7,1.3-1.5,1.7-2.4c0.3-0.6,0.8-1,1.3-1.6
			c0.3-0.4,0.9-0.7,1-1.2c0.2-1.3,1.1-1.9,2-2.7c0.2-0.2,0.5-0.5,0.6-0.8c0.1-0.4,0.2-0.8,0.7-1c0.1,0,0.3-0.2,0.3-0.3
			c0-0.5,0.3-0.7,0.6-1c0.5-0.5,1.1-1.1,1.3-1.8c0.4-1.1,1.3-1.8,2-2.6c0,0,0,0,0.1,0c0-0.1,0.1-0.2,0.1-0.2c0-0.1,0.1-0.1,0.1-0.2
			c0,0-0.1-0.1-0.1-0.1c0.5-0.6,1-1.2,1.5-1.8c0-0.1,0.1-0.3,0.1-0.4c0.1-0.8,0.6-1.2,1.1-1.3c0-0.2,0.1-0.4,0.4-0.6l0.1,0.1
			c0.3-0.6,0.7-1.1,1.3-1.5c0.1-0.7,0.5-1.2,1.1-1.5c0.3-0.5,0.5-0.9,0.9-1.3c0.2-0.2,0.4-0.5,0.6-0.6c0.2-0.2,0.4-0.5,0.6-0.7
			c0.1-0.1,0.2-0.2,0.4-0.3c0.4-0.5,0.9-0.9,1.6-0.8c0.6,0,1.2,0.2,1.8,0.3c-0.1-0.1-0.1-0.2-0.2-0.3c1,0,2-0.1,2.9-0.1
			c-0.1,0.1-0.2,0.3-0.3,0.5c0.8,0.4,0.6-0.4,1-0.9c0.4,0.3,0.8,0.7,1.3,1.2c0.4-0.1,1.1-0.1,1.4-0.4c0.3-0.3,0.6-0.4,0.9-0.5
			c0.6-0.4,0.9-0.1,1.3,0.3c-0.3-0.6,0-0.7,0.8-0.7c-0.3,0.4-0.5,0.6-0.7,0.7c0.6-0.3,1.3-0.6,2-0.9c0.2,0.4,0.3,0.6,0.4,0.9
			c0.1,0,0.3,0,0.3-0.1c0.4-0.5,0.9,0,1.3,0c0.8,0,1.6-0.1,2.4-0.1c0.2,0,0.5-0.1,0.7-0.2c0.3-0.2,0.5-0.3,0.9,0
			c0.1,0.1,0.4,0.1,0.5,0.1c0.2,0,1.3,0,1.5,0c1,0.1,2,0.1,3,0.2c0.7,0,1.4,0.1,2.1,0.1c1.4,0,3.8-0.8,3.7,0.9
			c0,0.8-3.2,3.8-3.8,4.1c0.3-0.4,0.6-1,0.9-1.5c-1.9,1.3-3.6,3-5.7,4.1c-3.8,1.9-9,0.8-13,0.3c-1.6-0.2-3.2,0.3-4.8,0.2
			c-0.9,0-4.1-0.8-4.7-0.3c-0.2,0.1-0.3,0.2-0.5,0.3c-0.9,0.3-1.1,1.7-1.2,2.7c0.3,0.2,0.6,0.4,0.8,0.6c0,0.1,0.1,0.1,0.1,0.2
			c0.1-0.2,0.1-0.5,0.2-0.7c0.6,0.9,1.1,2.1,1.1,2.8c0,0,0,0.1,0,0.1c0.1,0.1,0.1,0.2,0.2,0.3c0.1,0.2,0.3,0.3,0.4,0.5
			c0.1,0,0.1,0,0.2,0c0.3,0.1,0.6,0.4,0.8,0.6c0.1,0.3,0.2,0.6,0.3,1c0.2,0.3,0.4,0.6,0.7,0.9c0.2-0.1,0.4-0.1,0.5-0.2
			c0.9,0.8,1.1,1.1,1,1.8c0.9,0.7,1.7,1.6,2.3,2.7c0.4,0.6,0.7,1.3,1.2,1.8c0.1-0.2,0.2-0.3,0.3-0.5c0.4,0.5,0.6,0.8,0.5,1.1
			c1.5,0.9,3,1.9,3.8,3.5c0.1,0.2,0.1,0.4,0.2,0.7c0.4,0.6,0.9,1.2,1.2,1.8c0.4,0.8,0.5,1.7,1.4,2.1c0.1,0,0.1,0.1,0.2,0.2
			c3.9,0,7.8,0.1,11.7,0.2c4.7-1.8,10.8-0.3,15.8-0.2c0.5,0,0.9,0.1,1.4,0.2c0.5-0.4,1.1-0.7,1.8-0.9c0.1,0,0.3,0,0.4-0.1h0
			c0.1,0,0.3-0.1,0.4-0.1c0.6-0.2,1.2-0.3,1.9-0.3c0.5,0.1,1,0.1,1.6,0.2c0.5,0.1,0.9,0.3,1.3,0.6h10.4c0.8,0,1.6,0.2,2.4,0.5
			c3.9-0.8,7.9-0.6,12.1-0.5c0.3,0,0.5,0,0.8,0.1c0.5,0,1,0,1.5,0.1c0.1,0,0.2,0,0.4,0.1c0.2,0,0.3,0,0.5,0c0.9-0.7,2-1.1,3.5-1.1
			c1.1,0,2,0.3,2.7,0.7c1.4-0.4,2.8-0.3,4,0.3c3.5-0.3,6.9-0.4,10.4-0.3C1059.9,607.7,1059.8,607.6,1059.7,607.5z M969.2,576.1
			c-0.2,0-0.3-0.1-0.5-0.1c0.1-0.1,0.2-0.2,0.3-0.2c0,0,0.1,0.1,0.2,0.1C969.2,575.9,969.2,576,969.2,576.1z M985,575.3
			c0-0.1,0-0.2,0-0.2l0.9,0C985.5,575.2,985.2,575.3,985,575.3z M970.3,585.4c-0.1,0-0.2-0.2-0.2-0.3c0,0,0.2-0.2,0.2-0.2
			c0.1,0,0.2,0.1,0.4,0.3C970.5,585.2,970.4,585.4,970.3,585.4z M974.9,589.6c-0.5,1,0.2,1.4,0.9,1.9c-0.3,0.1-0.5,0.3-0.6,0.2
			c-0.6-0.6-1.2-1.2-1.9-1.9c0.4-0.2,0.6-0.3,0.8-0.4l0-1c-0.1,0-0.2,0-0.3,0c-1.2,0.8-1.4,0.8-1.9-0.5c-0.2-0.4,0-0.7,0.3-0.9
			c0.3-0.2,0.7-0.1,0.8,0.2c0.3,0.6,0.8,0.7,1.4,0.8c0.1,0,0.3,0,0.4,0c0.8,0.6,1.4,1.3,2.1,2.1
			C975.7,590.6,975.6,590.6,974.9,589.6z M977.8,594.8c-0.2-0.1-0.4-0.2-0.6-0.3l0.1-0.2c0.2,0.1,0.4,0.2,0.6,0.3
			C977.9,594.6,977.8,594.7,977.8,594.8z M1023.5,564.5c0,0.1,0,0.1,0,0.2c-0.2,0-0.4,0.1-0.5,0.1c0-0.1,0-0.2,0-0.3L1023.5,564.5z
			 M1030.8,597.8c0.1,0.7,0.7,1.1,0.2,1.6c-0.3,0.4-0.6,0.7-1,0.7c-1,0-2,0.1-3,0c-1.8-0.1-3.5-0.2-5.3-0.2
			c-1.6-0.1-3.1-0.2-4.7-0.2c-0.4,0-0.8,0.1-1.2,0.1c-0.4,0-0.7,0-1.2,0c0.3-0.9,1-0.3,1.4-0.6c0.1-0.4-0.2-0.7-0.6-0.5
			c-0.7,0.3-1.6,0.2-2.2,0.8c-0.3,0.3-0.7,0.6-1.1,0c0-0.1-0.2-0.1-0.3,0c-1.6,0.7-3.3,0.2-4.9,0.4c-0.3,0-0.6,0.1-1,0.1
			c-0.4,0-0.8,0-1.1-0.1c0-0.1,0-0.2,0-0.3c0.4-0.1,0.7-0.2,1.3-0.3c-0.3-0.2-0.5-0.4-0.8-0.7c1.1,0.1,1.2-1.1,2.1-1.3
			c0.6,0.6,1.2,1.4,2.3,1c-0.1-0.1-0.1-0.2-0.2-0.2c-1-0.2-1.4-1.1-2.1-1.6c0.2-1.1,1.2-0.8,1.9-1.2c-0.1-0.2-0.2-0.4-0.3-0.7
			c1.2-1,1.9-2.6,3.5-3.3c0-0.3,0-0.6-0.1-0.9c0.7-0.5,1.5-0.8,2.1-1.4c0.5-0.5,0.7-1.3,1.1-2.1c0.3,0,0.7,0.1,1.3,0.2
			c-0.2-0.3-0.3-0.6-0.5-0.9c0.3-0.5,1.3-0.8,0.7-1.7c0.5-0.5,1.4-0.6,1.5-1.6c0-0.2,0.5-0.4,0.7-0.6c0.3-0.3,0.8-0.5,0.8-1.1
			c0-0.3,0.6-0.6,0.9-0.9c1.4,1.3,3,2.3,3.7,4.1c0.1,0.2,0,0.4,0,0.7c0.6-0.2,1,0.3,1.5,0.8c1.4,1.3,2.5,2.8,3.6,4.3
			c0.4,0.6,1.1,1.2,1,2.1c0,0,0.1,0.1,0.2,0.1c0.4,0.3,0.9,0.5,1.1,0.9c0.4,0.6,0.7,1.1,1.3,1.5c0.2,0.1,0.6,0.4,0.3,0.8
			c0,0,0.1,0.2,0.2,0.3c0.5,0.4,1,0.8,1.5,1.2c0.3,0.3,0.3,0.7,0.5,1c0.2,0.3,0.4,0.5,0.7,0.9c-1,0.4-2,0-3.1,0.4
			c0.1-0.3,0.2-0.5,0.3-0.7c-0.5,0.1-1,0.1-1.6,0.1C1031.7,598.5,1031.3,598.2,1030.8,597.8z M1032.5,599.9c1.5-0.6,2.8-0.4,4.1-0.2
			c0,0.1,0,0.2,0,0.3L1032.5,599.9z M1042.7,587.6c0.2-0.4,0.8-0.3,1.5,0.1c-0.4,0.2-0.7,0.3-1.1,0.5
			C1043,588.1,1042.8,587.9,1042.7,587.6z M1046,589.6c-0.7,0.2-1.3,0-1.8-0.5c0-0.1,0-0.2,0.1-0.3c0.6,0.1,1.2,0.3,1.8,0.4
			C1046,589.3,1046,589.5,1046,589.6z"/>
		<path class="st0" d="M949.9,563.5c-0.2-0.1-0.4-0.3-0.6-0.4c-0.2,0.1-0.3,0.2-0.5,0.5c0.1-0.5,0.2-0.8,0.2-1.2
			c-0.9,1.2-2.4,0.3-3.4,1c0,0-0.2,0-0.2-0.1c-0.3-0.3-0.5-0.2-0.8-0.1c-0.7,0.1-1.5,0.1-2.3,0.1c-1.6,0-3.3,0-4.9,0
			c-1.4,0-2.7,0-4.1,0.1c-1.1,0-2.1-0.5-3.2,0c-0.1,0-0.3,0-0.4-0.1c-0.3-0.2-0.4-0.2-0.7,0c-0.2,0.1-0.5,0.1-0.8,0.1
			c-1.8,0-3.5,0-5.3,0c-0.7,0-1.4,0-2-0.1c-0.2,0-0.5-0.1-0.6-0.2c-0.4-0.4-0.8-0.3-1.2-0.1c-0.6,0.3-1.3,0.3-2,0.3
			c-1.4,0.1-2.9-0.2-4.3,0c-1.1,0.1-2.2,0-3.2,0.1c-0.4,0-0.8,0-1.1,0c-0.9,0.1-1.2-0.3-1.1-1.2c-0.1-0.1-0.3-0.2-0.4-0.2
			c-0.4,0.3-0.7,0.6-1.1,0.9c0.2,0.1,0.3,0.2,0.7,0.4c-1.7,0-3.2-0.1-4.6,0c-1,0.1-1.9-0.3-2.9-0.4c-0.7,0-1.4-0.3-2-0.1
			c-0.7,0.2-1.4,0.3-2.1-0.1c-0.4,0.3-0.8,0.6-1.2,0.8c0.2,0.2,0.3,0.3,0.6,0.6c-0.5,0.1-0.9,0.2-1.3,0.2c-0.8,0.1-1.2-0.5-1.6-0.7
			c-0.6,0.2-1.1,0.3-1.5,0.4c-0.6,0.1-1,0.3-1,1c0.4,0.1,0.8,0.2,1.3,0.3c-0.4,0.1-0.6,0.3-0.8,0.3c-0.7,0-1.1,0.6-1.2,1
			c-0.2,1-1,1.6-1.6,2.3c-0.4,0.5-1,0.9-1.4,1.5c-1.5,1.8-3,3.7-4.4,5.5c-0.1,0.1-0.1,0.3-0.2,0.4c0.2,0,0.3,0.1,0.4,0.1
			c1.2-0.8,2.3-1.7,3.3-2.8c0.1-0.1,0.1-0.4,0.1-0.5c-0.2-0.6,0.2-0.7,0.6-0.8c0.3-0.1,0.6,0,0.8,0c0.5-0.9,0.8-1.9,1.4-2.7
			c0.6-0.9,1.5-1.5,2.2-2.3c0.6-0.6,1.2-0.9,2.1-0.6c-0.3,0.5-0.6,1-1,1.4c-0.7,0.8-1.4,1.5-2,2.4c-0.9,1.4-2,2.6-3,3.8
			c-0.5,0.7-1.1,1.3-1.6,2c-0.6,1-1,2.1-2.2,2.6c-0.1,0-0.1,0.2-0.1,0.3c-0.3,0.5-0.6,1-0.9,1.4c-1.3,1.7-2.7,3.5-4,5.2
			c-0.3,0.4-0.8,0.7-1.3,1.1c0.2,0.4,0,0.7-0.4,0.9c-0.5,0.2-0.9,0.5-0.9,1.1c0,0.2-0.3,0.5-0.5,0.7c-0.6,0.7-1.1,1.4-1.7,2.2
			c-1.4,1.8-2.8,3.7-4.2,5.5c-0.9,1.2-1.9,2.4-2.9,3.7c-0.6,0.8-1.3,1.6-1.9,2.4c-0.8,1-1.6,2-2.4,3c-0.1,0.2-0.3,0.4-0.4,0.5
			c0,0.4,0,0.8,0.1,1.2c0.1,0,0.2,0,0.2,0c0.4-0.1,0.8-0.2,1.2-0.4c1-0.4,2-0.3,2.9-0.1c4.1-1,8.6-0.8,12.9-0.5
			c0.4-0.3,0.8-0.5,1.2,0c0,0-0.1,0-0.1,0.1c0.5,0,0.9,0.1,1.3,0.1c0,0,0,0,0,0c0.1-0.1,0.3-0.2,0.5-0.3c0,0.1,0.1,0.2,0.1,0.2
			c-0.1,0-0.1,0-0.2,0.1c1.3,0.1,2.5,0.1,3.7,0.2c-0.1-0.1-0.2-0.3-0.4-0.5c1.8-0.2,3.3-0.1,4.9,0c-0.2,0.3-0.4,0.4-0.7,0.5
			c1.1,0,2.1,0,3.2,0c0.5-0.6,0.8-0.6,1.5-0.4c-0.1,0.1-0.2,0.3-0.3,0.4c1.9,0,3.7-0.1,5.6-0.1c0,0-0.1,0-0.1-0.1
			c0.3,0,0.5-0.1,0.8-0.1c0,0,0,0.1,0,0.2c3-0.1,6-0.2,9-0.2v0h0c3.2-0.1,6.5-0.1,9.7,0c0.1,0,0.1-0.1,0.2-0.1c0,0,0,0.1,0,0.1
			c0.2,0,0.4,0,0.6,0c0.3,0,0.6,0,0.9,0.1c0,0,0-0.1,0-0.1c0.4-1.3,1.2-2.2,2-3.3c0.9-1.2,1.7-2.4,2.6-3.6c0.7-0.8,1.4-1.6,1.8-2.5
			c0.4-0.8,1-1.5,1.6-2.3c0.8-1,1.1-2.3,2.4-2.9c0.1,0,0.1-0.4,0.2-0.5c0.1-0.2,0.1-0.5,0.2-0.7c1-1.1,1.8-2.4,2.6-3.7
			c1.3-1.8,2.5-3.6,3.8-5.3c1.2-1.5,2-3.3,3.6-4.4c0.2-0.1,0.3-0.3,0.3-0.5c-0.1-0.6,0.4-0.9,0.7-1.3c0.6-0.7,1.2-1.4,1.7-2.1
			c1-1.5,2-3.1,3-4.6c0.5-0.7,1-1.3,1.5-2c0.5-0.6,0.8-1.5,1.4-1.9c0.8-0.4,1-1.3,1.8-1.6c0.1,0,0.1-0.3,0.2-0.4
			C950.3,563.8,950.1,563.6,949.9,563.5z M929.8,575.4c-0.3,0.4-0.5,1-0.8,1.4c-1.3,1.8-2.6,3.6-4,5.4c-0.8,1.1-1.6,2.3-2.4,3.4
			c-0.2,0.2-0.4,0.4-0.6,0.6c-0.2,0.2-0.4,0.4-0.6,0.6c-0.8,1.3-1.6,2.6-2.5,3.9c-0.7,1-1.6,2-2.3,3c-0.5,0.7-0.9,1.6-1.4,2.3
			c-0.5,0.7-1.1,1.2-1.9,1.7c-2,1-4.1,0.4-6.2,0.6c-1,0.1-2.1,0-3.1,0c-0.1-0.2-0.2-0.4-0.3-0.6c-0.1,0-0.2,0.1-0.3,0.1
			c-0.4,0.1-0.9,0.4-1.3,0.4c-3.1,0.1-6.2,0.1-9.2,0.1c-2,0-3.9,0-5.9,0c-0.7,0-1.4,0-1.7-0.7c-0.6,0.1-1.1,0.2-1.8,0.3
			c1.4-2.8,2.6-5.4,4.7-7.5c0.5-0.5,0.9-1,1.3-1.6c0.4-0.6,0.8-1,1.6-0.8c0-0.4,0-0.6-0.1-0.9c0.4-0.1,0.7-0.4,0.9-0.9
			c0.2-0.6,0.8-1.2,1.3-1.7c0.5-0.5,0.9-1.1,1.4-1.6c0.4-0.4,0.9-0.8,1.4-1.2c0.3-0.3,0.6-0.5,1-0.8c-0.2-0.3-0.4-0.5-0.6-0.7
			c1.6-1.2,2.7-2.9,4-4.3c0.5-0.5,1-1,1.7-1.3c0.6-0.2,1.1-0.3,1.4,0.2c1.1-0.4,2.1-0.7,3.1-1.1c1,0.3,2,0.9,3.2,0.8
			c0-0.1,0.1-0.2,0.1-0.3c-0.3-0.1-0.6-0.2-0.9-0.3c0.4-0.5,0.4-0.5,2.5,0c-0.1,0.1-0.1,0.2-0.2,0.2c-0.1,0.1-0.2,0.1-0.6,0.3
			c1,0.1,1.8,0,2.5-0.1c0.8-0.1,1.5-0.2,2.3-0.1c0.8,0.1,2,0.1,2.6-1.2c0.2,1,0.9,1,1.5,1c1,0,1.9,0.1,2.9,0.2
			c0.3,0,0.6,0.3,0.9,0.5c0.4-0.4,0.8-0.8,1.3-1.3c0.2,0,0.6,0,0.8,0.2c0.7,0.6,1.4,0.4,2.1,0.2c0.5-0.1,0.9-0.2,1,0.4
			c0.8-0.1,1.6-0.2,2.5-0.2c0,0.1,0,0.1,0.1,0.2C930.7,574.6,930.2,574.9,929.8,575.4z"/>
		<g>
			<g>
				<path class="st0" d="M939.7,559.6h17.6c0-0.9,0.1-1.8,0.2-2.7c0-0.5,0.2-1,0.4-1.5c0.7,0.1,0.5-0.8,1-1l1.2,0
					c-0.8-0.9-1.7-1.2-2.6-1.2c0-0.7-0.2-1.4,0.7-1.6c0.3,0.2,0.6,0.4,0.9,0.6l0.2-0.1c-0.4-0.5-0.8-1-1.1-1.4
					c0.4-0.4,0.7-0.8,0.9-1.2c-0.5,0.1-1,0.3-1.5,0.5l0.1-5.1c0.3-0.1,0.6-0.2,0.9-0.3c-0.1-0.6-0.2-1.2-0.3-1.7
					c0.4-0.3,0.7-0.4,1-0.6c0-0.1-0.1-0.1-0.1-0.1c-0.5,0.1-1,0.3-1.5,0.4c-0.2-0.9,0.4-1.5,0.7-2.2c-0.2-0.1-0.6-0.2-0.6-0.3
					c-0.3-1.2,0.1-2.3,0.5-3.3c-0.2-0.2-0.6-0.4-0.6-0.4c0.1-0.3,0.3-0.6,0.5-0.9c-0.5-0.8-0.5-1.4,0.1-2.1
					c-0.1-0.2-0.2-0.4-0.2-0.5c0-1,0.4-1.9,0.2-2.9c-0.1-0.7-0.3-1.4-0.3-2.2c-0.1-3.1,0.2-6.2,0.2-9.3c0-0.5-0.1-1-0.1-1.5
					c0.3,0.1,0.5,0.2,0.8,0.4c-0.3-0.5-0.7-0.8-0.7-1.2c-0.1-0.7,0-1.5,0-2.3c0.1-1.1,0.2-2.2,0.3-3.4c0.1-0.1,0.3-0.2,0.5-0.3
					c-0.2-0.4-0.4-0.7-0.4-1c-0.1-0.8-0.3-1.5-0.3-2.3c0-1.5,0-3,0-4.5c0-0.7-0.2-1.5,0.4-1.9c-0.2-0.3-0.4-0.5-0.4-0.6
					c0-1-0.3-2.2,0.5-3.1c-0.6-0.6-0.6-1.4-0.4-2.1c0.2-1-0.2-2,0.3-2.9c0.1-0.2-0.1-0.6-0.2-0.9c0.8-0.7,0.8-0.7,0-1.6
					c-0.8,0.7-1.6,1.4-2.5,2.1c-1.2,0.9-1.9,2.2-2.9,3.2c-0.4,0.4-0.7,0.8-1,1.1c-0.4,0.5-1,0.9-1.2,1.4c-0.2,0.8-0.6,1.2-1.3,1.3
					c-0.2,0.5-0.3,1.1-0.6,1.2c-1.1,0.5-1.4,1.3-1.4,2.1c-0.6,0.6-1.1,1-1.4,1.5c-0.5,0.6-0.8,1.5-1.4,1.9c-0.8,0.6-1.4,1.2-1.8,2.1
					c0,0.1-0.1,0.1-0.2,0.1c-0.2-0.1-0.3-0.2-0.5-0.2c-0.1,0.1-0.2,0.2-0.2,0.3c0,0.8-0.4,1.3-1,1.8c-0.2,0.2-0.4,0.4-0.5,0.6
					c-0.9,1.3-1.8,2.5-2.7,3.8c-0.2,0.3-0.5,0.6-0.8,0.9c-0.3,0.3-0.7,0.6-1,1c-0.6,0.9-0.9,1.9-1.7,2.6c-0.8,0.7-0.9,1.8-1.6,2.6
					c-0.6,0.7-1.1,1.6-1.8,2.2c-0.4,0.4-0.4,0.8-0.4,1.3c0,0,0,0,0,0c0,0,0,0,0,0c0.2-0.1,0.4-0.2,0.7-0.3c-0.3,0.5-0.3,0.5-0.7,0.3
					c0,0,0,0,0,0c0,0,0,0,0,0c-0.2,0-0.5-0.1-0.6,0c-0.9,0.9-1.8,1.7-2.5,2.7c-0.7,1-1.2,2.1-2.3,2.8c-0.1,0.1-0.2,0.3-0.3,0.4
					c-0.3,0.4-0.6,0.7-0.9,1.1c-0.5,0.9-1.7,1.4-2,2.5c0,0.2-0.3,0.3-0.4,0.4c-0.8,0.7-1.6,1.3-2.2,2.1c-0.5,0.7-0.6,1.7-1.7,1.9
					c0,0,0,0.1-0.1,0.1c-0.5,1-1.3,1.8-2.4,2.3c-0.1,0-0.2,0.1-0.2,0.2c0,0.8-0.8,0.8-1.2,1.3c0.2,0.3,0.3,0.6,0.4,0.7
					c-0.6,0.2-1.2,0.3-1.5,0.6c-1,0.9-1.9,1.9-2.9,2.9c-0.1,0.2-0.2,0.4-0.2,0.6c0,0.2,0.1,0.3,0.1,0.6c-0.1,0-0.2,0-0.3,0.1
					c0,0.1-0.1,0.2-0.1,0.2c0,0.1,0,0.1-0.1,0.2c1,0,2,0.4,3.1,0.6c0.8,0.1,1.7-0.1,2.5,0.4c0,0,0,0,0,0c-0.6-2,2.4-3.5,3.5-1.4
					c0.3,0.6,0.6,1.1,1,1.6c0.3,0,0.5,0,0.7,0.1c0.1,0,0.3,0.1,0.5,0.2c-0.1,0.3-0.1,0.5-0.2,0.9c0,0,0,0,0,0.1
					c0.6-0.5,1-0.9,1.7-0.8c0.2,0,0.4-0.2,0.6-0.4c0.6-0.7,1.2-1.4,1.7-2.1c0.9-1.1,1.7-2.2,2.6-3.2c0.6-0.8,1.3-1.5,1.9-2.3
					c0.7-0.9,1.3-1.8,2-2.7c2-2.5,4-5,6-7.5c2.4-3,4.8-6,7.2-9c0.5-0.6,1.2-1.2,1.7-1.8c0.9-1.1,1.6-2.2,2.5-3.3c0,0,0,0,0-0.1
					c0,0,0,0,0,0c0.1-0.1,0.2-0.3,0.4-0.5c0,0.6,0,0.6-0.4,0.5c0,0,0,0,0,0c0,0,0,0,0,0c0.1,0.4,0.2,0.8,0.3,1.2
					c0.1,0.5,0.1,1,0.4,1.3c0.5,0.5,0,0.9,0,1.3c0,1.7-0.1,3.3-0.2,5c0,0.6-0.2,1.3-0.2,1.9c0,1,0.2,2.1,0.1,3.1
					c0,1.4-0.1,2.8,0.2,4.2c0.1,0.4,0.2,1,0,1.3c-0.5,0.9-0.3,1.6,0,2.4c0.1,0.2,0.1,0.4,0.1,0.6c-0.1,0.9-0.2,1.9-0.3,2.8
					c-0.3,0-0.5,0-0.8,0c0,1.2,0.1,2.5-0.2,3.7c-0.3,1.2-0.1,2.4-0.4,3.7c-1-0.4-1-0.4-1.7,0.1c0.6,0.2,1.1,0.3,1.6,0.5
					c-0.1,0.2-0.4,0.4-0.4,0.5c0,0.2,0.2,0.5,0.3,0.8c-0.3,0-0.6,0.1-0.8,0.1c-2.4-0.1-4.7-0.1-7.1-0.2c-2.1,0-4.2-0.1-6.3-0.1
					c-1.1,0-2.2-0.1-3.3-0.1c-1.3,0-2.5,0.1-3.8,0.1c-0.5,0-1-0.2-1.6-0.4c-0.9,0.5-1.9,0.2-3,0.2c0.9,0.9,1.8,1.7,2.7,2.5
					c1.8,1.7-1,4.3-2.8,2.6c-1-1-2-1.9-3-2.9c-0.7,0.7-1.5,1.3-2.2,2c-0.1,0.1-0.4,0.3-0.4,0.4c-0.1,0.6-0.5,1-1,1.3
					c-0.2,0.1-0.3,0.2-0.4,0.4c-0.4,0.8-0.9,1.6-1.3,2.4c0,0.1-0.1,0.1-0.1,0.2c0.3,0,0.7,0,1-0.1c0.2,0,0.5-0.1,0.7-0.1
					c3.4,0,6.8-0.4,10.1-0.4c0.1,0,0.2,0,0.3,0c0.1,0,0.3,0,0.5,0h12.1C938.4,559.2,939.1,559.3,939.7,559.6z M958.5,553.7
					c0,0.1,0.1,0.1,0.1,0.2c-0.3,0.1-0.5,0.3-0.8,0.4c-0.1-0.1-0.1-0.2-0.2-0.3C958,553.9,958.3,553.8,958.5,553.7z M913.8,545.9
					c-0.1,0-0.3-0.1-0.4-0.2c0.1-0.1,0.1-0.2,0.2-0.2c0.1,0,0.3,0.1,0.4,0.1C913.9,545.7,913.9,545.9,913.8,545.9z M916,543.4
					c0.2-1.4,0.5-1.8,2.1-2.6C917.4,541.6,916.8,542.4,916,543.4z M918.9,539.6c-0.1-0.1-0.2-0.1-0.2-0.2c0.2-0.3,0.4-0.6,0.6-0.9
					c0.1,0.1,0.2,0.1,0.3,0.2L918.9,539.6z M921.3,536.7c0,0-0.1,0-0.5,0c0.3-0.4,0.5-0.6,0.7-0.8c0.1,0.1,0.1,0.1,0.2,0.2
					C921.6,536.3,921.5,536.5,921.3,536.7z M923.8,533.7C923.8,533.7,923.8,533.7,923.8,533.7c-0.3,0.3-0.6,0.6-0.9,0.8
					C922.9,533.9,922.9,533.9,923.8,533.7C923.8,533.7,923.8,533.7,923.8,533.7C923.8,533.7,923.8,533.7,923.8,533.7
					c-0.3-0.7,0.2-1,0.8-1.2C924.3,532.9,924.1,533.3,923.8,533.7C923.8,533.7,923.8,533.7,923.8,533.7z M925.8,530.8
					c-0.1,0-0.2-0.1-0.2-0.2c0-0.1,0.1-0.1,0.2-0.3c0.1,0.1,0.2,0.2,0.2,0.3C926,530.7,925.9,530.8,925.8,530.8z M948.4,542.7
					c0.1,0,0.2,0,0.4,0c-0.1,0.6-0.2,1.3-0.2,1.9c-0.1,0-0.2,0-0.3,0C948,544,948.3,543.4,948.4,542.7z M948.4,545.7
					c0,0.2,0,0.5-0.1,0.7c0,0-0.1,0-0.1,0c0-0.2-0.1-0.5-0.1-0.7C948.2,545.7,948.3,545.7,948.4,545.7z"/>
				<path class="st0" d="M912.7,547.1c0,0-0.1-0.2-0.1-0.2c0.1-0.1,0.2-0.1,0.2-0.2c0,0.1,0.1,0.1,0.1,0.2
					C912.8,547.1,912.7,547.1,912.7,547.1z"/>
				<path class="st0" d="M932.7,522.2c0-0.1,0-0.2,0-0.3c0,0,0.1,0,0.2-0.1c0,0,0.1,0.1,0.1,0.1
					C932.9,522.1,932.8,522.2,932.7,522.2z"/>
				<path class="st0" d="M935.7,518.5c0,0-0.1-0.1-0.1-0.1c0.1-0.1,0.2-0.2,0.3-0.4c0,0,0.1,0.1,0.1,0.1
					C935.9,518.2,935.8,518.4,935.7,518.5z"/>
				<path class="st0" d="M948.5,548.9c-0.1,0.1-0.1,0.2-0.2,0.3c0,0-0.1,0-0.1,0c0-0.1,0.1-0.2,0.1-0.3
					C948.4,548.9,948.5,548.9,948.5,548.9z"/>
				<path class="st0" d="M947.8,493.8c-0.9-0.1-1.2-0.4-0.9-1c0.5-1.3,0.3-2.5,0.3-3.8c0.1-2,0.4-3.9,1-5.7c0.2-0.7,0.7-1.4,1.2-1.9
					c1-1.1,2.2-2.1,3.3-3.1c1.4-1.3,2.4-2.8,2.3-4.7c0-0.2-0.1-0.4-0.2-0.7c1.2-0.1,1.4-1.1,1.6-2.2c1,0.6,1,1.4,1.2,2.1
					c0.3,1.7,0.5,3.4,0.7,5.1c0.1,0.3,0,0.7,0,1c0,0.4-0.2,0.9-0.1,1.3c0.1,1.3-0.3,2.4-0.7,3.5c-0.1,0.3,0,0.6,0,0.7
					c-0.6,0.8-1,1.5-1.5,2.3c-0.9,1.4-1.8,2.9-3.3,3.9c-0.3,0.2-0.7,0.4-1,0.5c-0.7,0.3-1.2,0.6-1.6,1.3c-0.4,0.6-1,1.1-1.5,1.6
					C948.4,494.1,948,493.9,947.8,493.8L947.8,493.8z"/>
				<path class="st0" d="M903,559.9c2.3,0,4.7-0.1,7-0.1c0.3-0.2,0.6-0.5,0.9-0.9c-0.1-0.1-0.3-0.3-0.5-0.4c0.1-0.2,0.2-0.4,0.3-0.6
					c0.8-1.6,0.3-3.1-0.3-4.6c0-0.1-0.2-0.3-0.3-0.3c-1-0.5-1.8-1.2-3-1.4c-0.2,0-0.4,0-0.6-0.1c0,0-0.1,0.1-0.1,0.1
					c-0.2,0.1-0.4,0.2-0.5,0.2c-0.4,0.6-0.7,1.3-1.1,1.9c-0.7,1-1.4,1.9-2.4,2.5c-0.2,0.3-0.5,0.6-0.7,0.9c-0.1,0.1-0.3,0.2-0.4,0.3
					c0.3,0.8,0.8,1.5,1.4,2.1C902.7,559.7,902.8,559.8,903,559.9z"/>
			</g>
			<path class="st0" d="M914.5,559.6c3.4,0,6.8-0.4,10.1-0.4c0,0,0,0,0.1,0l-0.4-8.6l-3,0.2l1.5-1.9l-5-10.8l-8.4,9.6
				c-0.2,0.5-0.5,0.8-0.9,1l-0.4,0.5c-0.2,1-0.8,1.9-1.8,2.4c-0.1,0.1-0.3,0.1-0.4,0.2l-0.4,0.5c-0.3,0.5-0.6,1-0.9,1.5
				c-0.7,1-1.4,1.9-2.4,2.5c-0.2,0.3-0.5,0.6-0.7,0.9c-0.2,0.2-0.4,0.3-0.6,0.4l-2.1,2.4c0.1,0,0.1,0,0.2,0c5,0,9.9,0,14.9-0.3
				C914.1,559.6,914.3,559.6,914.5,559.6z"/>
		</g>
		<path class="st0" d="M968.5,455.5c0,4.4-3.5,8-7.8,8c-4.3,0-7.8-3.6-7.8-8c0-4.4,3.5-8,7.8-8C965,447.5,968.5,451.1,968.5,455.5z"
			/>
	</g>
</g>
</svg>
